<svg width="147" height="28" viewBox="0 0 147 28" fill="none" xmlns="http://www.w3.org/2000/svg">
<g clip-path="url(#clip0_2_15403)">
<g opacity="0.15" filter="url(#filter0_f_2_15403)">
<rect x="6.03491" y="9.21387" width="134.659" height="13.4563" rx="2.16" fill="#07133B"/>
</g>
<rect x="0.00195312" width="146" height="28" rx="4" fill="white"/>
<path d="M27.4412 11.808V12.488C27.1159 12.2747 26.7266 12.168 26.2732 12.168C25.9479 12.168 25.6892 12.2453 25.4972 12.4C25.3052 12.5493 25.2092 12.7467 25.2092 12.992C25.2092 13.12 25.2332 13.2347 25.2812 13.336C25.3346 13.4373 25.4252 13.5333 25.5532 13.624C25.6812 13.7093 25.7906 13.776 25.8812 13.824C25.9719 13.8667 26.1132 13.9307 26.3052 14.016C26.4866 14.096 26.6252 14.16 26.7212 14.208C26.8172 14.2507 26.9399 14.3227 27.0892 14.424C27.2439 14.52 27.3586 14.616 27.4332 14.712C27.5132 14.8027 27.5826 14.9253 27.6412 15.08C27.7052 15.2293 27.7372 15.392 27.7372 15.568C27.7372 16.0427 27.5746 16.4107 27.2492 16.672C26.9239 16.928 26.5052 17.056 25.9932 17.056C25.4279 17.056 24.9479 16.9413 24.5532 16.712V16.016C24.9426 16.3093 25.4172 16.456 25.9772 16.456C26.3132 16.456 26.5772 16.3813 26.7692 16.232C26.9612 16.0827 27.0572 15.8667 27.0572 15.584C27.0572 15.4667 27.0332 15.3627 26.9852 15.272C26.9426 15.176 26.8679 15.0907 26.7612 15.016C26.6599 14.936 26.5612 14.872 26.4652 14.824C26.3746 14.7707 26.2492 14.7067 26.0892 14.632C26.0572 14.616 26.0092 14.5947 25.9452 14.568C25.7159 14.4667 25.5399 14.384 25.4172 14.32C25.2999 14.256 25.1586 14.1627 24.9932 14.04C24.8332 13.912 24.7159 13.7653 24.6412 13.6C24.5666 13.4347 24.5292 13.2427 24.5292 13.024C24.5292 12.5653 24.6919 12.208 25.0172 11.952C25.3479 11.6907 25.7612 11.56 26.2572 11.56C26.7212 11.56 27.1159 11.6427 27.4412 11.808ZM31.3645 14.712V14.552C31.3645 14.216 31.2739 13.9493 31.0925 13.752C30.9112 13.5493 30.6605 13.448 30.3405 13.448C30.0365 13.448 29.7779 13.5573 29.5645 13.776C29.3512 13.9947 29.2259 14.3067 29.1885 14.712H31.3645ZM31.7405 16.2V16.792C31.4259 16.9573 31.0419 17.04 30.5885 17.04C29.9752 17.04 29.4792 16.8533 29.1005 16.48C28.7272 16.1013 28.5405 15.6027 28.5405 14.984C28.5405 14.3387 28.7085 13.8293 29.0445 13.456C29.3805 13.0827 29.8125 12.896 30.3405 12.896C30.8472 12.896 31.2499 13.0587 31.5485 13.384C31.8472 13.7093 31.9965 14.1707 31.9965 14.768C31.9965 14.9387 31.9832 15.096 31.9565 15.24H29.1885C29.2365 15.64 29.3885 15.9467 29.6445 16.16C29.9005 16.3733 30.2365 16.48 30.6525 16.48C31.1059 16.48 31.4685 16.3867 31.7405 16.2ZM35.1442 15.128H34.4402C34.0989 15.128 33.8429 15.1947 33.6722 15.328C33.5016 15.4613 33.4162 15.6293 33.4162 15.832C33.4162 16.0347 33.4829 16.2 33.6162 16.328C33.7496 16.4507 33.9442 16.512 34.2002 16.512C34.4882 16.512 34.7176 16.432 34.8882 16.272C35.0589 16.1067 35.1442 15.8987 35.1442 15.648V15.128ZM33.0482 13.792V13.16C33.3522 12.9733 33.7522 12.88 34.2482 12.88C35.2669 12.88 35.7762 13.3973 35.7762 14.432V17H35.1522V16.52C34.9442 16.8667 34.5656 17.04 34.0162 17.04C33.6376 17.04 33.3309 16.928 33.0962 16.704C32.8669 16.48 32.7522 16.1973 32.7522 15.856C32.7522 15.4667 32.8989 15.1653 33.1922 14.952C33.4909 14.7333 33.8962 14.624 34.4082 14.624H35.1442V14.416C35.1442 14.096 35.0722 13.856 34.9282 13.696C34.7842 13.5307 34.5416 13.448 34.2002 13.448C33.7682 13.448 33.3842 13.5627 33.0482 13.792ZM37.5217 12.944V13.656C37.7351 13.1547 38.1031 12.904 38.6257 12.904C38.7217 12.904 38.7964 12.9093 38.8497 12.92V13.544C38.7377 13.5067 38.6231 13.488 38.5057 13.488C38.2231 13.488 37.9884 13.6187 37.8017 13.88C37.6151 14.1413 37.5217 14.4427 37.5217 14.784V17H36.8897L36.8977 12.944H37.5217ZM39.9231 14.992C39.9284 15.4293 40.0618 15.7947 40.3231 16.088C40.5844 16.376 40.9551 16.52 41.4351 16.52C41.7444 16.52 42.0324 16.432 42.2991 16.256V16.856C42.0431 17.0107 41.7284 17.088 41.3551 17.088C40.7151 17.088 40.2058 16.8853 39.8271 16.48C39.4538 16.0693 39.2671 15.5707 39.2671 14.984C39.2671 14.408 39.4538 13.912 39.8271 13.496C40.2058 13.08 40.7204 12.872 41.3711 12.872C41.7178 12.872 42.0271 12.9467 42.2991 13.096V13.696C42.0538 13.5307 41.7658 13.448 41.4351 13.448C40.9764 13.448 40.6084 13.5973 40.3311 13.896C40.0591 14.1893 39.9231 14.5547 39.9231 14.992ZM43.8967 11.344V13.648C44.1367 13.1413 44.5634 12.888 45.1767 12.888C45.5661 12.888 45.8781 13.008 46.1127 13.248C46.3527 13.488 46.4727 13.8133 46.4727 14.224V17H45.8407V14.376C45.8407 14.0827 45.7634 13.856 45.6087 13.696C45.4594 13.536 45.2621 13.456 45.0167 13.456C44.7181 13.456 44.4567 13.5707 44.2327 13.8C44.0087 14.0293 43.8967 14.3573 43.8967 14.784V17H43.2727V11.344H43.8967ZM51.7302 15.128H51.0262C50.6848 15.128 50.4288 15.1947 50.2582 15.328C50.0875 15.4613 50.0022 15.6293 50.0022 15.832C50.0022 16.0347 50.0688 16.2 50.2022 16.328C50.3355 16.4507 50.5302 16.512 50.7862 16.512C51.0742 16.512 51.3035 16.432 51.4742 16.272C51.6448 16.1067 51.7302 15.8987 51.7302 15.648V15.128ZM49.6342 13.792V13.16C49.9382 12.9733 50.3382 12.88 50.8342 12.88C51.8528 12.88 52.3622 13.3973 52.3622 14.432V17H51.7382V16.52C51.5302 16.8667 51.1515 17.04 50.6022 17.04C50.2235 17.04 49.9168 16.928 49.6822 16.704C49.4528 16.48 49.3382 16.1973 49.3382 15.856C49.3382 15.4667 49.4848 15.1653 49.7782 14.952C50.0768 14.7333 50.4822 14.624 50.9942 14.624H51.7302V14.416C51.7302 14.096 51.6582 13.856 51.5142 13.696C51.3702 13.5307 51.1275 13.448 50.7862 13.448C50.3542 13.448 49.9702 13.5627 49.6342 13.792ZM53.5157 17V11.344H54.1477V17H53.5157ZM55.3828 17V11.344H56.0148V17H55.3828ZM59.2032 17V11.344H59.8352V17H59.2032ZM63.6223 14.712V14.552C63.6223 14.216 63.5317 13.9493 63.3503 13.752C63.169 13.5493 62.9183 13.448 62.5983 13.448C62.2943 13.448 62.0357 13.5573 61.8223 13.776C61.609 13.9947 61.4837 14.3067 61.4463 14.712H63.6223ZM63.9983 16.2V16.792C63.6837 16.9573 63.2997 17.04 62.8463 17.04C62.233 17.04 61.737 16.8533 61.3583 16.48C60.985 16.1013 60.7983 15.6027 60.7983 14.984C60.7983 14.3387 60.9663 13.8293 61.3023 13.456C61.6383 13.0827 62.0703 12.896 62.5983 12.896C63.105 12.896 63.5077 13.0587 63.8063 13.384C64.105 13.7093 64.2543 14.1707 64.2543 14.768C64.2543 14.9387 64.241 15.096 64.2143 15.24H61.4463C61.4943 15.64 61.6463 15.9467 61.9023 16.16C62.1583 16.3733 62.4943 16.48 62.9103 16.48C63.3637 16.48 63.7263 16.3867 63.9983 16.2ZM67.402 15.128H66.698C66.3567 15.128 66.1007 15.1947 65.93 15.328C65.7594 15.4613 65.674 15.6293 65.674 15.832C65.674 16.0347 65.7407 16.2 65.874 16.328C66.0074 16.4507 66.202 16.512 66.458 16.512C66.746 16.512 66.9754 16.432 67.146 16.272C67.3167 16.1067 67.402 15.8987 67.402 15.648V15.128ZM65.306 13.792V13.16C65.61 12.9733 66.01 12.88 66.506 12.88C67.5247 12.88 68.034 13.3973 68.034 14.432V17H67.41V16.52C67.202 16.8667 66.8234 17.04 66.274 17.04C65.8954 17.04 65.5887 16.928 65.354 16.704C65.1247 16.48 65.01 16.1973 65.01 15.856C65.01 15.4667 65.1567 15.1653 65.45 14.952C65.7487 14.7333 66.154 14.624 66.666 14.624H67.402V14.416C67.402 14.096 67.33 13.856 67.186 13.696C67.042 13.5307 66.7994 13.448 66.458 13.448C66.026 13.448 65.642 13.5627 65.306 13.792ZM70.6995 16.488C71.0302 16.488 71.3102 16.3653 71.5395 16.12C71.7742 15.8747 71.8915 15.4827 71.8915 14.944C71.8915 14.432 71.7715 14.056 71.5315 13.816C71.2915 13.576 71.0275 13.456 70.7395 13.456C70.4035 13.456 70.1235 13.592 69.8995 13.864C69.6809 14.1307 69.5715 14.5147 69.5715 15.016C69.5715 15.4533 69.6782 15.808 69.8915 16.08C70.1049 16.352 70.3742 16.488 70.6995 16.488ZM71.8915 11.344H72.5235V17H71.8915V16.4C71.6035 16.8427 71.1875 17.064 70.6435 17.064C70.1049 17.064 69.6809 16.864 69.3715 16.464C69.0675 16.064 68.9155 15.5787 68.9155 15.008C68.9155 14.3733 69.0782 13.8613 69.4035 13.472C69.7289 13.0773 70.1475 12.88 70.6595 12.88C71.1875 12.88 71.5982 13.1067 71.8915 13.56V11.344ZM75.9026 13.08V13.68C75.6573 13.5307 75.3213 13.456 74.8946 13.456C74.6813 13.456 74.5106 13.5067 74.3826 13.608C74.2599 13.704 74.1986 13.8293 74.1986 13.984C74.1986 14.08 74.2173 14.1653 74.2546 14.24C74.2919 14.3093 74.3639 14.3787 74.4706 14.448C74.5826 14.5173 74.6626 14.5653 74.7106 14.592C74.7639 14.6133 74.8759 14.6613 75.0466 14.736C75.3879 14.8747 75.6546 15.032 75.8466 15.208C76.0386 15.384 76.1346 15.6213 76.1346 15.92C76.1346 16.2667 76.0119 16.5413 75.7666 16.744C75.5266 16.9467 75.1959 17.048 74.7746 17.048C74.2839 17.048 73.8866 16.9653 73.5826 16.8V16.184C73.9399 16.3973 74.3239 16.504 74.7346 16.504C74.9799 16.504 75.1666 16.456 75.2946 16.36C75.4226 16.264 75.4866 16.1333 75.4866 15.968C75.4866 15.776 75.4146 15.6267 75.2706 15.52C75.1319 15.4133 74.8973 15.2933 74.5666 15.16C74.2626 15.0427 74.0173 14.896 73.8306 14.72C73.6493 14.544 73.5586 14.3067 73.5586 14.008C73.5586 13.672 73.6839 13.4053 73.9346 13.208C74.1906 13.0053 74.5079 12.904 74.8866 12.904C75.3079 12.904 75.6466 12.9627 75.9026 13.08Z" fill="#83899D"/>
<g clip-path="url(#clip1_2_15403)">
<path d="M11.6728 16.3333C13.1455 16.3333 14.3394 15.1394 14.3394 13.6667C14.3394 12.1939 13.1455 11 11.6728 11C10.2 11 9.0061 12.1939 9.0061 13.6667C9.0061 15.1394 10.2 16.3333 11.6728 16.3333Z" stroke="#83899D" stroke-width="0.7" stroke-linecap="round" stroke-linejoin="round"/>
<path d="M15.0071 16.9988L13.5571 15.5488" stroke="#83899D" stroke-width="0.7" stroke-linecap="round" stroke-linejoin="round"/>
</g>
</g>
<defs>
<filter id="filter0_f_2_15403" x="-15.5651" y="-12.3861" width="177.859" height="56.6561" filterUnits="userSpaceOnUse" color-interpolation-filters="sRGB">
<feFlood flood-opacity="0" result="BackgroundImageFix"/>
<feBlend mode="normal" in="SourceGraphic" in2="BackgroundImageFix" result="shape"/>
<feGaussianBlur stdDeviation="10.8" result="effect1_foregroundBlur_2_15403"/>
</filter>
<clipPath id="clip0_2_15403">
<rect width="146" height="28" fill="white" transform="translate(0.00195312)"/>
</clipPath>
<clipPath id="clip1_2_15403">
<rect width="8" height="8" fill="white" transform="translate(8.00415 9.99902)"/>
</clipPath>
</defs>
</svg>
