<svg width="206" height="116" viewBox="0 0 206 116" fill="none" xmlns="http://www.w3.org/2000/svg">
<g clip-path="url(#clip0_1013_16682)">
<g opacity="0.05" filter="url(#filter0_f_1013_16682)">
<path fill-rule="evenodd" clip-rule="evenodd" d="M6 7C2.68629 7 0 9.68629 0 13V98.0275C0 101.341 2.68629 104.027 6 104.027H164.408C165.126 104.027 165.789 104.412 166.145 105.035L171.263 113.992C172.031 115.336 173.969 115.336 174.736 113.992L179.853 105.035C180.209 104.412 180.872 104.027 181.589 104.027H200C203.314 104.027 206 101.341 206 98.0275V13C206 9.68629 203.314 7 200 7H6Z" fill="black"/>
</g>
<path fill-rule="evenodd" clip-rule="evenodd" d="M6 0C2.68629 0 0 2.68628 0 5.99999V98.6347C0 101.948 2.68629 104.635 6 104.635H163.544C164.226 104.635 164.861 104.983 165.229 105.557L171.315 115.078C172.101 116.308 173.899 116.308 174.685 115.078L180.768 105.558C181.136 104.983 181.771 104.635 182.453 104.635H200C203.314 104.635 206 101.948 206 98.6347V6C206 2.68629 203.314 0 200 0H6Z" fill="white"/>
<path d="M64.688 72.416C64.688 71.328 64.9333 70.352 65.424 69.488C65.9147 68.6133 66.5813 67.9307 67.424 67.44C68.2773 66.9493 69.2213 66.704 70.256 66.704C71.472 66.704 72.5333 66.9973 73.44 67.584C74.3467 68.1707 75.008 69.0027 75.424 70.08H73.68C73.3707 69.408 72.9227 68.8907 72.336 68.528C71.76 68.1653 71.0667 67.984 70.256 67.984C69.4773 67.984 68.7787 68.1653 68.16 68.528C67.5413 68.8907 67.056 69.408 66.704 70.08C66.352 70.7413 66.176 71.52 66.176 72.416C66.176 73.3013 66.352 74.08 66.704 74.752C67.056 75.4133 67.5413 75.9253 68.16 76.288C68.7787 76.6507 69.4773 76.832 70.256 76.832C71.0667 76.832 71.76 76.656 72.336 76.304C72.9227 75.9413 73.3707 75.424 73.68 74.752H75.424C75.008 75.8187 74.3467 76.6453 73.44 77.232C72.5333 77.808 71.472 78.096 70.256 78.096C69.2213 78.096 68.2773 77.856 67.424 77.376C66.5813 76.8853 65.9147 76.208 65.424 75.344C64.9333 74.48 64.688 73.504 64.688 72.416ZM81.4154 78.144C80.594 78.144 79.8474 77.9573 79.1754 77.584C78.514 77.2107 77.9914 76.6827 77.6074 76C77.234 75.3067 77.0474 74.5067 77.0474 73.6C77.0474 72.704 77.2394 71.9147 77.6234 71.232C78.018 70.5387 78.5514 70.0107 79.2234 69.648C79.8954 69.2747 80.6474 69.088 81.4794 69.088C82.3114 69.088 83.0634 69.2747 83.7354 69.648C84.4074 70.0107 84.9354 70.5333 85.3194 71.216C85.714 71.8987 85.9114 72.6933 85.9114 73.6C85.9114 74.5067 85.7087 75.3067 85.3034 76C84.9087 76.6827 84.37 77.2107 83.6874 77.584C83.0047 77.9573 82.2474 78.144 81.4154 78.144ZM81.4154 76.864C81.938 76.864 82.4287 76.7413 82.8874 76.496C83.346 76.2507 83.714 75.8827 83.9914 75.392C84.2794 74.9013 84.4234 74.304 84.4234 73.6C84.4234 72.896 84.2847 72.2987 84.0074 71.808C83.73 71.3173 83.3674 70.9547 82.9194 70.72C82.4714 70.4747 81.986 70.352 81.4634 70.352C80.93 70.352 80.4394 70.4747 79.9914 70.72C79.554 70.9547 79.202 71.3173 78.9354 71.808C78.6687 72.2987 78.5354 72.896 78.5354 73.6C78.5354 74.3147 78.6634 74.9173 78.9194 75.408C79.186 75.8987 79.538 76.2667 79.9754 76.512C80.4127 76.7467 80.8927 76.864 81.4154 76.864ZM92.0978 69.072C93.1644 69.072 94.0284 69.3973 94.6898 70.048C95.3511 70.688 95.6818 71.616 95.6818 72.832V78H94.2418V73.04C94.2418 72.1653 94.0231 71.4987 93.5858 71.04C93.1484 70.5707 92.5511 70.336 91.7938 70.336C91.0258 70.336 90.4124 70.576 89.9538 71.056C89.5058 71.536 89.2818 72.2347 89.2818 73.152V78H87.8258V69.232H89.2818V70.48C89.5698 70.032 89.9591 69.6853 90.4498 69.44C90.9511 69.1947 91.5004 69.072 92.0978 69.072ZM101.164 78.144C100.492 78.144 99.8895 78.032 99.3561 77.808C98.8228 77.5733 98.4015 77.2533 98.0921 76.848C97.7828 76.432 97.6121 75.9573 97.5801 75.424H99.0841C99.1268 75.8613 99.3295 76.2187 99.6921 76.496C100.065 76.7733 100.551 76.912 101.148 76.912C101.703 76.912 102.14 76.7893 102.46 76.544C102.78 76.2987 102.94 75.9893 102.94 75.616C102.94 75.232 102.769 74.9493 102.428 74.768C102.087 74.576 101.559 74.3893 100.844 74.208C100.193 74.0373 99.6601 73.8667 99.2441 73.696C98.8388 73.5147 98.4868 73.2533 98.1881 72.912C97.9001 72.56 97.7561 72.1013 97.7561 71.536C97.7561 71.088 97.8895 70.6773 98.1561 70.304C98.4228 69.9307 98.8015 69.6373 99.2921 69.424C99.7828 69.2 100.343 69.088 100.972 69.088C101.943 69.088 102.727 69.3333 103.324 69.824C103.921 70.3147 104.241 70.9867 104.284 71.84H102.828C102.796 71.3813 102.609 71.0133 102.268 70.736C101.937 70.4587 101.489 70.32 100.924 70.32C100.401 70.32 99.9855 70.432 99.6761 70.656C99.3668 70.88 99.2121 71.1733 99.2121 71.536C99.2121 71.824 99.3028 72.064 99.4841 72.256C99.6761 72.4373 99.9108 72.5867 100.188 72.704C100.476 72.8107 100.871 72.9333 101.372 73.072C102.001 73.2427 102.513 73.4133 102.908 73.584C103.303 73.744 103.639 73.9893 103.916 74.32C104.204 74.6507 104.353 75.0827 104.364 75.616C104.364 76.096 104.231 76.528 103.964 76.912C103.697 77.296 103.319 77.6 102.828 77.824C102.348 78.0373 101.793 78.144 101.164 78.144ZM108.196 70.432V75.6C108.196 76.0267 108.286 76.3307 108.468 76.512C108.649 76.6827 108.964 76.768 109.411 76.768H110.484V78H109.172C108.361 78 107.753 77.8133 107.348 77.44C106.942 77.0667 106.74 76.4533 106.74 75.6V70.432H105.604V69.232H106.74V67.024H108.196V69.232H110.484V70.432H108.196ZM113.704 70.656C113.96 70.1547 114.322 69.7653 114.792 69.488C115.272 69.2107 115.853 69.072 116.536 69.072V70.576H116.152C114.52 70.576 113.704 71.4613 113.704 73.232V78H112.248V69.232H113.704V70.656ZM117.672 73.584C117.672 72.688 117.854 71.904 118.216 71.232C118.579 70.5493 119.075 70.0213 119.704 69.648C120.344 69.2747 121.054 69.088 121.832 69.088C122.6 69.088 123.267 69.2533 123.832 69.584C124.398 69.9147 124.819 70.3307 125.096 70.832V69.232H126.568V78H125.096V76.368C124.808 76.88 124.376 77.3067 123.8 77.648C123.235 77.9787 122.574 78.144 121.816 78.144C121.038 78.144 120.334 77.952 119.704 77.568C119.075 77.184 118.579 76.6453 118.216 75.952C117.854 75.2587 117.672 74.4693 117.672 73.584ZM125.096 73.6C125.096 72.9387 124.963 72.3627 124.696 71.872C124.43 71.3813 124.067 71.008 123.608 70.752C123.16 70.4853 122.664 70.352 122.12 70.352C121.576 70.352 121.08 70.48 120.632 70.736C120.184 70.992 119.827 71.3653 119.56 71.856C119.294 72.3467 119.16 72.9227 119.16 73.584C119.16 74.256 119.294 74.8427 119.56 75.344C119.827 75.8347 120.184 76.2133 120.632 76.48C121.08 76.736 121.576 76.864 122.12 76.864C122.664 76.864 123.16 76.736 123.608 76.48C124.067 76.2133 124.43 75.8347 124.696 75.344C124.963 74.8427 125.096 74.2613 125.096 73.6ZM129.781 67.808C129.504 67.808 129.269 67.712 129.077 67.52C128.885 67.328 128.789 67.0933 128.789 66.816C128.789 66.5387 128.885 66.304 129.077 66.112C129.269 65.92 129.504 65.824 129.781 65.824C130.048 65.824 130.272 65.92 130.453 66.112C130.645 66.304 130.741 66.5387 130.741 66.816C130.741 67.0933 130.645 67.328 130.453 67.52C130.272 67.712 130.048 67.808 129.781 67.808ZM130.485 69.232V78H129.029V69.232H130.485ZM137.238 69.072C138.305 69.072 139.169 69.3973 139.83 70.048C140.492 70.688 140.822 71.616 140.822 72.832V78H139.382V73.04C139.382 72.1653 139.164 71.4987 138.726 71.04C138.289 70.5707 137.692 70.336 136.934 70.336C136.166 70.336 135.553 70.576 135.094 71.056C134.646 71.536 134.422 72.2347 134.422 73.152V78H132.966V69.232H134.422V70.48C134.71 70.032 135.1 69.6853 135.59 69.44C136.092 69.1947 136.641 69.072 137.238 69.072ZM151.201 73.28C151.201 73.5573 151.185 73.8507 151.153 74.16H144.145C144.198 75.024 144.491 75.7013 145.025 76.192C145.569 76.672 146.225 76.912 146.993 76.912C147.622 76.912 148.145 76.768 148.561 76.48C148.987 76.1813 149.286 75.7867 149.457 75.296H151.025C150.79 76.1387 150.321 76.8267 149.617 77.36C148.913 77.8827 148.038 78.144 146.993 78.144C146.161 78.144 145.414 77.9573 144.753 77.584C144.102 77.2107 143.59 76.6827 143.217 76C142.843 75.3067 142.657 74.5067 142.657 73.6C142.657 72.6933 142.838 71.8987 143.201 71.216C143.563 70.5333 144.07 70.0107 144.721 69.648C145.382 69.2747 146.139 69.088 146.993 69.088C147.825 69.088 148.561 69.2693 149.201 69.632C149.841 69.9947 150.331 70.496 150.673 71.136C151.025 71.7653 151.201 72.48 151.201 73.28ZM149.697 72.976C149.697 72.4213 149.574 71.9467 149.329 71.552C149.083 71.1467 148.747 70.8427 148.321 70.64C147.905 70.4267 147.441 70.32 146.929 70.32C146.193 70.32 145.563 70.5547 145.041 71.024C144.529 71.4933 144.235 72.144 144.161 72.976H149.697ZM152.579 73.584C152.579 72.688 152.76 71.904 153.123 71.232C153.485 70.5493 153.981 70.0213 154.611 69.648C155.251 69.2747 155.965 69.088 156.755 69.088C157.437 69.088 158.072 69.248 158.659 69.568C159.245 69.8773 159.693 70.288 160.003 70.8V66.16H161.475V78H160.003V76.352C159.715 76.8747 159.288 77.3067 158.723 77.648C158.157 77.9787 157.496 78.144 156.739 78.144C155.96 78.144 155.251 77.952 154.611 77.568C153.981 77.184 153.485 76.6453 153.123 75.952C152.76 75.2587 152.579 74.4693 152.579 73.584ZM160.003 73.6C160.003 72.9387 159.869 72.3627 159.603 71.872C159.336 71.3813 158.973 71.008 158.515 70.752C158.067 70.4853 157.571 70.352 157.027 70.352C156.483 70.352 155.987 70.48 155.539 70.736C155.091 70.992 154.733 71.3653 154.467 71.856C154.2 72.3467 154.067 72.9227 154.067 73.584C154.067 74.256 154.2 74.8427 154.467 75.344C154.733 75.8347 155.091 76.2133 155.539 76.48C155.987 76.736 156.483 76.864 157.027 76.864C157.571 76.864 158.067 76.736 158.515 76.48C158.973 76.2133 159.336 75.8347 159.603 75.344C159.869 74.8427 160.003 74.2613 160.003 73.6Z" fill="#83899D"/>
<path d="M43 76.801V67.199C42.9996 66.7781 42.8864 66.3646 42.6719 66.0002C42.4574 65.6357 42.149 65.3331 41.7778 65.1226L33.2222 60.3216C32.8506 60.1109 32.4291 60 32 60C31.5709 60 31.1494 60.1109 30.7778 60.3216L22.2222 65.1226C21.851 65.3331 21.5426 65.6357 21.3281 66.0002C21.1136 66.3646 21.0004 66.7781 21 67.199V76.801C21.0004 77.2219 21.1136 77.6354 21.3281 77.9998C21.5426 78.3643 21.851 78.6669 22.2222 78.8774L30.7778 83.6784C31.1494 83.8891 31.5709 84 32 84C32.4291 84 32.8506 83.8891 33.2222 83.6784L41.7778 78.8774C42.149 78.6669 42.4574 78.3643 42.6719 77.9998C42.8864 77.6354 42.9996 77.2219 43 76.801Z" fill="#C1EED8" stroke="#C1EED8" stroke-width="2" stroke-linecap="round" stroke-linejoin="round"/>
<path d="M66.656 26.848V33.904C66.656 34.896 66.896 35.632 67.376 36.112C67.8667 36.592 68.544 36.832 69.408 36.832C70.2613 36.832 70.928 36.592 71.408 36.112C71.8987 35.632 72.144 34.896 72.144 33.904V26.848H73.6V33.888C73.6 34.816 73.4133 35.6 73.04 36.24C72.6667 36.8693 72.16 37.3387 71.52 37.648C70.8907 37.9573 70.1813 38.112 69.392 38.112C68.6027 38.112 67.888 37.9573 67.248 37.648C66.6187 37.3387 66.1173 36.8693 65.744 36.24C65.3813 35.6 65.2 34.816 65.2 33.888V26.848H66.656ZM80.3009 29.072C81.3675 29.072 82.2315 29.3973 82.8929 30.048C83.5542 30.688 83.8849 31.616 83.8849 32.832V38H82.4449V33.04C82.4449 32.1653 82.2262 31.4987 81.7889 31.04C81.3515 30.5707 80.7542 30.336 79.9969 30.336C79.2289 30.336 78.6155 30.576 78.1569 31.056C77.7089 31.536 77.4849 32.2347 77.4849 33.152V38H76.0289V29.232H77.4849V30.48C77.7729 30.032 78.1622 29.6853 78.6529 29.44C79.1542 29.1947 79.7035 29.072 80.3009 29.072ZM85.7193 33.6C85.7193 32.6933 85.9006 31.904 86.2633 31.232C86.6259 30.5493 87.1273 30.0213 87.7673 29.648C88.4179 29.2747 89.1593 29.088 89.9913 29.088C91.0686 29.088 91.9539 29.3493 92.6473 29.872C93.3513 30.3947 93.8153 31.12 94.0393 32.048H92.4713C92.3219 31.5147 92.0286 31.0933 91.5913 30.784C91.1646 30.4747 90.6313 30.32 89.9913 30.32C89.1593 30.32 88.4873 30.608 87.9753 31.184C87.4633 31.7493 87.2073 32.5547 87.2073 33.6C87.2073 34.656 87.4633 35.472 87.9753 36.048C88.4873 36.624 89.1593 36.912 89.9913 36.912C90.6313 36.912 91.1646 36.7627 91.5913 36.464C92.0179 36.1653 92.3113 35.7387 92.4713 35.184H94.0393C93.8046 36.08 93.3353 36.8 92.6313 37.344C91.9273 37.8773 91.0473 38.144 89.9913 38.144C89.1593 38.144 88.4179 37.9573 87.7673 37.584C87.1273 37.2107 86.6259 36.6827 86.2633 36C85.9006 35.3173 85.7193 34.5173 85.7193 33.6ZM99.806 38.144C98.9847 38.144 98.238 37.9573 97.566 37.584C96.9047 37.2107 96.382 36.6827 95.998 36C95.6247 35.3067 95.438 34.5067 95.438 33.6C95.438 32.704 95.63 31.9147 96.014 31.232C96.4087 30.5387 96.942 30.0107 97.614 29.648C98.286 29.2747 99.038 29.088 99.87 29.088C100.702 29.088 101.454 29.2747 102.126 29.648C102.798 30.0107 103.326 30.5333 103.71 31.216C104.105 31.8987 104.302 32.6933 104.302 33.6C104.302 34.5067 104.099 35.3067 103.694 36C103.299 36.6827 102.761 37.2107 102.078 37.584C101.395 37.9573 100.638 38.144 99.806 38.144ZM99.806 36.864C100.329 36.864 100.819 36.7413 101.278 36.496C101.737 36.2507 102.105 35.8827 102.382 35.392C102.67 34.9013 102.814 34.304 102.814 33.6C102.814 32.896 102.675 32.2987 102.398 31.808C102.121 31.3173 101.758 30.9547 101.31 30.72C100.862 30.4747 100.377 30.352 99.854 30.352C99.3207 30.352 98.83 30.4747 98.382 30.72C97.9447 30.9547 97.5927 31.3173 97.326 31.808C97.0593 32.2987 96.926 32.896 96.926 33.6C96.926 34.3147 97.054 34.9173 97.31 35.408C97.5767 35.8987 97.9287 36.2667 98.366 36.512C98.8033 36.7467 99.2833 36.864 99.806 36.864ZM110.488 29.072C111.555 29.072 112.419 29.3973 113.08 30.048C113.742 30.688 114.072 31.616 114.072 32.832V38H112.632V33.04C112.632 32.1653 112.414 31.4987 111.976 31.04C111.539 30.5707 110.942 30.336 110.184 30.336C109.416 30.336 108.803 30.576 108.344 31.056C107.896 31.536 107.672 32.2347 107.672 33.152V38H106.216V29.232H107.672V30.48C107.96 30.032 108.35 29.6853 108.84 29.44C109.342 29.1947 109.891 29.072 110.488 29.072ZM119.555 38.144C118.883 38.144 118.28 38.032 117.747 37.808C117.213 37.5733 116.792 37.2533 116.483 36.848C116.173 36.432 116.003 35.9573 115.971 35.424H117.475C117.517 35.8613 117.72 36.2187 118.083 36.496C118.456 36.7733 118.941 36.912 119.539 36.912C120.093 36.912 120.531 36.7893 120.851 36.544C121.171 36.2987 121.331 35.9893 121.331 35.616C121.331 35.232 121.16 34.9493 120.819 34.768C120.477 34.576 119.949 34.3893 119.235 34.208C118.584 34.0373 118.051 33.8667 117.635 33.696C117.229 33.5147 116.877 33.2533 116.579 32.912C116.291 32.56 116.147 32.1013 116.147 31.536C116.147 31.088 116.28 30.6773 116.547 30.304C116.813 29.9307 117.192 29.6373 117.683 29.424C118.173 29.2 118.733 29.088 119.363 29.088C120.333 29.088 121.117 29.3333 121.715 29.824C122.312 30.3147 122.632 30.9867 122.675 31.84H121.219C121.187 31.3813 121 31.0133 120.659 30.736C120.328 30.4587 119.88 30.32 119.315 30.32C118.792 30.32 118.376 30.432 118.067 30.656C117.757 30.88 117.603 31.1733 117.603 31.536C117.603 31.824 117.693 32.064 117.875 32.256C118.067 32.4373 118.301 32.5867 118.579 32.704C118.867 32.8107 119.261 32.9333 119.763 33.072C120.392 33.2427 120.904 33.4133 121.299 33.584C121.693 33.744 122.029 33.9893 122.307 34.32C122.595 34.6507 122.744 35.0827 122.755 35.616C122.755 36.096 122.621 36.528 122.355 36.912C122.088 37.296 121.709 37.6 121.219 37.824C120.739 38.0373 120.184 38.144 119.555 38.144ZM126.586 30.432V35.6C126.586 36.0267 126.677 36.3307 126.858 36.512C127.039 36.6827 127.354 36.768 127.802 36.768H128.874V38H127.562C126.751 38 126.143 37.8133 125.738 37.44C125.333 37.0667 125.13 36.4533 125.13 35.6V30.432H123.994V29.232H125.13V27.024H126.586V29.232H128.874V30.432H126.586ZM132.094 30.656C132.35 30.1547 132.713 29.7653 133.182 29.488C133.662 29.2107 134.244 29.072 134.926 29.072V30.576H134.542C132.91 30.576 132.094 31.4613 132.094 33.232V38H130.638V29.232H132.094V30.656ZM136.063 33.584C136.063 32.688 136.244 31.904 136.607 31.232C136.97 30.5493 137.466 30.0213 138.095 29.648C138.735 29.2747 139.444 29.088 140.223 29.088C140.991 29.088 141.658 29.2533 142.223 29.584C142.788 29.9147 143.21 30.3307 143.487 30.832V29.232H144.959V38H143.487V36.368C143.199 36.88 142.767 37.3067 142.191 37.648C141.626 37.9787 140.964 38.144 140.207 38.144C139.428 38.144 138.724 37.952 138.095 37.568C137.466 37.184 136.97 36.6453 136.607 35.952C136.244 35.2587 136.063 34.4693 136.063 33.584ZM143.487 33.6C143.487 32.9387 143.354 32.3627 143.087 31.872C142.82 31.3813 142.458 31.008 141.999 30.752C141.551 30.4853 141.055 30.352 140.511 30.352C139.967 30.352 139.471 30.48 139.023 30.736C138.575 30.992 138.218 31.3653 137.951 31.856C137.684 32.3467 137.551 32.9227 137.551 33.584C137.551 34.256 137.684 34.8427 137.951 35.344C138.218 35.8347 138.575 36.2133 139.023 36.48C139.471 36.736 139.967 36.864 140.511 36.864C141.055 36.864 141.551 36.736 141.999 36.48C142.458 36.2133 142.82 35.8347 143.087 35.344C143.354 34.8427 143.487 34.2613 143.487 33.6ZM148.172 27.808C147.894 27.808 147.66 27.712 147.468 27.52C147.276 27.328 147.18 27.0933 147.18 26.816C147.18 26.5387 147.276 26.304 147.468 26.112C147.66 25.92 147.894 25.824 148.172 25.824C148.438 25.824 148.662 25.92 148.844 26.112C149.036 26.304 149.132 26.5387 149.132 26.816C149.132 27.0933 149.036 27.328 148.844 27.52C148.662 27.712 148.438 27.808 148.172 27.808ZM148.876 29.232V38H147.42V29.232H148.876ZM155.629 29.072C156.696 29.072 157.56 29.3973 158.221 30.048C158.882 30.688 159.213 31.616 159.213 32.832V38H157.773V33.04C157.773 32.1653 157.554 31.4987 157.117 31.04C156.68 30.5707 156.082 30.336 155.325 30.336C154.557 30.336 153.944 30.576 153.485 31.056C153.037 31.536 152.813 32.2347 152.813 33.152V38H151.357V29.232H152.813V30.48C153.101 30.032 153.49 29.6853 153.981 29.44C154.482 29.1947 155.032 29.072 155.629 29.072ZM169.591 33.28C169.591 33.5573 169.575 33.8507 169.543 34.16H162.535C162.589 35.024 162.882 35.7013 163.415 36.192C163.959 36.672 164.615 36.912 165.383 36.912C166.013 36.912 166.535 36.768 166.951 36.48C167.378 36.1813 167.677 35.7867 167.847 35.296H169.415C169.181 36.1387 168.711 36.8267 168.007 37.36C167.303 37.8827 166.429 38.144 165.383 38.144C164.551 38.144 163.805 37.9573 163.143 37.584C162.493 37.2107 161.981 36.6827 161.607 36C161.234 35.3067 161.047 34.5067 161.047 33.6C161.047 32.6933 161.229 31.8987 161.591 31.216C161.954 30.5333 162.461 30.0107 163.111 29.648C163.773 29.2747 164.53 29.088 165.383 29.088C166.215 29.088 166.951 29.2693 167.591 29.632C168.231 29.9947 168.722 30.496 169.063 31.136C169.415 31.7653 169.591 32.48 169.591 33.28ZM168.087 32.976C168.087 32.4213 167.965 31.9467 167.719 31.552C167.474 31.1467 167.138 30.8427 166.711 30.64C166.295 30.4267 165.831 30.32 165.319 30.32C164.583 30.32 163.954 30.5547 163.431 31.024C162.919 31.4933 162.626 32.144 162.551 32.976H168.087ZM170.969 33.584C170.969 32.688 171.151 31.904 171.513 31.232C171.876 30.5493 172.372 30.0213 173.001 29.648C173.641 29.2747 174.356 29.088 175.145 29.088C175.828 29.088 176.463 29.248 177.049 29.568C177.636 29.8773 178.084 30.288 178.393 30.8V26.16H179.865V38H178.393V36.352C178.105 36.8747 177.679 37.3067 177.113 37.648C176.548 37.9787 175.887 38.144 175.129 38.144C174.351 38.144 173.641 37.952 173.001 37.568C172.372 37.184 171.876 36.6453 171.513 35.952C171.151 35.2587 170.969 34.4693 170.969 33.584ZM178.393 33.6C178.393 32.9387 178.26 32.3627 177.993 31.872C177.727 31.3813 177.364 31.008 176.905 30.752C176.457 30.4853 175.961 30.352 175.417 30.352C174.873 30.352 174.377 30.48 173.929 30.736C173.481 30.992 173.124 31.3653 172.857 31.856C172.591 32.3467 172.457 32.9227 172.457 33.584C172.457 34.256 172.591 34.8427 172.857 35.344C173.124 35.8347 173.481 36.2133 173.929 36.48C174.377 36.736 174.873 36.864 175.417 36.864C175.961 36.864 176.457 36.736 176.905 36.48C177.364 36.2133 177.727 35.8347 177.993 35.344C178.26 34.8427 178.393 34.2613 178.393 33.6Z" fill="#83899D"/>
<path d="M43 36.801V27.199C42.9996 26.7781 42.8864 26.3646 42.6719 26.0002C42.4574 25.6357 42.149 25.3331 41.7778 25.1226L33.2222 20.3216C32.8506 20.1109 32.4291 20 32 20C31.5709 20 31.1494 20.1109 30.7778 20.3216L22.2222 25.1226C21.851 25.3331 21.5426 25.6357 21.3281 26.0002C21.1136 26.3646 21.0004 26.7781 21 27.199V36.801C21.0004 37.2219 21.1136 37.6354 21.3281 37.9998C21.5426 38.3643 21.851 38.6669 22.2222 38.8774L30.7778 43.6784C31.1494 43.8891 31.5709 44 32 44C32.4291 44 32.8506 43.8891 33.2222 43.6784L41.7778 38.8774C42.149 38.6669 42.4574 38.3643 42.6719 37.9998C42.8864 37.6354 42.9996 37.2219 43 36.801Z" fill="#1AD079" stroke="#1AD079" stroke-width="2" stroke-linecap="round" stroke-linejoin="round"/>
</g>
<defs>
<filter id="filter0_f_1013_16682" x="-20" y="-13" width="246" height="148" filterUnits="userSpaceOnUse" color-interpolation-filters="sRGB">
<feFlood flood-opacity="0" result="BackgroundImageFix"/>
<feBlend mode="normal" in="SourceGraphic" in2="BackgroundImageFix" result="shape"/>
<feGaussianBlur stdDeviation="10" result="effect1_foregroundBlur_1013_16682"/>
</filter>
<clipPath id="clip0_1013_16682">
<rect width="206" height="116.001" fill="white"/>
</clipPath>
</defs>
</svg>
