<svg width="103" height="103" viewBox="0 0 103 103" fill="none" xmlns="http://www.w3.org/2000/svg">
<g clip-path="url(#clip0_2_15410)">
<g opacity="0.15" filter="url(#filter0_f_2_15410)">
<rect x="7.33984" y="4.50195" width="84.3609" height="91.0434" rx="2.16" fill="#07133B"/>
</g>
<rect x="0.792969" y="0.367188" width="102" height="102" rx="7.19168" fill="white"/>
<path d="M13.054 28.9212V28.0102L14.7151 27.0028H15.5082V34.0117H14.6723V27.9245L13.054 28.9212ZM17.7965 33.2722H21.0544V34.0117H16.6283V33.2937C18.8432 31.6218 19.9506 30.2286 19.9506 29.1141C19.9506 28.6711 19.822 28.3317 19.5648 28.096C19.3076 27.853 18.961 27.7316 18.5252 27.7316C17.9608 27.7316 17.4035 27.9423 16.8534 28.3639V27.5172C17.3606 27.1243 17.9429 26.9278 18.6002 26.9278C19.229 26.9278 19.7577 27.11 20.1863 27.4744C20.615 27.8387 20.8294 28.3567 20.8294 29.0283C20.8294 30.2929 19.8184 31.7076 17.7965 33.2722ZM22.0341 28.1495V27.3243C22.4485 27.06 22.9272 26.9278 23.4702 26.9278C24.1633 26.9278 24.6991 27.1064 25.0778 27.4637C25.4636 27.8137 25.6565 28.2496 25.6565 28.7711C25.6565 29.1498 25.56 29.4892 25.3671 29.7892C25.1814 30.0893 24.9027 30.3144 24.5312 30.4644C24.9384 30.5573 25.26 30.7466 25.4957 31.0324C25.7386 31.311 25.8601 31.6611 25.8601 32.0827C25.8601 32.6542 25.6601 33.1294 25.26 33.508C24.8599 33.8867 24.2954 34.076 23.5667 34.076C22.8951 34.076 22.3128 33.9581 21.8198 33.7224V32.8757C22.3485 33.1544 22.9237 33.2937 23.5452 33.2937C24.0025 33.2937 24.3562 33.1758 24.6062 32.94C24.8634 32.7042 24.992 32.397 24.992 32.0184C24.992 31.6397 24.8491 31.3503 24.5634 31.1503C24.2847 30.9431 23.881 30.8395 23.3523 30.8395H22.9022V30.1H23.3523C23.7524 30.1 24.0882 29.9893 24.3597 29.7678C24.6384 29.5392 24.7777 29.2355 24.7777 28.8569C24.7777 28.4782 24.6598 28.1924 24.424 27.9995C24.1883 27.8066 23.8632 27.7101 23.4488 27.7101C22.9558 27.7101 22.4843 27.8566 22.0341 28.1495ZM34.0105 26.7885H34.8786V34.0117H34.0105V30.743H30.5061V34.0117H29.638V26.7885H30.5061V29.9607H34.0105V26.7885ZM36.4203 34.0117V28.5782H37.2669V34.0117H36.4203ZM36.4417 27.2707C36.3417 27.1636 36.2917 27.0314 36.2917 26.8742C36.2917 26.717 36.3417 26.5849 36.4417 26.4777C36.5489 26.3705 36.6811 26.3169 36.8383 26.3169C36.9955 26.3169 37.1276 26.3705 37.2348 26.4777C37.342 26.5849 37.3956 26.717 37.3956 26.8742C37.3956 27.0314 37.342 27.1636 37.2348 27.2707C37.1276 27.3708 36.9955 27.4208 36.8383 27.4208C36.6811 27.4208 36.5489 27.3708 36.4417 27.2707ZM40.8108 33.1222C41.2038 33.1222 41.5503 32.9722 41.8503 32.6721C42.1576 32.3649 42.3112 31.9112 42.3112 31.311C42.3112 30.618 42.1647 30.1036 41.8718 29.7678C41.5788 29.432 41.2395 29.2641 40.8537 29.2641C40.3893 29.2641 40.0213 29.4499 39.7498 29.8214C39.4783 30.1858 39.3426 30.6645 39.3426 31.2575C39.3426 31.8648 39.4926 32.3292 39.7927 32.6507C40.0928 32.965 40.4321 33.1222 40.8108 33.1222ZM42.3112 28.5782H43.1578V33.5723C43.1578 34.4011 42.9292 35.0227 42.4719 35.4371C42.0147 35.8586 41.4252 36.0694 40.7036 36.0694C40.0463 36.0694 39.4855 35.9586 39.0211 35.7372V34.8905C39.4783 35.1549 40.0142 35.287 40.6286 35.287C41.1502 35.287 41.561 35.1477 41.8611 34.8691C42.1611 34.5904 42.3112 34.1546 42.3112 33.5616V32.9507C41.9539 33.5652 41.4217 33.8724 40.7143 33.8724C40.0928 33.8724 39.5605 33.6438 39.1175 33.1865C38.6817 32.7293 38.4638 32.0934 38.4638 31.2789C38.4638 30.4715 38.6674 29.8071 39.0746 29.2855C39.4819 28.764 40.0142 28.5032 40.6715 28.5032C41.4145 28.5032 41.9611 28.8283 42.3112 29.4784V28.5782ZM45.3881 26.4348V29.5213C45.7096 28.8426 46.2812 28.5032 47.1028 28.5032C47.6243 28.5032 48.0423 28.664 48.3567 28.9855C48.6782 29.307 48.8389 29.7428 48.8389 30.2929V34.0117H47.9923V30.4966C47.9923 30.1036 47.8887 29.8 47.6815 29.5856C47.4815 29.3713 47.2171 29.2641 46.8885 29.2641C46.4884 29.2641 46.1383 29.4177 45.8382 29.7249C45.5381 30.0322 45.3881 30.4715 45.3881 31.0431V34.0117H44.5522V26.4348H45.3881ZM56.5738 27.0564V27.9673C56.1379 27.6816 55.6164 27.5387 55.0091 27.5387C54.5733 27.5387 54.2267 27.6423 53.9695 27.8495C53.7123 28.0495 53.5837 28.3139 53.5837 28.6425C53.5837 28.814 53.6159 28.9676 53.6802 29.1033C53.7516 29.2391 53.8731 29.3677 54.0445 29.4892C54.216 29.6035 54.3625 29.6928 54.4839 29.7571C54.6054 29.8142 54.7947 29.9 55.0519 30.0143C55.2949 30.1215 55.4806 30.2072 55.6092 30.2715C55.7378 30.3287 55.9022 30.4251 56.1022 30.5609C56.3094 30.6895 56.463 30.8181 56.563 30.9467C56.6702 31.0681 56.7631 31.2325 56.8417 31.4396C56.9274 31.6397 56.9703 31.8576 56.9703 32.0934C56.9703 32.7293 56.7524 33.2222 56.3165 33.5723C55.8807 33.9153 55.3199 34.0867 54.634 34.0867C53.8767 34.0867 53.2336 33.9331 52.7049 33.6259V32.6935C53.2265 33.0865 53.8624 33.283 54.6125 33.283C55.0627 33.283 55.4163 33.1829 55.6735 32.9829C55.9307 32.7828 56.0593 32.4935 56.0593 32.1148C56.0593 31.9576 56.0272 31.8183 55.9629 31.6969C55.9057 31.5683 55.8057 31.4539 55.6628 31.3539C55.5271 31.2467 55.3949 31.161 55.2663 31.0967C55.1448 31.0253 54.9769 30.9395 54.7626 30.8395C54.7197 30.8181 54.6554 30.7895 54.5697 30.7538C54.2625 30.618 54.0267 30.5073 53.8624 30.4215C53.7052 30.3358 53.5158 30.2108 53.2944 30.0464C53.08 29.875 52.9228 29.6785 52.8228 29.457C52.7228 29.2355 52.6728 28.9783 52.6728 28.6854C52.6728 28.0709 52.8907 27.5923 53.3265 27.2493C53.7695 26.8992 54.3232 26.7242 54.9876 26.7242C55.6092 26.7242 56.1379 26.8349 56.5738 27.0564ZM59.4319 29.2641V32.447C59.4319 33.0258 59.7034 33.3151 60.2464 33.3151C60.525 33.3151 60.7715 33.233 60.9858 33.0686V33.8724C60.7501 34.001 60.4857 34.0653 60.1928 34.0653C59.1211 34.0653 58.5852 33.5187 58.5852 32.4256V29.2641H57.7172V28.5782H58.5852V27.2279H59.4319V28.5782H60.9323V29.2641H59.4319ZM61.7727 33.9153C61.6512 33.7938 61.5905 33.6438 61.5905 33.4652C61.5905 33.2865 61.6512 33.1365 61.7727 33.015C61.8941 32.8936 62.0442 32.8329 62.2228 32.8329C62.4014 32.8329 62.5514 32.8936 62.6729 33.015C62.7943 33.1365 62.8551 33.2865 62.8551 33.4652C62.8551 33.6438 62.7943 33.7938 62.6729 33.9153C62.5514 34.0367 62.4014 34.0975 62.2228 34.0975C62.0442 34.0975 61.8941 34.0367 61.7727 33.9153Z" fill="#07133B"/>
<path d="M17.1341 49.8378V51.2096C16.6197 50.9111 16.0862 50.7618 15.5337 50.7618C15.286 50.7618 15.0955 50.8126 14.9621 50.9142C14.8351 51.0159 14.7716 51.1461 14.7716 51.3048C14.7716 51.4636 14.851 51.6065 15.0097 51.7335C15.1685 51.8542 15.4067 51.9844 15.7242 52.1241C15.9211 52.213 16.083 52.2924 16.21 52.3622C16.3434 52.4257 16.4926 52.5178 16.6578 52.6385C16.8292 52.7528 16.9626 52.8766 17.0579 53.01C17.1595 53.137 17.2452 53.2958 17.3151 53.4863C17.3849 53.6768 17.4199 53.8832 17.4199 54.1055C17.4199 54.5882 17.2643 54.9978 16.9531 55.3344C16.6482 55.671 16.2323 55.8901 15.7051 55.9917V57.0967H14.5525V56.0203C14.0254 55.9695 13.5872 55.8456 13.2379 55.6488V54.1722C13.8158 54.5914 14.4318 54.8009 15.0859 54.8009C15.3082 54.8009 15.4924 54.7438 15.6385 54.6295C15.7845 54.5088 15.8576 54.3532 15.8576 54.1627C15.8576 54.0992 15.848 54.0388 15.829 53.9817C15.8099 53.9245 15.775 53.8705 15.7242 53.8197C15.6734 53.7689 15.6226 53.7276 15.5718 53.6959C15.5273 53.6578 15.4575 53.6165 15.3622 53.5721C15.2733 53.5212 15.1971 53.48 15.1336 53.4482C15.0701 53.4165 14.9748 53.372 14.8478 53.3148C14.7271 53.2577 14.6287 53.2132 14.5525 53.1815C14.1397 52.991 13.8063 52.756 13.5522 52.4765C13.3045 52.1971 13.1807 51.8256 13.1807 51.362C13.1807 50.873 13.3426 50.4665 13.6665 50.1426C13.9904 49.8124 14.4413 49.6123 15.0193 49.5425V48.447H16.1815V49.5615C16.518 49.6123 16.8356 49.7044 17.1341 49.8378ZM17.9645 52.1812V50.7618L19.7173 49.7425H20.9176V55.9727H19.5363V51.2381L17.9645 52.1812ZM21.5405 57.1825L22.5026 54.6961H24.0363L22.7408 57.1825H21.5405ZM25.0599 51.3048V50.0093C25.5298 49.7743 26.003 49.6568 26.4793 49.6568C27.1525 49.6568 27.6859 49.8187 28.0797 50.1426C28.4734 50.4602 28.6703 50.8761 28.6703 51.3906C28.6703 52.0955 28.3496 52.5813 27.7081 52.8481C28.4321 53.0195 28.7941 53.4895 28.7941 54.2579C28.7941 54.7914 28.5909 55.2201 28.1845 55.544C27.7844 55.8615 27.2223 56.0203 26.4983 56.0203C25.8188 56.0203 25.2567 55.9123 24.8122 55.6964V54.3627C25.3202 54.6422 25.8442 54.7819 26.384 54.7819C26.6952 54.7819 26.9365 54.7152 27.108 54.5818C27.2858 54.4485 27.3747 54.2802 27.3747 54.0769C27.3747 53.6133 26.9461 53.3815 26.0887 53.3815H25.7553V52.2384H26.0887C26.4253 52.2384 26.7015 52.1812 26.9175 52.0669C27.1334 51.9526 27.2414 51.7811 27.2414 51.5525C27.2414 51.1143 26.9556 50.8952 26.384 50.8952C25.9458 50.8952 25.5044 51.0317 25.0599 51.3048ZM29.5838 52.829C29.5838 51.8383 29.7744 51.054 30.1554 50.476C30.5365 49.8981 31.1017 49.6092 31.8511 49.6092C32.6005 49.6092 33.1657 49.8981 33.5467 50.476C33.9341 51.054 34.1278 51.8383 34.1278 52.829C34.1278 53.807 33.9341 54.5882 33.5467 55.1725C33.1657 55.7567 32.6005 56.0489 31.8511 56.0489C31.1017 56.0489 30.5365 55.7599 30.1554 55.182C29.7744 54.5977 29.5838 53.8134 29.5838 52.829ZM31.8511 50.8476C31.2859 50.8476 31.0032 51.508 31.0032 52.829C31.0032 54.15 31.2859 54.8105 31.8511 54.8105C32.4226 54.8105 32.7084 54.15 32.7084 52.829C32.7084 51.508 32.4226 50.8476 31.8511 50.8476ZM34.9126 52.829C34.9126 51.8383 35.1031 51.054 35.4841 50.476C35.8652 49.8981 36.4304 49.6092 37.1798 49.6092C37.9292 49.6092 38.4944 49.8981 38.8755 50.476C39.2628 51.054 39.4565 51.8383 39.4565 52.829C39.4565 53.807 39.2628 54.5882 38.8755 55.1725C38.4944 55.7567 37.9292 56.0489 37.1798 56.0489C36.4304 56.0489 35.8652 55.7599 35.4841 55.182C35.1031 54.5977 34.9126 53.8134 34.9126 52.829ZM37.1798 50.8476C36.6146 50.8476 36.332 51.508 36.332 52.829C36.332 54.15 36.6146 54.8105 37.1798 54.8105C37.7514 54.8105 38.0371 54.15 38.0371 52.829C38.0371 51.508 37.7514 50.8476 37.1798 50.8476ZM39.8412 57.1825L40.8033 54.6961H42.337L41.0415 57.1825H39.8412ZM43.1605 52.829C43.1605 51.8383 43.3511 51.054 43.7321 50.476C44.1131 49.8981 44.6784 49.6092 45.4278 49.6092C46.1772 49.6092 46.7424 49.8981 47.1234 50.476C47.5108 51.054 47.7045 51.8383 47.7045 52.829C47.7045 53.807 47.5108 54.5882 47.1234 55.1725C46.7424 55.7567 46.1772 56.0489 45.4278 56.0489C44.6784 56.0489 44.1131 55.7599 43.7321 55.182C43.3511 54.5977 43.1605 53.8134 43.1605 52.829ZM45.4278 50.8476C44.8625 50.8476 44.5799 51.508 44.5799 52.829C44.5799 54.15 44.8625 54.8105 45.4278 54.8105C45.9993 54.8105 46.2851 54.15 46.2851 52.829C46.2851 51.508 45.9993 50.8476 45.4278 50.8476ZM48.4892 52.829C48.4892 51.8383 48.6798 51.054 49.0608 50.476C49.4419 49.8981 50.0071 49.6092 50.7565 49.6092C51.5059 49.6092 52.0711 49.8981 52.4521 50.476C52.8395 51.054 53.0332 51.8383 53.0332 52.829C53.0332 53.807 52.8395 54.5882 52.4521 55.1725C52.0711 55.7567 51.5059 56.0489 50.7565 56.0489C50.0071 56.0489 49.4419 55.7599 49.0608 55.182C48.6798 54.5977 48.4892 53.8134 48.4892 52.829ZM50.7565 50.8476C50.1913 50.8476 49.9086 51.508 49.9086 52.829C49.9086 54.15 50.1913 54.8105 50.7565 54.8105C51.328 54.8105 51.6138 54.15 51.6138 52.829C51.6138 51.508 51.328 50.8476 50.7565 50.8476ZM53.818 52.829C53.818 51.8383 54.0085 51.054 54.3895 50.476C54.7706 49.8981 55.3358 49.6092 56.0852 49.6092C56.8346 49.6092 57.3998 49.8981 57.7809 50.476C58.1683 51.054 58.362 51.8383 58.362 52.829C58.362 53.807 58.1683 54.5882 57.7809 55.1725C57.3998 55.7567 56.8346 56.0489 56.0852 56.0489C55.3358 56.0489 54.7706 55.7599 54.3895 55.182C54.0085 54.5977 53.818 53.8134 53.818 52.829ZM56.0852 50.8476C55.52 50.8476 55.2374 51.508 55.2374 52.829C55.2374 54.15 55.52 54.8105 56.0852 54.8105C56.6568 54.8105 56.9425 54.15 56.9425 52.829C56.9425 51.508 56.6568 50.8476 56.0852 50.8476Z" fill="#1AD079"/>
<path d="M14.1765 64.2395H15.0434C15.4657 64.2395 15.7963 64.1311 16.0353 63.9144C16.2742 63.6921 16.3937 63.4115 16.3937 63.0725C16.3937 62.6947 16.2715 62.3946 16.027 62.1723C15.7825 61.95 15.4351 61.8389 14.985 61.8389H14.1765V64.2395ZM13.5013 61.2638H14.9767C15.6269 61.2638 16.1381 61.4332 16.5104 61.7722C16.8883 62.1056 17.0772 62.5391 17.0772 63.0725C17.0772 63.5727 16.8911 63.9894 16.5187 64.3229C16.1464 64.6507 15.6546 64.8147 15.0434 64.8147H14.1765V66.8818H13.5013V61.2638ZM20.3878 64.9313H19.6543C19.2986 64.9313 19.0319 65.0008 18.8541 65.1397C18.6762 65.2787 18.5873 65.4537 18.5873 65.6649C18.5873 65.876 18.6568 66.0483 18.7957 66.1817C18.9346 66.3095 19.1375 66.3734 19.4042 66.3734C19.7043 66.3734 19.9432 66.29 20.121 66.1233C20.2989 65.951 20.3878 65.7343 20.3878 65.4731V64.9313ZM18.2039 63.5393V62.8808C18.5206 62.6863 18.9374 62.5891 19.4542 62.5891C20.5156 62.5891 21.0463 63.1281 21.0463 64.2062V66.8818H20.3961V66.3817C20.1794 66.7429 19.7848 66.9235 19.2125 66.9235C18.8179 66.9235 18.4984 66.8068 18.2539 66.5734C18.015 66.34 17.8955 66.0455 17.8955 65.6899C17.8955 65.2842 18.0483 64.9702 18.3539 64.748C18.6651 64.5201 19.0874 64.4062 19.6209 64.4062H20.3878V64.1895C20.3878 63.8561 20.3128 63.606 20.1627 63.4393C20.0127 63.267 19.7598 63.1809 19.4042 63.1809C18.9541 63.1809 18.554 63.3004 18.2039 63.5393ZM22.967 62.6558V63.3976C23.1893 62.8753 23.5727 62.6141 24.1173 62.6141C24.2173 62.6141 24.2951 62.6197 24.3507 62.6308V63.2809C24.234 63.242 24.1145 63.2226 23.9923 63.2226C23.6978 63.2226 23.4533 63.3587 23.2588 63.631C23.0643 63.9033 22.967 64.2173 22.967 64.5729V66.8818H22.3085L22.3169 62.6558H22.967ZM27.4133 64.9313H26.6798C26.3241 64.9313 26.0574 65.0008 25.8796 65.1397C25.7017 65.2787 25.6128 65.4537 25.6128 65.6649C25.6128 65.876 25.6823 66.0483 25.8212 66.1817C25.9601 66.3095 26.163 66.3734 26.4297 66.3734C26.7298 66.3734 26.9687 66.29 27.1465 66.1233C27.3244 65.951 27.4133 65.7343 27.4133 65.4731V64.9313ZM25.2294 63.5393V62.8808C25.5461 62.6863 25.9629 62.5891 26.4797 62.5891C27.5411 62.5891 28.0718 63.1281 28.0718 64.2062V66.8818H27.4216V66.3817C27.2049 66.7429 26.8103 66.9235 26.238 66.9235C25.8434 66.9235 25.5239 66.8068 25.2794 66.5734C25.0405 66.34 24.921 66.0455 24.921 65.6899C24.921 65.2842 25.0738 64.9702 25.3794 64.748C25.6906 64.5201 26.1129 64.4062 26.6464 64.4062H27.4133V64.1895C27.4133 63.8561 27.3383 63.606 27.1882 63.4393C27.0382 63.267 26.7853 63.1809 26.4297 63.1809C25.9796 63.1809 25.5795 63.3004 25.2294 63.5393ZM29.9925 62.6558V63.3393C30.2259 62.8447 30.6232 62.5974 31.1845 62.5974C31.8346 62.5974 32.2459 62.8725 32.4181 63.4226C32.5404 63.1559 32.7099 62.9531 32.9266 62.8142C33.1489 62.6697 33.3962 62.5974 33.6684 62.5974C34.1074 62.5974 34.4381 62.7225 34.6604 62.9725C34.8826 63.2226 34.9938 63.5588 34.9938 63.9811V66.8818H34.3353V64.1478C34.3353 63.5088 34.0658 63.1892 33.5267 63.1892C33.26 63.1892 33.0211 63.3115 32.8099 63.556C32.5987 63.795 32.4931 64.1339 32.4931 64.5729V66.8818H31.8346V64.1478C31.8346 63.5088 31.5651 63.1892 31.0261 63.1892C30.7594 63.1892 30.5204 63.3115 30.3093 63.556C30.0981 63.795 29.9925 64.1339 29.9925 64.5729V66.8818H29.3424V62.6558H29.9925ZM37.9829 66.9569C37.3772 66.9569 36.8965 66.754 36.5409 66.3484C36.1908 65.9372 36.0157 65.4204 36.0157 64.798C36.0157 64.17 36.1963 63.6477 36.5575 63.2309C36.9243 62.8086 37.3994 62.5974 37.9829 62.5974C38.6219 62.5974 39.1137 62.803 39.4583 63.2143C39.8083 63.6255 39.9834 64.1478 39.9834 64.7813C39.9834 65.4092 39.8056 65.9288 39.4499 66.34C39.0943 66.7512 38.6053 66.9569 37.9829 66.9569ZM37.9829 63.1809C37.5828 63.1809 37.2688 63.3365 37.041 63.6477C36.8132 63.9589 36.6992 64.3395 36.6992 64.7896C36.6992 65.2286 36.8159 65.6037 37.0493 65.9149C37.2827 66.2206 37.5939 66.3734 37.9829 66.3734C38.4052 66.3734 38.7303 66.2233 38.9581 65.9233C39.186 65.6176 39.2999 65.2398 39.2999 64.7896C39.2999 64.3229 39.1915 63.9394 38.9748 63.6394C38.7581 63.3337 38.4274 63.1809 37.9829 63.1809ZM43.674 62.6558H44.3325V66.8818H43.674V66.1483C43.4518 66.6707 43.01 66.9318 42.3487 66.9318C41.9319 66.9318 41.6013 66.8096 41.3568 66.5651C41.1179 66.315 40.9984 65.9816 40.9984 65.5648V62.6558H41.6569V65.3981C41.6569 65.7038 41.7347 65.9372 41.8903 66.0983C42.0459 66.2595 42.257 66.34 42.5238 66.34C42.8738 66.34 43.1517 66.2178 43.3573 65.9733C43.5685 65.7288 43.674 65.3981 43.674 64.9814V62.6558ZM46.3021 62.6558V63.3893C46.5521 62.8614 46.9967 62.5974 47.6357 62.5974C48.047 62.5974 48.3748 62.7225 48.6193 62.9725C48.8638 63.2226 48.9861 63.556 48.9861 63.9728V66.8818H48.3276V64.1478C48.3276 63.8366 48.247 63.6005 48.0859 63.4393C47.9303 63.2726 47.7247 63.1892 47.469 63.1892C47.1523 63.1892 46.8772 63.3115 46.6438 63.556C46.416 63.8005 46.3021 64.1395 46.3021 64.5729V66.8818H45.6519V62.6558H46.3021ZM51.164 63.1892V65.6649C51.164 66.115 51.3752 66.34 51.7975 66.34C52.0142 66.34 52.2059 66.2761 52.3726 66.1483V66.7735C52.1892 66.8735 51.9836 66.9235 51.7558 66.9235C50.9223 66.9235 50.5055 66.4984 50.5055 65.6482V63.1892H49.8303V62.6558H50.5055V61.6055H51.164V62.6558H52.331V63.1892H51.164ZM52.7593 67.9071L53.5345 66.04H54.4097L53.3344 67.9071H52.7593ZM61.5885 61.4888V62.1807C61.344 62.0528 61.1245 61.9612 60.93 61.9056C60.7355 61.85 60.4799 61.8222 60.1631 61.8222C59.5574 61.8222 59.0517 62.0278 58.6461 62.4391C58.246 62.8503 58.0459 63.3865 58.0459 64.0478C58.0459 64.7369 58.246 65.287 58.6461 65.6982C59.0462 66.1094 59.5769 66.315 60.2381 66.315C60.7716 66.315 61.2273 66.1733 61.6051 65.8899V66.5984C61.2606 66.8318 60.7883 66.9485 60.1881 66.9485C59.3435 66.9485 58.6572 66.6901 58.1293 66.1733C57.6014 65.651 57.3374 64.9425 57.3374 64.0478C57.3374 63.2031 57.6041 62.5169 58.1376 61.9889C58.6766 61.4555 59.3518 61.1887 60.1631 61.1887C60.7466 61.1887 61.2217 61.2888 61.5885 61.4888ZM63.7624 64.8313H65.7546L65.6462 64.5062L64.771 61.8056C64.7043 62.0445 64.4042 62.9475 63.8708 64.5146L63.7624 64.8313ZM66.4381 66.8818L65.9463 65.4065H63.5707L63.0706 66.8818H62.3454L64.3042 61.2638H65.2378L67.1633 66.8818H66.4381Z" fill="#202B4F"/>
<rect x="74.189" y="6.10645" width="20.2432" height="10.717" rx="2.38155" fill="#E9F7F9"/>
<path d="M77.9665 13.3672V8.5517H78.6952L79.9027 10.5808L81.1244 12.667C81.1054 12.205 81.0958 11.512 81.0958 10.5879V8.5517H81.6745V13.3672H80.9458L79.7384 11.3524C79.4954 10.9475 79.2716 10.5712 79.0668 10.2235C78.8619 9.87107 78.7167 9.61863 78.6309 9.46621L78.5095 9.24473C78.5333 9.74009 78.5452 10.4379 78.5452 11.3381V13.3672H77.9665ZM84.9636 11.3238V11.1809C84.9636 10.8809 84.8826 10.6427 84.7207 10.4665C84.5587 10.2855 84.3349 10.195 84.0491 10.195C83.7776 10.195 83.5466 10.2926 83.3561 10.4879C83.1655 10.6832 83.0536 10.9618 83.0203 11.3238H84.9636ZM85.2994 12.6527V13.1814C85.0184 13.3291 84.6754 13.4029 84.2706 13.4029C83.7228 13.4029 83.2798 13.2362 82.9417 12.9028C82.6082 12.5646 82.4415 12.1193 82.4415 11.5667C82.4415 10.9904 82.5916 10.5355 82.8917 10.2021C83.1917 9.86869 83.5775 9.70198 84.0491 9.70198C84.5016 9.70198 84.8612 9.84726 85.1279 10.1378C85.3947 10.4284 85.528 10.8404 85.528 11.3738C85.528 11.5263 85.5161 11.6668 85.4923 11.7954H83.0203C83.0631 12.1526 83.1989 12.4265 83.4275 12.617C83.6561 12.8075 83.9562 12.9028 84.3277 12.9028C84.7326 12.9028 85.0565 12.8194 85.2994 12.6527ZM87.071 13.3672L85.9564 9.74485H86.5566L86.9067 10.9452C87.0305 11.3643 87.1329 11.7311 87.2139 12.0454C87.2996 12.355 87.3544 12.5622 87.3782 12.667L87.4139 12.817C87.4854 12.5122 87.6592 11.8859 87.9355 10.938L88.2784 9.74485H88.8786L89.2287 10.938L89.7645 12.8242C89.8312 12.5432 90.0146 11.9144 90.3147 10.938L90.679 9.74485H91.2578L90.1146 13.3672H89.4216L89.0786 12.1812L88.5785 10.3736C88.5071 10.6784 88.3451 11.281 88.0927 12.1812L87.764 13.3672H87.071Z" fill="#4FAEBC"/>
<path d="M0.791748 80.3682H102.792V95.8189C102.792 99.436 99.8595 102.368 96.2425 102.368H7.341C3.72395 102.368 0.791748 99.436 0.791748 95.8189V80.3682Z" fill="#1AD079"/>
<path d="M21.4262 88.5096V89.3812C21.069 89.1669 20.6879 89.0597 20.2831 89.0597C20.0592 89.0597 19.883 89.1097 19.7544 89.2097C19.6305 89.3098 19.5686 89.4384 19.5686 89.5955C19.5686 89.7527 19.6353 89.8837 19.7687 89.9885C19.9068 90.0885 20.1116 90.2005 20.3831 90.3243C20.5736 90.41 20.7284 90.4862 20.8475 90.5529C20.9666 90.6148 21.0952 90.703 21.2333 90.8173C21.3762 90.9316 21.481 91.0697 21.5477 91.2317C21.6191 91.3889 21.6548 91.5698 21.6548 91.7747C21.6548 92.2033 21.5 92.5463 21.1904 92.8035C20.8856 93.0559 20.4831 93.1822 19.983 93.1822C19.44 93.1822 18.9899 93.0798 18.6327 92.8749V91.9533C19.0423 92.2486 19.49 92.3962 19.9759 92.3962C20.195 92.3962 20.3712 92.3439 20.5046 92.2391C20.6379 92.1295 20.7046 91.9842 20.7046 91.8032C20.7046 91.7175 20.6879 91.6413 20.6546 91.5746C20.6213 91.5079 20.5522 91.4412 20.4474 91.3746C20.3474 91.3079 20.2688 91.2602 20.2116 91.2317C20.1592 91.2031 20.0473 91.1507 19.8758 91.0745C19.8282 91.0507 19.7925 91.034 19.7687 91.0245C19.5924 90.9435 19.4495 90.8721 19.34 90.8101C19.2304 90.7435 19.1114 90.6553 18.9828 90.5458C18.8541 90.4362 18.7565 90.3052 18.6898 90.1528C18.6279 90.0004 18.5969 89.8266 18.5969 89.6313C18.5969 89.2216 18.747 88.893 19.0471 88.6453C19.3519 88.3976 19.7544 88.2738 20.2545 88.2738C20.707 88.2738 21.0976 88.3524 21.4262 88.5096ZM24.6818 91.0173V90.9102C24.6723 90.6768 24.608 90.491 24.4889 90.3529C24.3746 90.21 24.2055 90.1385 23.9817 90.1385C23.7769 90.1385 23.5982 90.2147 23.4458 90.3672C23.2982 90.5148 23.2029 90.7315 23.16 91.0173H24.6818ZM25.2677 92.1819V92.9249C25.0153 93.0821 24.6509 93.1607 24.1746 93.1607C23.5982 93.1607 23.1434 92.9893 22.8099 92.6463C22.4765 92.3034 22.3098 91.8604 22.3098 91.3174C22.3098 90.7411 22.467 90.2886 22.7814 89.9599C23.0957 89.6313 23.4887 89.4669 23.9602 89.4669C24.4318 89.4669 24.8057 89.6098 25.0819 89.8956C25.3582 90.1814 25.4963 90.5982 25.4963 91.1459C25.4963 91.2793 25.4797 91.4508 25.4463 91.6603H23.1743C23.2362 91.9223 23.3648 92.1224 23.5601 92.2605C23.7602 92.3986 24.0079 92.4677 24.3032 92.4677C24.6842 92.4677 25.0057 92.3724 25.2677 92.1819ZM28.557 91.0173V90.9102C28.5475 90.6768 28.4832 90.491 28.3641 90.3529C28.2498 90.21 28.0807 90.1385 27.8569 90.1385C27.6521 90.1385 27.4734 90.2147 27.321 90.3672C27.1734 90.5148 27.0781 90.7315 27.0352 91.0173H28.557ZM29.1429 92.1819V92.9249C28.8905 93.0821 28.5261 93.1607 28.0498 93.1607C27.4734 93.1607 27.0186 92.9893 26.6851 92.6463C26.3517 92.3034 26.185 91.8604 26.185 91.3174C26.185 90.7411 26.3422 90.2886 26.6566 89.9599C26.9709 89.6313 27.3639 89.4669 27.8354 89.4669C28.307 89.4669 28.6809 89.6098 28.9571 89.8956C29.2334 90.1814 29.3715 90.5982 29.3715 91.1459C29.3715 91.2793 29.3549 91.4508 29.3215 91.6603H27.0495C27.1114 91.9223 27.24 92.1224 27.4353 92.2605C27.6354 92.3986 27.8831 92.4677 28.1784 92.4677C28.5594 92.4677 28.8809 92.3724 29.1429 92.1819ZM33.8765 92.4391C34.1337 92.4391 34.3433 92.3415 34.5052 92.1462C34.6672 91.9461 34.7481 91.6675 34.7481 91.3103C34.7481 90.953 34.6672 90.6768 34.5052 90.4815C34.3433 90.2814 34.1384 90.1814 33.8908 90.1814C33.6431 90.1814 33.4287 90.2743 33.2477 90.46C33.0667 90.6458 32.9763 90.9221 32.9763 91.2888C32.9763 91.6556 33.0644 91.939 33.2406 92.139C33.4168 92.3391 33.6288 92.4391 33.8765 92.4391ZM32.9763 89.5027V90.0599C33.2335 89.6551 33.6026 89.4527 34.0837 89.4527C34.5552 89.4527 34.9291 89.6217 35.2054 89.9599C35.4864 90.2981 35.6269 90.7435 35.6269 91.296C35.6269 91.839 35.4864 92.2891 35.2054 92.6463C34.9291 92.9988 34.5528 93.175 34.0765 93.175C33.5907 93.175 33.2239 92.9773 32.9763 92.582V94.4896H32.1189V89.5027H32.9763ZM37.3119 89.5027V90.1457C37.4787 89.698 37.7835 89.4741 38.2265 89.4741C38.3265 89.4741 38.4075 89.4812 38.4694 89.4955V90.3243C38.3598 90.2767 38.2384 90.2529 38.105 90.2529C37.8716 90.2529 37.6811 90.3481 37.5334 90.5386C37.3858 90.7292 37.3119 90.9673 37.3119 91.2531V93.125H36.4474L36.4546 89.5027H37.3119ZM40.6173 93.1822C40.0695 93.1822 39.6409 93.0107 39.3313 92.6677C39.0264 92.3248 38.874 91.8866 38.874 91.3531C38.874 90.8006 39.0336 90.3457 39.3527 89.9885C39.6718 89.6265 40.0934 89.4455 40.6173 89.4455C41.1746 89.4455 41.6056 89.6217 41.9105 89.9742C42.2153 90.3219 42.3677 90.7649 42.3677 91.3031C42.3677 91.8509 42.2129 92.301 41.9033 92.6535C41.5985 93.0059 41.1698 93.1822 40.6173 93.1822ZM40.6173 90.1457C40.3458 90.1457 40.1362 90.2576 39.9886 90.4815C39.8457 90.7053 39.7742 90.9864 39.7742 91.3245C39.7742 91.658 39.8481 91.9366 39.9957 92.1605C40.1434 92.3843 40.353 92.4963 40.6244 92.4963C40.9055 92.4963 41.1174 92.3867 41.2603 92.1676C41.4032 91.9485 41.4747 91.6699 41.4747 91.3317C41.4747 90.984 41.4056 90.7006 41.2675 90.4815C41.1293 90.2576 40.9126 90.1457 40.6173 90.1457ZM44.9579 92.4391C45.2151 92.4391 45.4246 92.3415 45.5866 92.1462C45.7485 91.9461 45.8295 91.6675 45.8295 91.3103C45.8295 90.953 45.7485 90.6768 45.5866 90.4815C45.4246 90.2814 45.2198 90.1814 44.9721 90.1814C44.7245 90.1814 44.5101 90.2743 44.3291 90.46C44.1481 90.6458 44.0576 90.9221 44.0576 91.2888C44.0576 91.6556 44.1457 91.939 44.322 92.139C44.4982 92.3391 44.7102 92.4391 44.9579 92.4391ZM44.0576 89.5027V90.0599C44.3148 89.6551 44.684 89.4527 45.165 89.4527C45.6366 89.4527 46.0105 89.6217 46.2868 89.9599C46.5678 90.2981 46.7083 90.7435 46.7083 91.296C46.7083 91.839 46.5678 92.2891 46.2868 92.6463C46.0105 92.9988 45.6342 93.175 45.1579 93.175C44.6721 93.175 44.3053 92.9773 44.0576 92.582V94.4896H43.2003V89.5027H44.0576ZM49.7151 91.0173V90.9102C49.7056 90.6768 49.6413 90.491 49.5222 90.3529C49.4079 90.21 49.2388 90.1385 49.0149 90.1385C48.8101 90.1385 48.6315 90.2147 48.4791 90.3672C48.3314 90.5148 48.2361 90.7315 48.1933 91.0173H49.7151ZM50.3009 92.1819V92.9249C50.0485 93.0821 49.6841 93.1607 49.2078 93.1607C48.6315 93.1607 48.1766 92.9893 47.8432 92.6463C47.5098 92.3034 47.3431 91.8604 47.3431 91.3174C47.3431 90.7411 47.5002 90.2886 47.8146 89.9599C48.129 89.6313 48.5219 89.4669 48.9935 89.4669C49.465 89.4669 49.8389 89.6098 50.1152 89.8956C50.3914 90.1814 50.5296 90.5982 50.5296 91.1459C50.5296 91.2793 50.5129 91.4508 50.4796 91.6603H48.2076C48.2695 91.9223 48.3981 92.1224 48.5934 92.2605C48.7934 92.3986 49.0411 92.4677 49.3364 92.4677C49.7175 92.4677 50.039 92.3724 50.3009 92.1819ZM52.2685 89.5027V90.1457C52.4352 89.698 52.7401 89.4741 53.183 89.4741C53.2831 89.4741 53.364 89.4812 53.426 89.4955V90.3243C53.3164 90.2767 53.1949 90.2529 53.0616 90.2529C52.8282 90.2529 52.6377 90.3481 52.49 90.5386C52.3423 90.7292 52.2685 90.9673 52.2685 91.2531V93.125H51.404L51.4112 89.5027H52.2685ZM55.0666 90.1457V91.989C55.0666 92.1414 55.1071 92.2581 55.1881 92.3391C55.269 92.4153 55.381 92.4534 55.5239 92.4534C55.7049 92.4534 55.8716 92.4034 56.024 92.3034V93.0393C55.8573 93.1202 55.6429 93.1607 55.381 93.1607C54.5998 93.1607 54.2092 92.7654 54.2092 91.9747V90.1457H53.6663V89.5027H54.2092V88.631H55.0666V89.5027H55.9668V90.1457H55.0666ZM57.8316 93.0536L56.4027 89.5027H57.3529L57.7744 90.6601C57.903 91.003 58.0054 91.2912 58.0817 91.5246C58.1626 91.758 58.2126 91.9056 58.2317 91.9676L58.2531 92.0676C58.3008 91.9009 58.4532 91.4317 58.7104 90.6601L59.0891 89.5027H59.9893L58.6818 93.025C58.3198 93.9919 57.7673 94.4753 57.0243 94.4753C56.8861 94.4753 56.767 94.4634 56.667 94.4396V93.7323C56.7432 93.7513 56.8242 93.7609 56.9099 93.7609C57.3434 93.7609 57.6506 93.5251 57.8316 93.0536ZM64.032 92.4391C64.2892 92.4391 64.5035 92.3415 64.675 92.1462C64.8465 91.9461 64.9322 91.658 64.9322 91.2817C64.9322 90.9149 64.8417 90.641 64.6607 90.46C64.4797 90.2743 64.2725 90.1814 64.0391 90.1814C63.7915 90.1814 63.5819 90.2838 63.4104 90.4886C63.2437 90.6887 63.1603 90.9697 63.1603 91.3317C63.1603 91.6603 63.2437 91.9271 63.4104 92.1319C63.5771 92.3367 63.7843 92.4391 64.032 92.4391ZM64.9322 88.0737H65.7896V93.125H64.9322V92.5606C64.6845 92.9702 64.3178 93.175 63.8319 93.175C63.3556 93.175 62.977 92.994 62.6959 92.632C62.4197 92.27 62.2816 91.8318 62.2816 91.3174C62.2816 90.7458 62.4268 90.2933 62.7174 89.9599C63.0127 89.6217 63.389 89.4527 63.8462 89.4527C64.3178 89.4527 64.6798 89.6551 64.9322 90.0599V88.0737ZM68.9893 91.0173V90.9102C68.9797 90.6768 68.9154 90.491 68.7964 90.3529C68.6821 90.21 68.513 90.1385 68.2891 90.1385C68.0843 90.1385 67.9057 90.2147 67.7533 90.3672C67.6056 90.5148 67.5103 90.7315 67.4675 91.0173H68.9893ZM69.5751 92.1819V92.9249C69.3227 93.0821 68.9583 93.1607 68.482 93.1607C67.9057 93.1607 67.4508 92.9893 67.1174 92.6463C66.784 92.3034 66.6173 91.8604 66.6173 91.3174C66.6173 90.7411 66.7744 90.2886 67.0888 89.9599C67.4032 89.6313 67.7961 89.4669 68.2677 89.4669C68.7392 89.4669 69.1131 89.6098 69.3894 89.8956C69.6656 90.1814 69.8038 90.5982 69.8038 91.1459C69.8038 91.2793 69.7871 91.4508 69.7538 91.6603H67.4818C67.5437 91.9223 67.6723 92.1224 67.8676 92.2605C68.0676 92.3986 68.3153 92.4677 68.6106 92.4677C68.9917 92.4677 69.3132 92.3724 69.5751 92.1819ZM71.7285 90.1457V91.989C71.7285 92.1414 71.769 92.2581 71.8499 92.3391C71.9309 92.4153 72.0428 92.4534 72.1857 92.4534C72.3667 92.4534 72.5334 92.4034 72.6859 92.3034V93.0393C72.5191 93.1202 72.3048 93.1607 72.0428 93.1607C71.2617 93.1607 70.8711 92.7654 70.8711 91.9747V90.1457H70.3281V89.5027H70.8711V88.631H71.7285V89.5027H72.6287V90.1457H71.7285ZM75.3365 91.5675H74.8936C74.6697 91.5675 74.4982 91.6151 74.3792 91.7104C74.2601 91.8009 74.2005 91.9176 74.2005 92.0604C74.2005 92.3653 74.3768 92.5177 74.7292 92.5177C74.9198 92.5177 75.0674 92.4629 75.1722 92.3534C75.2818 92.2391 75.3365 92.0914 75.3365 91.9104V91.5675ZM73.5789 90.4815V89.6884C73.8504 89.5217 74.241 89.4384 74.7507 89.4384C75.7319 89.4384 76.2225 89.8956 76.2225 90.8101V93.125H75.3723V92.6892C75.2055 92.9988 74.8912 93.1536 74.4292 93.1536C74.0862 93.1536 73.8123 93.0536 73.6075 92.8535C73.4075 92.6535 73.3075 92.401 73.3075 92.0962C73.3075 91.7532 73.4361 91.4841 73.6933 91.2888C73.9505 91.0935 74.322 90.9959 74.8078 90.9959H75.3365V90.7744C75.3365 90.5744 75.2841 90.4219 75.1794 90.3172C75.0746 90.2124 74.8959 90.16 74.6435 90.16C74.2577 90.16 73.9028 90.2671 73.5789 90.4815ZM77.2365 93.125V89.5027H78.0939V93.125H77.2365ZM77.1508 88.4167C77.1508 88.2738 77.2008 88.1523 77.3008 88.0523C77.4008 87.9523 77.5223 87.9023 77.6652 87.9023C77.8081 87.9023 77.9295 87.9523 78.0296 88.0523C78.1296 88.1523 78.1796 88.2738 78.1796 88.4167C78.1796 88.5643 78.1296 88.6882 78.0296 88.7882C77.9295 88.8882 77.8081 88.9382 77.6652 88.9382C77.5223 88.9382 77.4008 88.8882 77.3008 88.7882C77.2008 88.6882 77.1508 88.5643 77.1508 88.4167ZM79.186 93.125V88.0737H80.0434V93.125H79.186ZM83.2646 89.617V90.3743C83.0265 90.2314 82.7288 90.16 82.3715 90.16C82.2239 90.16 82.1072 90.1933 82.0214 90.26C81.9405 90.3219 81.9 90.4029 81.9 90.5029C81.9 90.541 81.9047 90.5767 81.9143 90.6101C81.9286 90.6434 81.95 90.6768 81.9786 90.7101C82.0119 90.7387 82.0429 90.7649 82.0714 90.7887C82.1 90.8125 82.1405 90.8387 82.1929 90.8673C82.2453 90.8911 82.2906 90.9125 82.3287 90.9316C82.3668 90.9506 82.4192 90.9745 82.4858 91.003C82.5525 91.0316 82.6049 91.0554 82.643 91.0745C82.8955 91.1983 83.0955 91.3365 83.2432 91.4889C83.3908 91.6413 83.4647 91.839 83.4647 92.0819C83.4647 92.4201 83.3432 92.6844 83.1003 92.8749C82.8574 93.0655 82.5335 93.1607 82.1286 93.1607C81.6809 93.1607 81.3189 93.0869 81.0426 92.9392V92.1533C81.3617 92.3677 81.7071 92.4748 82.0786 92.4748C82.2358 92.4748 82.3572 92.4463 82.443 92.3891C82.5335 92.3272 82.5787 92.2438 82.5787 92.139C82.5787 92.0771 82.5644 92.0223 82.5359 91.9747C82.5073 91.9223 82.4525 91.8723 82.3715 91.8247C82.2906 91.777 82.2263 91.7437 82.1786 91.7246C82.1358 91.7008 82.0476 91.6603 81.9143 91.6032C81.9 91.5984 81.8881 91.5937 81.8785 91.5889C81.8738 91.5841 81.8643 91.5794 81.85 91.5746C81.8357 91.5698 81.8238 91.5651 81.8142 91.5603C81.2855 91.3222 81.0212 90.9792 81.0212 90.5315C81.0212 90.1981 81.1474 89.9361 81.3999 89.7456C81.6523 89.5551 81.969 89.4598 82.3501 89.4598C82.7168 89.4598 83.0217 89.5122 83.2646 89.617Z" fill="white"/>
<path d="M90.0999 88.6855L91.8999 90.6855M91.8999 90.6855H87.8999M91.8999 90.6855L90.0999 92.6855" stroke="white" stroke-width="0.5"/>
</g>
<defs>
<filter id="filter0_f_2_15410" x="-14.2602" y="-17.098" width="127.561" height="134.243" filterUnits="userSpaceOnUse" color-interpolation-filters="sRGB">
<feFlood flood-opacity="0" result="BackgroundImageFix"/>
<feBlend mode="normal" in="SourceGraphic" in2="BackgroundImageFix" result="shape"/>
<feGaussianBlur stdDeviation="10.8" result="effect1_foregroundBlur_2_15410"/>
</filter>
<clipPath id="clip0_2_15410">
<rect width="102" height="102" fill="white" transform="translate(0.792969 0.367188)"/>
</clipPath>
</defs>
</svg>
