<svg width="48" height="48" viewBox="0 0 48 48" fill="none" xmlns="http://www.w3.org/2000/svg">
<path d="M22.9195 15.8869C22.9195 17.7092 21.9504 20.6559 20.0124 24.727L11.7901 40.9061C11.449 41.5772 10.76 42 10.0072 42H3.45258C2.75174 42 2.26831 41.2978 2.51844 40.6431L8.22811 25.6992C8.41316 25.2149 8.19335 24.6749 7.75315 24.4009C6.52686 23.6377 5.52116 22.5832 4.73606 21.2375C3.78604 19.609 3.31103 17.8255 3.31103 15.8869C3.31103 13.0953 4.26105 10.7496 6.16109 8.84976C8.06113 6.94992 10.3792 6 13.1152 6C15.8893 6 18.2074 6.94992 20.0694 8.84976C21.9694 10.7496 22.9195 13.0953 22.9195 15.8869Z" fill="#E6E7EB"/>
<path d="M44.5 15.8869C44.5 17.7092 43.531 20.6559 41.5929 24.727L33.3707 40.9061C33.0296 41.5772 32.3405 42 31.5877 42H25.0331C24.3323 42 23.8489 41.2978 24.099 40.6431L29.8087 25.6992C29.9937 25.2149 29.7739 24.6749 29.3337 24.4009C28.1074 23.6377 27.1017 22.5832 26.3166 21.2375C25.3666 19.609 24.8916 17.8255 24.8916 15.8869C24.8916 13.0953 25.8416 10.7496 27.7416 8.84976C29.6417 6.94992 31.9597 6 34.6958 6C37.4698 6 39.7879 6.94992 41.6499 8.84976C43.55 10.7496 44.5 13.0953 44.5 15.8869Z" fill="#E6E7EB"/>
</svg>
