<svg width="217" height="104" viewBox="0 0 217 104" fill="none" xmlns="http://www.w3.org/2000/svg">
<g clip-path="url(#clip0_905_21579)">
<g opacity="0.05" filter="url(#filter0_f_905_21579)">
<path fill-rule="evenodd" clip-rule="evenodd" d="M211 7C214.314 7 217 9.68629 217 13V98C217 101.314 214.314 104 211 104H17.5221C14.2084 104 11.5221 101.314 11.5221 98V63.6545C11.5221 63.3806 11.2921 63.1651 11.055 63.028L1.02774 57.2326C-0.304626 56.4625 -0.304489 54.5391 1.02802 53.7692L10.5227 48.2835C11.1412 47.9262 11.5221 47.2661 11.5221 46.5518V13C11.5221 9.68629 14.2084 7 17.5221 7H211Z" fill="black"/>
</g>
<path fill-rule="evenodd" clip-rule="evenodd" d="M211 0C214.314 0 217 2.68629 217 6V98C217 101.314 214.314 104 211 104H17.2863C13.9725 104 11.2863 101.314 11.2863 98V60.7468C11.2863 60.4282 11.0072 60.1802 10.7393 60.0077L0.91626 53.6818C-0.306732 52.8942 -0.30658 51.106 0.916519 50.3186L10.3688 44.2337C10.9407 43.8656 11.2863 43.2321 11.2863 42.552V6C11.2863 2.68629 13.9725 0 17.2862 0H211Z" fill="white"/>
<path d="M76.688 72.416C76.688 71.328 76.9333 70.352 77.424 69.488C77.9147 68.6133 78.5813 67.9307 79.424 67.44C80.2773 66.9493 81.2213 66.704 82.256 66.704C83.472 66.704 84.5333 66.9973 85.44 67.584C86.3467 68.1707 87.008 69.0027 87.424 70.08H85.68C85.3707 69.408 84.9227 68.8907 84.336 68.528C83.76 68.1653 83.0667 67.984 82.256 67.984C81.4773 67.984 80.7787 68.1653 80.16 68.528C79.5413 68.8907 79.056 69.408 78.704 70.08C78.352 70.7413 78.176 71.52 78.176 72.416C78.176 73.3013 78.352 74.08 78.704 74.752C79.056 75.4133 79.5413 75.9253 80.16 76.288C80.7787 76.6507 81.4773 76.832 82.256 76.832C83.0667 76.832 83.76 76.656 84.336 76.304C84.9227 75.9413 85.3707 75.424 85.68 74.752H87.424C87.008 75.8187 86.3467 76.6453 85.44 77.232C84.5333 77.808 83.472 78.096 82.256 78.096C81.2213 78.096 80.2773 77.856 79.424 77.376C78.5813 76.8853 77.9147 76.208 77.424 75.344C76.9333 74.48 76.688 73.504 76.688 72.416ZM93.4154 78.144C92.594 78.144 91.8474 77.9573 91.1754 77.584C90.514 77.2107 89.9914 76.6827 89.6074 76C89.234 75.3067 89.0474 74.5067 89.0474 73.6C89.0474 72.704 89.2394 71.9147 89.6234 71.232C90.018 70.5387 90.5514 70.0107 91.2234 69.648C91.8954 69.2747 92.6474 69.088 93.4794 69.088C94.3114 69.088 95.0634 69.2747 95.7354 69.648C96.4074 70.0107 96.9354 70.5333 97.3194 71.216C97.714 71.8987 97.9114 72.6933 97.9114 73.6C97.9114 74.5067 97.7087 75.3067 97.3034 76C96.9087 76.6827 96.37 77.2107 95.6874 77.584C95.0047 77.9573 94.2474 78.144 93.4154 78.144ZM93.4154 76.864C93.938 76.864 94.4287 76.7413 94.8874 76.496C95.346 76.2507 95.714 75.8827 95.9914 75.392C96.2794 74.9013 96.4234 74.304 96.4234 73.6C96.4234 72.896 96.2847 72.2987 96.0074 71.808C95.73 71.3173 95.3674 70.9547 94.9194 70.72C94.4714 70.4747 93.986 70.352 93.4634 70.352C92.93 70.352 92.4394 70.4747 91.9914 70.72C91.554 70.9547 91.202 71.3173 90.9354 71.808C90.6687 72.2987 90.5354 72.896 90.5354 73.6C90.5354 74.3147 90.6634 74.9173 90.9194 75.408C91.186 75.8987 91.538 76.2667 91.9754 76.512C92.4127 76.7467 92.8927 76.864 93.4154 76.864ZM104.098 69.072C105.164 69.072 106.028 69.3973 106.69 70.048C107.351 70.688 107.682 71.616 107.682 72.832V78H106.242V73.04C106.242 72.1653 106.023 71.4987 105.586 71.04C105.148 70.5707 104.551 70.336 103.794 70.336C103.026 70.336 102.412 70.576 101.954 71.056C101.506 71.536 101.282 72.2347 101.282 73.152V78H99.8258V69.232H101.282V70.48C101.57 70.032 101.959 69.6853 102.45 69.44C102.951 69.1947 103.5 69.072 104.098 69.072ZM113.164 78.144C112.492 78.144 111.889 78.032 111.356 77.808C110.823 77.5733 110.401 77.2533 110.092 76.848C109.783 76.432 109.612 75.9573 109.58 75.424H111.084C111.127 75.8613 111.329 76.2187 111.692 76.496C112.065 76.7733 112.551 76.912 113.148 76.912C113.703 76.912 114.14 76.7893 114.46 76.544C114.78 76.2987 114.94 75.9893 114.94 75.616C114.94 75.232 114.769 74.9493 114.428 74.768C114.087 74.576 113.559 74.3893 112.844 74.208C112.193 74.0373 111.66 73.8667 111.244 73.696C110.839 73.5147 110.487 73.2533 110.188 72.912C109.9 72.56 109.756 72.1013 109.756 71.536C109.756 71.088 109.889 70.6773 110.156 70.304C110.423 69.9307 110.801 69.6373 111.292 69.424C111.783 69.2 112.343 69.088 112.972 69.088C113.943 69.088 114.727 69.3333 115.324 69.824C115.921 70.3147 116.241 70.9867 116.284 71.84H114.828C114.796 71.3813 114.609 71.0133 114.268 70.736C113.937 70.4587 113.489 70.32 112.924 70.32C112.401 70.32 111.985 70.432 111.676 70.656C111.367 70.88 111.212 71.1733 111.212 71.536C111.212 71.824 111.303 72.064 111.484 72.256C111.676 72.4373 111.911 72.5867 112.188 72.704C112.476 72.8107 112.871 72.9333 113.372 73.072C114.001 73.2427 114.513 73.4133 114.908 73.584C115.303 73.744 115.639 73.9893 115.916 74.32C116.204 74.6507 116.353 75.0827 116.364 75.616C116.364 76.096 116.231 76.528 115.964 76.912C115.697 77.296 115.319 77.6 114.828 77.824C114.348 78.0373 113.793 78.144 113.164 78.144ZM120.196 70.432V75.6C120.196 76.0267 120.286 76.3307 120.468 76.512C120.649 76.6827 120.964 76.768 121.411 76.768H122.484V78H121.172C120.361 78 119.753 77.8133 119.348 77.44C118.942 77.0667 118.74 76.4533 118.74 75.6V70.432H117.604V69.232H118.74V67.024H120.196V69.232H122.484V70.432H120.196ZM125.704 70.656C125.96 70.1547 126.322 69.7653 126.792 69.488C127.272 69.2107 127.853 69.072 128.536 69.072V70.576H128.152C126.52 70.576 125.704 71.4613 125.704 73.232V78H124.248V69.232H125.704V70.656ZM129.672 73.584C129.672 72.688 129.854 71.904 130.216 71.232C130.579 70.5493 131.075 70.0213 131.704 69.648C132.344 69.2747 133.054 69.088 133.832 69.088C134.6 69.088 135.267 69.2533 135.832 69.584C136.398 69.9147 136.819 70.3307 137.096 70.832V69.232H138.568V78H137.096V76.368C136.808 76.88 136.376 77.3067 135.8 77.648C135.235 77.9787 134.574 78.144 133.816 78.144C133.038 78.144 132.334 77.952 131.704 77.568C131.075 77.184 130.579 76.6453 130.216 75.952C129.854 75.2587 129.672 74.4693 129.672 73.584ZM137.096 73.6C137.096 72.9387 136.963 72.3627 136.696 71.872C136.43 71.3813 136.067 71.008 135.608 70.752C135.16 70.4853 134.664 70.352 134.12 70.352C133.576 70.352 133.08 70.48 132.632 70.736C132.184 70.992 131.827 71.3653 131.56 71.856C131.294 72.3467 131.16 72.9227 131.16 73.584C131.16 74.256 131.294 74.8427 131.56 75.344C131.827 75.8347 132.184 76.2133 132.632 76.48C133.08 76.736 133.576 76.864 134.12 76.864C134.664 76.864 135.16 76.736 135.608 76.48C136.067 76.2133 136.43 75.8347 136.696 75.344C136.963 74.8427 137.096 74.2613 137.096 73.6ZM141.781 67.808C141.504 67.808 141.269 67.712 141.077 67.52C140.885 67.328 140.789 67.0933 140.789 66.816C140.789 66.5387 140.885 66.304 141.077 66.112C141.269 65.92 141.504 65.824 141.781 65.824C142.048 65.824 142.272 65.92 142.453 66.112C142.645 66.304 142.741 66.5387 142.741 66.816C142.741 67.0933 142.645 67.328 142.453 67.52C142.272 67.712 142.048 67.808 141.781 67.808ZM142.485 69.232V78H141.029V69.232H142.485ZM149.238 69.072C150.305 69.072 151.169 69.3973 151.83 70.048C152.492 70.688 152.822 71.616 152.822 72.832V78H151.382V73.04C151.382 72.1653 151.164 71.4987 150.726 71.04C150.289 70.5707 149.692 70.336 148.934 70.336C148.166 70.336 147.553 70.576 147.094 71.056C146.646 71.536 146.422 72.2347 146.422 73.152V78H144.966V69.232H146.422V70.48C146.71 70.032 147.1 69.6853 147.59 69.44C148.092 69.1947 148.641 69.072 149.238 69.072ZM163.201 73.28C163.201 73.5573 163.185 73.8507 163.153 74.16H156.145C156.198 75.024 156.491 75.7013 157.025 76.192C157.569 76.672 158.225 76.912 158.993 76.912C159.622 76.912 160.145 76.768 160.561 76.48C160.987 76.1813 161.286 75.7867 161.457 75.296H163.025C162.79 76.1387 162.321 76.8267 161.617 77.36C160.913 77.8827 160.038 78.144 158.993 78.144C158.161 78.144 157.414 77.9573 156.753 77.584C156.102 77.2107 155.59 76.6827 155.217 76C154.843 75.3067 154.657 74.5067 154.657 73.6C154.657 72.6933 154.838 71.8987 155.201 71.216C155.563 70.5333 156.07 70.0107 156.721 69.648C157.382 69.2747 158.139 69.088 158.993 69.088C159.825 69.088 160.561 69.2693 161.201 69.632C161.841 69.9947 162.331 70.496 162.673 71.136C163.025 71.7653 163.201 72.48 163.201 73.28ZM161.697 72.976C161.697 72.4213 161.574 71.9467 161.329 71.552C161.083 71.1467 160.747 70.8427 160.321 70.64C159.905 70.4267 159.441 70.32 158.929 70.32C158.193 70.32 157.563 70.5547 157.041 71.024C156.529 71.4933 156.235 72.144 156.161 72.976H161.697ZM164.579 73.584C164.579 72.688 164.76 71.904 165.123 71.232C165.485 70.5493 165.981 70.0213 166.611 69.648C167.251 69.2747 167.965 69.088 168.755 69.088C169.437 69.088 170.072 69.248 170.659 69.568C171.245 69.8773 171.693 70.288 172.003 70.8V66.16H173.475V78H172.003V76.352C171.715 76.8747 171.288 77.3067 170.723 77.648C170.157 77.9787 169.496 78.144 168.739 78.144C167.96 78.144 167.251 77.952 166.611 77.568C165.981 77.184 165.485 76.6453 165.123 75.952C164.76 75.2587 164.579 74.4693 164.579 73.584ZM172.003 73.6C172.003 72.9387 171.869 72.3627 171.603 71.872C171.336 71.3813 170.973 71.008 170.515 70.752C170.067 70.4853 169.571 70.352 169.027 70.352C168.483 70.352 167.987 70.48 167.539 70.736C167.091 70.992 166.733 71.3653 166.467 71.856C166.2 72.3467 166.067 72.9227 166.067 73.584C166.067 74.256 166.2 74.8427 166.467 75.344C166.733 75.8347 167.091 76.2133 167.539 76.48C167.987 76.736 168.483 76.864 169.027 76.864C169.571 76.864 170.067 76.736 170.515 76.48C170.973 76.2133 171.336 75.8347 171.603 75.344C171.869 74.8427 172.003 74.2613 172.003 73.6Z" fill="#83899D"/>
<path d="M55 76.801V67.199C54.9996 66.7781 54.8864 66.3646 54.6719 66.0002C54.4574 65.6357 54.149 65.3331 53.7778 65.1226L45.2222 60.3216C44.8506 60.1109 44.4291 60 44 60C43.5709 60 43.1494 60.1109 42.7778 60.3216L34.2222 65.1226C33.851 65.3331 33.5426 65.6357 33.3281 66.0002C33.1136 66.3646 33.0004 66.7781 33 67.199V76.801C33.0004 77.2219 33.1136 77.6354 33.3281 77.9998C33.5426 78.3643 33.851 78.6669 34.2222 78.8774L42.7778 83.6784C43.1494 83.8891 43.5709 84 44 84C44.4291 84 44.8506 83.8891 45.2222 83.6784L53.7778 78.8774C54.149 78.6669 54.4574 78.3643 54.6719 77.9998C54.8864 77.6354 54.9996 77.2219 55 76.801Z" fill="#C1EED8" stroke="#C1EED8" stroke-width="2" stroke-linecap="round" stroke-linejoin="round"/>
<path d="M78.656 26.848V33.904C78.656 34.896 78.896 35.632 79.376 36.112C79.8667 36.592 80.544 36.832 81.408 36.832C82.2613 36.832 82.928 36.592 83.408 36.112C83.8987 35.632 84.144 34.896 84.144 33.904V26.848H85.6V33.888C85.6 34.816 85.4133 35.6 85.04 36.24C84.6667 36.8693 84.16 37.3387 83.52 37.648C82.8907 37.9573 82.1813 38.112 81.392 38.112C80.6027 38.112 79.888 37.9573 79.248 37.648C78.6187 37.3387 78.1173 36.8693 77.744 36.24C77.3813 35.6 77.2 34.816 77.2 33.888V26.848H78.656ZM92.3009 29.072C93.3675 29.072 94.2315 29.3973 94.8929 30.048C95.5542 30.688 95.8849 31.616 95.8849 32.832V38H94.4449V33.04C94.4449 32.1653 94.2262 31.4987 93.7889 31.04C93.3515 30.5707 92.7542 30.336 91.9969 30.336C91.2289 30.336 90.6155 30.576 90.1569 31.056C89.7089 31.536 89.4849 32.2347 89.4849 33.152V38H88.0289V29.232H89.4849V30.48C89.7729 30.032 90.1622 29.6853 90.6529 29.44C91.1542 29.1947 91.7035 29.072 92.3009 29.072ZM97.7193 33.6C97.7193 32.6933 97.9006 31.904 98.2633 31.232C98.6259 30.5493 99.1273 30.0213 99.7673 29.648C100.418 29.2747 101.159 29.088 101.991 29.088C103.069 29.088 103.954 29.3493 104.647 29.872C105.351 30.3947 105.815 31.12 106.039 32.048H104.471C104.322 31.5147 104.029 31.0933 103.591 30.784C103.165 30.4747 102.631 30.32 101.991 30.32C101.159 30.32 100.487 30.608 99.9753 31.184C99.4633 31.7493 99.2073 32.5547 99.2073 33.6C99.2073 34.656 99.4633 35.472 99.9753 36.048C100.487 36.624 101.159 36.912 101.991 36.912C102.631 36.912 103.165 36.7627 103.591 36.464C104.018 36.1653 104.311 35.7387 104.471 35.184H106.039C105.805 36.08 105.335 36.8 104.631 37.344C103.927 37.8773 103.047 38.144 101.991 38.144C101.159 38.144 100.418 37.9573 99.7673 37.584C99.1273 37.2107 98.6259 36.6827 98.2633 36C97.9006 35.3173 97.7193 34.5173 97.7193 33.6ZM111.806 38.144C110.985 38.144 110.238 37.9573 109.566 37.584C108.905 37.2107 108.382 36.6827 107.998 36C107.625 35.3067 107.438 34.5067 107.438 33.6C107.438 32.704 107.63 31.9147 108.014 31.232C108.409 30.5387 108.942 30.0107 109.614 29.648C110.286 29.2747 111.038 29.088 111.87 29.088C112.702 29.088 113.454 29.2747 114.126 29.648C114.798 30.0107 115.326 30.5333 115.71 31.216C116.105 31.8987 116.302 32.6933 116.302 33.6C116.302 34.5067 116.099 35.3067 115.694 36C115.299 36.6827 114.761 37.2107 114.078 37.584C113.395 37.9573 112.638 38.144 111.806 38.144ZM111.806 36.864C112.329 36.864 112.819 36.7413 113.278 36.496C113.737 36.2507 114.105 35.8827 114.382 35.392C114.67 34.9013 114.814 34.304 114.814 33.6C114.814 32.896 114.675 32.2987 114.398 31.808C114.121 31.3173 113.758 30.9547 113.31 30.72C112.862 30.4747 112.377 30.352 111.854 30.352C111.321 30.352 110.83 30.4747 110.382 30.72C109.945 30.9547 109.593 31.3173 109.326 31.808C109.059 32.2987 108.926 32.896 108.926 33.6C108.926 34.3147 109.054 34.9173 109.31 35.408C109.577 35.8987 109.929 36.2667 110.366 36.512C110.803 36.7467 111.283 36.864 111.806 36.864ZM122.488 29.072C123.555 29.072 124.419 29.3973 125.08 30.048C125.742 30.688 126.072 31.616 126.072 32.832V38H124.632V33.04C124.632 32.1653 124.414 31.4987 123.976 31.04C123.539 30.5707 122.942 30.336 122.184 30.336C121.416 30.336 120.803 30.576 120.344 31.056C119.896 31.536 119.672 32.2347 119.672 33.152V38H118.216V29.232H119.672V30.48C119.96 30.032 120.35 29.6853 120.84 29.44C121.342 29.1947 121.891 29.072 122.488 29.072ZM131.555 38.144C130.883 38.144 130.28 38.032 129.747 37.808C129.213 37.5733 128.792 37.2533 128.483 36.848C128.173 36.432 128.003 35.9573 127.971 35.424H129.475C129.517 35.8613 129.72 36.2187 130.083 36.496C130.456 36.7733 130.941 36.912 131.539 36.912C132.093 36.912 132.531 36.7893 132.851 36.544C133.171 36.2987 133.331 35.9893 133.331 35.616C133.331 35.232 133.16 34.9493 132.819 34.768C132.477 34.576 131.949 34.3893 131.235 34.208C130.584 34.0373 130.051 33.8667 129.635 33.696C129.229 33.5147 128.877 33.2533 128.579 32.912C128.291 32.56 128.147 32.1013 128.147 31.536C128.147 31.088 128.28 30.6773 128.547 30.304C128.813 29.9307 129.192 29.6373 129.683 29.424C130.173 29.2 130.733 29.088 131.363 29.088C132.333 29.088 133.117 29.3333 133.715 29.824C134.312 30.3147 134.632 30.9867 134.675 31.84H133.219C133.187 31.3813 133 31.0133 132.659 30.736C132.328 30.4587 131.88 30.32 131.315 30.32C130.792 30.32 130.376 30.432 130.067 30.656C129.757 30.88 129.603 31.1733 129.603 31.536C129.603 31.824 129.693 32.064 129.875 32.256C130.067 32.4373 130.301 32.5867 130.579 32.704C130.867 32.8107 131.261 32.9333 131.763 33.072C132.392 33.2427 132.904 33.4133 133.299 33.584C133.693 33.744 134.029 33.9893 134.307 34.32C134.595 34.6507 134.744 35.0827 134.755 35.616C134.755 36.096 134.621 36.528 134.355 36.912C134.088 37.296 133.709 37.6 133.219 37.824C132.739 38.0373 132.184 38.144 131.555 38.144ZM138.586 30.432V35.6C138.586 36.0267 138.677 36.3307 138.858 36.512C139.039 36.6827 139.354 36.768 139.802 36.768H140.874V38H139.562C138.751 38 138.143 37.8133 137.738 37.44C137.333 37.0667 137.13 36.4533 137.13 35.6V30.432H135.994V29.232H137.13V27.024H138.586V29.232H140.874V30.432H138.586ZM144.094 30.656C144.35 30.1547 144.713 29.7653 145.182 29.488C145.662 29.2107 146.244 29.072 146.926 29.072V30.576H146.542C144.91 30.576 144.094 31.4613 144.094 33.232V38H142.638V29.232H144.094V30.656ZM148.063 33.584C148.063 32.688 148.244 31.904 148.607 31.232C148.97 30.5493 149.466 30.0213 150.095 29.648C150.735 29.2747 151.444 29.088 152.223 29.088C152.991 29.088 153.658 29.2533 154.223 29.584C154.788 29.9147 155.21 30.3307 155.487 30.832V29.232H156.959V38H155.487V36.368C155.199 36.88 154.767 37.3067 154.191 37.648C153.626 37.9787 152.964 38.144 152.207 38.144C151.428 38.144 150.724 37.952 150.095 37.568C149.466 37.184 148.97 36.6453 148.607 35.952C148.244 35.2587 148.063 34.4693 148.063 33.584ZM155.487 33.6C155.487 32.9387 155.354 32.3627 155.087 31.872C154.82 31.3813 154.458 31.008 153.999 30.752C153.551 30.4853 153.055 30.352 152.511 30.352C151.967 30.352 151.471 30.48 151.023 30.736C150.575 30.992 150.218 31.3653 149.951 31.856C149.684 32.3467 149.551 32.9227 149.551 33.584C149.551 34.256 149.684 34.8427 149.951 35.344C150.218 35.8347 150.575 36.2133 151.023 36.48C151.471 36.736 151.967 36.864 152.511 36.864C153.055 36.864 153.551 36.736 153.999 36.48C154.458 36.2133 154.82 35.8347 155.087 35.344C155.354 34.8427 155.487 34.2613 155.487 33.6ZM160.172 27.808C159.894 27.808 159.66 27.712 159.468 27.52C159.276 27.328 159.18 27.0933 159.18 26.816C159.18 26.5387 159.276 26.304 159.468 26.112C159.66 25.92 159.894 25.824 160.172 25.824C160.438 25.824 160.662 25.92 160.844 26.112C161.036 26.304 161.132 26.5387 161.132 26.816C161.132 27.0933 161.036 27.328 160.844 27.52C160.662 27.712 160.438 27.808 160.172 27.808ZM160.876 29.232V38H159.42V29.232H160.876ZM167.629 29.072C168.696 29.072 169.56 29.3973 170.221 30.048C170.882 30.688 171.213 31.616 171.213 32.832V38H169.773V33.04C169.773 32.1653 169.554 31.4987 169.117 31.04C168.68 30.5707 168.082 30.336 167.325 30.336C166.557 30.336 165.944 30.576 165.485 31.056C165.037 31.536 164.813 32.2347 164.813 33.152V38H163.357V29.232H164.813V30.48C165.101 30.032 165.49 29.6853 165.981 29.44C166.482 29.1947 167.032 29.072 167.629 29.072ZM181.591 33.28C181.591 33.5573 181.575 33.8507 181.543 34.16H174.535C174.589 35.024 174.882 35.7013 175.415 36.192C175.959 36.672 176.615 36.912 177.383 36.912C178.013 36.912 178.535 36.768 178.951 36.48C179.378 36.1813 179.677 35.7867 179.847 35.296H181.415C181.181 36.1387 180.711 36.8267 180.007 37.36C179.303 37.8827 178.429 38.144 177.383 38.144C176.551 38.144 175.805 37.9573 175.143 37.584C174.493 37.2107 173.981 36.6827 173.607 36C173.234 35.3067 173.047 34.5067 173.047 33.6C173.047 32.6933 173.229 31.8987 173.591 31.216C173.954 30.5333 174.461 30.0107 175.111 29.648C175.773 29.2747 176.53 29.088 177.383 29.088C178.215 29.088 178.951 29.2693 179.591 29.632C180.231 29.9947 180.722 30.496 181.063 31.136C181.415 31.7653 181.591 32.48 181.591 33.28ZM180.087 32.976C180.087 32.4213 179.965 31.9467 179.719 31.552C179.474 31.1467 179.138 30.8427 178.711 30.64C178.295 30.4267 177.831 30.32 177.319 30.32C176.583 30.32 175.954 30.5547 175.431 31.024C174.919 31.4933 174.626 32.144 174.551 32.976H180.087ZM182.969 33.584C182.969 32.688 183.151 31.904 183.513 31.232C183.876 30.5493 184.372 30.0213 185.001 29.648C185.641 29.2747 186.356 29.088 187.145 29.088C187.828 29.088 188.463 29.248 189.049 29.568C189.636 29.8773 190.084 30.288 190.393 30.8V26.16H191.865V38H190.393V36.352C190.105 36.8747 189.679 37.3067 189.113 37.648C188.548 37.9787 187.887 38.144 187.129 38.144C186.351 38.144 185.641 37.952 185.001 37.568C184.372 37.184 183.876 36.6453 183.513 35.952C183.151 35.2587 182.969 34.4693 182.969 33.584ZM190.393 33.6C190.393 32.9387 190.26 32.3627 189.993 31.872C189.727 31.3813 189.364 31.008 188.905 30.752C188.457 30.4853 187.961 30.352 187.417 30.352C186.873 30.352 186.377 30.48 185.929 30.736C185.481 30.992 185.124 31.3653 184.857 31.856C184.591 32.3467 184.457 32.9227 184.457 33.584C184.457 34.256 184.591 34.8427 184.857 35.344C185.124 35.8347 185.481 36.2133 185.929 36.48C186.377 36.736 186.873 36.864 187.417 36.864C187.961 36.864 188.457 36.736 188.905 36.48C189.364 36.2133 189.727 35.8347 189.993 35.344C190.26 34.8427 190.393 34.2613 190.393 33.6Z" fill="#83899D"/>
<path d="M55 36.801V27.199C54.9996 26.7781 54.8864 26.3646 54.6719 26.0002C54.4574 25.6357 54.149 25.3331 53.7778 25.1226L45.2222 20.3216C44.8506 20.1109 44.4291 20 44 20C43.5709 20 43.1494 20.1109 42.7778 20.3216L34.2222 25.1226C33.851 25.3331 33.5426 25.6357 33.3281 26.0002C33.1136 26.3646 33.0004 26.7781 33 27.199V36.801C33.0004 37.2219 33.1136 37.6354 33.3281 37.9998C33.5426 38.3643 33.851 38.6669 34.2222 38.8774L42.7778 43.6784C43.1494 43.8891 43.5709 44 44 44C44.4291 44 44.8506 43.8891 45.2222 43.6784L53.7778 38.8774C54.149 38.6669 54.4574 38.3643 54.6719 37.9998C54.8864 37.6354 54.9996 37.2219 55 36.801Z" fill="#1AD079" stroke="#1AD079" stroke-width="2" stroke-linecap="round" stroke-linejoin="round"/>
</g>
<defs>
<filter id="filter0_f_905_21579" x="-19.9727" y="-13" width="256.973" height="137" filterUnits="userSpaceOnUse" color-interpolation-filters="sRGB">
<feFlood flood-opacity="0" result="BackgroundImageFix"/>
<feBlend mode="normal" in="SourceGraphic" in2="BackgroundImageFix" result="shape"/>
<feGaussianBlur stdDeviation="10" result="effect1_foregroundBlur_905_21579"/>
</filter>
<clipPath id="clip0_905_21579">
<rect width="217.001" height="104" fill="white"/>
</clipPath>
</defs>
</svg>
