<svg width="312" height="282" viewBox="0 0 312 282" fill="none" xmlns="http://www.w3.org/2000/svg">
<g clip-path="url(#clip0_905_20046)">
<path d="M0 10C0 4.47716 4.47715 0 10 0H302C307.523 0 312 4.47715 312 10V272C312 277.523 307.523 282 302 282H9.99999C4.47715 282 0 277.523 0 272V10Z" fill="#141F45"/>
<path d="M48.4489 209.642L47.6766 209.179L46.9143 208.713L46.1621 208.243L45.42 207.77L44.6883 207.293L43.9668 206.814L43.2559 206.33L42.5554 205.844L41.8654 205.354L41.1861 204.862L40.5176 204.366L39.8598 203.867L39.2129 203.365L38.5769 202.86L37.952 202.352L37.3381 201.842L36.7354 201.328L36.1438 200.812L35.5636 200.293L34.9947 199.772L34.4372 199.248L33.8912 198.721L33.3566 198.192L32.8337 197.66L32.3225 197.126L31.8229 196.59L31.3351 196.051L30.8591 195.511L30.3949 194.967L29.9428 194.422L29.5025 193.875L29.0744 193.326L28.6582 192.775L28.2543 192.221L27.8624 191.666L27.4828 191.11L27.1155 190.551L26.7604 189.991L26.4177 189.429L26.0874 188.865L25.7696 188.3L25.4642 187.734L25.1713 187.166L24.8909 186.597L24.6231 186.026L24.368 185.454L24.1255 184.881L23.8956 184.307L23.6785 183.732L23.4741 183.156L23.2824 182.579L23.1035 182L22.9375 181.422L22.7843 180.842L22.6439 180.261L22.5164 179.68L22.4019 179.098L22.3002 178.516L22.2115 177.933L22.1358 177.35L22.0729 176.766L22.0231 176.182L21.9863 175.598L21.9624 175.014L21.9516 174.429L21.9538 173.844L21.969 173.26L21.9973 172.675L22.0386 172.09L22.0929 171.506L22.1603 170.922L22.2407 170.338L22.3342 169.754L22.4407 169.171L22.5602 168.588L22.6928 168.005L22.8384 167.423L22.997 166.842L23.1685 166.262L23.3532 165.682L23.5508 165.103L23.7613 164.525L23.9848 163.947L24.2213 163.371L24.4707 162.796L24.733 162.222L25.0082 161.648L25.2963 161.077L25.5972 160.506L25.9109 159.937L26.2374 159.369L26.5767 158.802L26.9288 158.237L27.2936 157.674L27.671 157.112L28.0611 156.552L28.4639 155.993L28.8792 155.436L29.3071 154.881L29.7475 154.328L30.2004 153.777L30.6657 153.228L31.1435 152.681L31.6336 152.136L32.136 151.594L32.6507 151.053L33.1776 150.515L33.7168 149.979L34.268 149.445L34.8314 148.914L35.4068 148.386L35.9941 147.86L36.5935 147.336L37.2047 146.815L37.8277 146.297L38.4625 145.782L39.109 145.27L39.7672 144.76L40.4369 144.253L41.1182 143.75L41.811 143.249L42.5152 142.751L43.2307 142.257L43.9575 141.766L44.6955 141.278L45.4447 140.793L46.2049 140.311L46.9761 139.833L47.7583 139.359L48.5513 138.888L49.3552 138.42L50.1697 137.956L50.9949 137.496L51.8306 137.039L52.6768 136.586L53.5334 136.137L54.4003 135.692L55.2775 135.25L56.1648 134.812L57.0622 134.379L57.9696 133.949L58.8869 133.524L59.814 133.102L60.7509 132.685L61.6973 132.272L62.6534 131.863L63.6189 131.458L64.5937 131.058L65.5779 130.662L66.5712 130.271L67.5736 129.884L68.585 129.501L69.6053 129.123L70.6344 128.749L71.6721 128.38L72.7185 128.016L73.7734 127.656L74.8367 127.302L75.9083 126.951L76.988 126.606L78.0759 126.266L79.1717 125.93L80.2754 125.599L81.3869 125.274L82.5061 124.953L83.6328 124.637L84.7669 124.326L85.9084 124.021L87.0571 123.72L88.2129 123.425L89.3758 123.135L90.5455 122.85L91.722 122.57L92.9052 122.295L94.0949 122.026L95.291 121.762L96.4934 121.504L97.7021 121.251L98.9168 121.003L100.137 120.761L101.364 120.524L102.596 120.293L103.834 120.067L105.077 119.847L106.326 119.633L107.58 119.424L108.839 119.22L110.103 119.023L111.372 118.831L112.646 118.644L113.924 118.464L115.207 118.289L116.494 118.12L117.785 117.956L119.08 117.799L120.38 117.647L121.683 117.501L122.99 117.361L124.301 117.227L125.615 117.099L126.932 116.976L128.253 116.86L129.576 116.749L130.903 116.645L132.232 116.546L133.564 116.454L134.899 116.367L136.236 116.286L137.575 116.212L138.917 116.143L140.26 116.081L141.606 116.024L142.953 115.974L144.302 115.929L145.652 115.891L147.003 115.858L148.356 115.832L149.71 115.812L151.065 115.798L152.42 115.79L153.777 115.788L155.133 115.792L156.491 115.803L157.848 115.819L159.206 115.842L160.563 115.87L161.92 115.905L163.278 115.946L164.634 115.993L165.99 116.046L167.346 116.105L168.7 116.171L170.054 116.242L171.407 116.32L172.758 116.403L174.108 116.493L175.456 116.589L176.803 116.69L178.148 116.798L179.491 116.912L180.832 117.032L182.171 117.158L183.508 117.29L184.842 117.428L186.173 117.572L187.502 117.722L188.828 117.879L190.151 118.041L191.47 118.209L192.787 118.383L194.1 118.562L195.409 118.748L196.715 118.94L198.017 119.137L199.315 119.341L200.61 119.55L201.899 119.765L203.185 119.986L204.466 120.213L205.742 120.446L207.014 120.684L208.281 120.928L209.543 121.178L210.8 121.433L212.051 121.694L213.298 121.961L214.538 122.233L215.773 122.511L217.003 122.795L218.226 123.084L219.444 123.378L220.655 123.679L221.86 123.984L223.059 124.295L224.251 124.612L225.437 124.933L226.616 125.26L227.788 125.593L228.953 125.931L230.11 126.274L231.261 126.622L232.404 126.975L233.54 127.334L234.669 127.698L235.789 128.067L236.902 128.44L238.007 128.819L239.104 129.203L240.192 129.592L241.273 129.986L242.345 130.385L243.408 130.788L244.463 131.196L245.509 131.61L246.546 132.027L247.575 132.45L248.594 132.877L249.604 133.309L250.605 133.745L251.597 134.186L252.579 134.631L253.551 135.081L254.514 135.535L255.467 135.994L256.41 136.457L257.344 136.924L258.267 137.395L259.18 137.871L260.082 138.351L260.975 138.834L261.857 139.322L262.728 139.814L263.589 140.31L264.439 140.809L265.278 141.313L266.106 141.82L266.923 142.331L267.729 142.846L268.524 143.364L269.308 143.886L270.08 144.412L270.841 144.941L271.59 145.474L272.328 146.01L273.054 146.549L273.768 147.091L274.471 147.637L275.162 148.186L275.84 148.738L276.507 149.294L277.161 149.852L277.803 150.413L278.433 150.977L279.051 151.544L279.656 152.114L280.249 152.687L280.829 153.262L281.396 153.84L281.951 154.42L282.493 155.003L283.023 155.589L283.539 156.177L284.043 156.767L284.533 157.36L285.011 157.954L285.476 158.551L285.927 159.151L286.365 159.752L286.79 160.355L287.202 160.96L287.6 161.567L287.985 162.176L288.356 162.786L288.715 163.399L289.059 164.013L289.39 164.628L289.707 165.245L290.011 165.864L290.301 166.484L290.578 167.105L290.84 167.727L291.089 168.351L291.324 168.976L291.545 169.602L291.753 170.229L291.946 170.857L292.126 171.486L292.291 172.116L292.443 172.746L292.581 173.377L292.704 174.009L292.814 174.642L292.909 175.275L292.991 175.908L293.058 176.542L293.112 177.176L293.151 177.811L293.176 178.445L293.187 179.08L293.184 179.715L293.166 180.35L293.135 180.985L293.089 181.619L293.029 182.254L292.955 182.888L292.867 183.522L292.765 184.156L292.649 184.789L292.518 185.422L292.373 186.054L292.214 186.686L292.041 187.317L291.854 187.947L291.653 188.576L291.438 189.205L291.209 189.832L290.965 190.459L290.708 191.084L290.436 191.709L290.151 192.332L289.851 192.954L289.538 193.574L289.211 194.194L288.869 194.812L288.514 195.428L288.145 196.043L287.763 196.656L287.366 197.267L286.956 197.877L286.532 198.484L286.094 199.09L285.642 199.694L285.177 200.296L284.699 200.896L284.207 201.494L283.701 202.09L283.182 202.683L282.65 203.274L282.104 203.863L281.545 204.449L280.972 205.033L280.387 205.614L279.788 206.193L279.176 206.769L278.551 207.342L277.913 207.913L277.263 208.481L276.599 209.045L275.923 209.607L275.233 210.166L274.531 210.722L273.817 211.274L273.09 211.824L272.35 212.37L271.598 212.913L270.834 213.452L270.057 213.988L269.268 214.521L268.468 215.05L267.654 215.575L266.829 216.097L265.992 216.615L265.144 217.13L264.283 217.641L263.411 218.147L262.527 218.65L261.632 219.149L260.725 219.644L259.807 220.135L258.878 220.622L257.937 221.105L256.986 221.583L256.023 222.057L255.05 222.527L254.066 222.993L253.071 223.454L252.065 223.91L251.049 224.363L250.022 224.81L248.986 225.253L247.938 225.692L246.881 226.125L245.814 226.554L244.737 226.978L243.65 227.398L242.553 227.812L241.447 228.222L240.331 228.626L239.206 229.026L238.071 229.421L236.928 229.81L235.775 230.194L234.613 230.574L233.443 230.948L232.263 231.316L231.076 231.68L229.879 232.038L228.674 232.391L227.461 232.738L226.24 233.08L225.011 233.416L223.774 233.747L222.529 234.073L221.276 234.392L220.016 234.706L218.748 235.015L217.473 235.318L216.191 235.615L214.902 235.906L213.606 236.192L212.303 236.472L210.993 236.745L209.677 237.013L208.354 237.276L207.025 237.532L205.69 237.782L204.349 238.026L203.002 238.264L201.65 238.496L200.291 238.723L198.927 238.942L197.558 239.156L196.184 239.364L194.804 239.566L193.419 239.761L192.03 239.95L190.636 240.133L189.237 240.309L187.834 240.48L186.427 240.644L185.015 240.801L183.6 240.953L182.181 241.098L180.758 241.236L179.331 241.369L177.901 241.494L176.468 241.614L175.031 241.727L173.592 241.833L172.149 241.933L170.704 242.027L169.257 242.114L167.807 242.194L166.354 242.268L164.9 242.336L163.443 242.397L161.985 242.451L160.525 242.499L159.063 242.54L157.6 242.575L156.136 242.603L154.67 242.625L153.204 242.64L151.736 242.648L150.269 242.65L148.8 242.645L147.331 242.633L145.862 242.615L144.393 242.591L142.923 242.559L141.454 242.521L139.986 242.477L138.518 242.426L137.05 242.368L135.583 242.304L134.117 242.233L132.653 242.155L131.189 242.071L129.727 241.981L128.266 241.883L126.807 241.779L125.35 241.669L123.895 241.552L122.442 241.429L120.991 241.298L119.543 241.162L118.097 241.019L116.654 240.869L115.214 240.713L113.776 240.55L112.342 240.381L110.911 240.206L109.484 240.024L108.06 239.835L106.639 239.641L105.223 239.439L103.811 239.232L102.402 239.018L100.999 238.797L99.599 238.571L98.2041 238.338L96.8139 238.099L95.4285 237.853L94.0481 237.602L92.6729 237.344L91.303 237.079L89.9384 236.809L88.5794 236.533L87.2262 236.25L85.8787 235.961L84.5373 235.667L83.2019 235.366L81.8728 235.059L80.5501 234.746L79.2338 234.428L77.9243 234.103L76.6215 233.772L75.3257 233.436L74.0369 233.093L72.7553 232.745L71.481 232.391L70.2142 232.032L68.9549 231.666L67.7034 231.295L66.4597 230.919L65.2239 230.536L63.9963 230.149L62.7769 229.755L61.5658 229.356L60.3632 228.952L59.1692 228.542L57.984 228.127" stroke="url(#paint0_radial_905_20046)" stroke-width="0.8"/>
<path d="M51.3473 161.448L51.0492 161.909L50.9938 161.998C49.6626 163.665 47 168.598 47 174.998V279.998H51.0492H262.256H269V176.498C269 171.698 264.504 164.165 262.256 161.998L262.007 161.678L261.617 161.192L261.216 160.707L260.804 160.225L260.382 159.744L259.949 159.266L259.506 158.789L259.053 158.315L258.589 157.842L258.114 157.372L257.63 156.904L257.135 156.438L256.63 155.975L256.116 155.514L255.591 155.055L255.056 154.598L254.511 154.145L253.956 153.693L253.392 153.245L252.817 152.798L252.234 152.355L251.64 151.914L251.037 151.476L250.424 151.041L249.802 150.608L249.171 150.179L248.531 149.752L247.881 149.328L247.222 148.907L246.554 148.49L245.877 148.075L245.191 147.663L244.496 147.255L243.793 146.85L243.081 146.448L242.36 146.049L241.63 145.654L240.892 145.262L240.146 144.873L239.392 144.487L238.629 144.106L237.858 143.727L237.079 143.352L236.292 142.981L235.497 142.614L234.694 142.25L233.883 141.889L233.065 141.532L232.24 141.18L231.406 140.83L230.566 140.485L229.718 140.143L228.863 139.806L228.001 139.472L227.131 139.142L226.255 138.816L225.372 138.494L224.482 138.177L223.586 137.863L222.682 137.553L221.773 137.247L220.857 136.946L219.935 136.649L219.006 136.355L218.072 136.067L217.131 135.782L216.185 135.501L215.232 135.225L214.274 134.954L213.311 134.686L212.342 134.423L211.367 134.165L210.387 133.91L209.402 133.661L208.412 133.415L207.417 133.174L206.417 132.938L205.412 132.706L204.402 132.479L203.388 132.257L202.37 132.039L201.346 131.825L200.319 131.616L199.288 131.412L198.252 131.213L197.213 131.018L196.169 130.828L195.122 130.643L194.071 130.462L193.017 130.286L191.959 130.115L190.898 129.949L189.834 129.787L188.766 129.63L187.696 129.479L186.622 129.332L185.546 129.189L184.468 129.052L183.386 128.92L182.303 128.792L181.216 128.669L180.128 128.552L179.038 128.439L177.945 128.331L176.851 128.228L175.755 128.13L174.657 128.037L173.557 127.948L172.457 127.865L171.354 127.787L170.251 127.714L169.146 127.645L168.041 127.582L166.934 127.524L165.827 127.47L164.719 127.422L163.61 127.378L162.501 127.34L161.392 127.307L160.283 127.278L159.173 127.255L158.063 127.236L156.954 127.223L155.844 127.214L154.735 127.211L153.627 127.212L152.519 127.219L151.411 127.23L150.305 127.247L149.199 127.268L148.094 127.295L146.99 127.326L145.888 127.362L144.787 127.404L143.687 127.45L142.589 127.501L141.492 127.557L140.398 127.618L139.305 127.684L138.214 127.755L137.125 127.831L136.038 127.911L134.954 127.997L133.872 128.087L132.792 128.182L131.716 128.282L130.641 128.387L129.57 128.497L128.502 128.611L127.437 128.73L126.374 128.854L125.316 128.983L124.26 129.117L123.208 129.255L122.159 129.398L121.115 129.546L120.074 129.698L119.036 129.855L118.003 130.016L116.974 130.183L115.949 130.353L114.928 130.529L113.912 130.709L112.9 130.893L111.893 131.082L110.89 131.276L109.893 131.474L108.9 131.676L107.912 131.883L106.929 132.094L105.951 132.31L104.979 132.53L104.012 132.754L103.05 132.983L102.094 133.216L101.143 133.453L100.198 133.695L99.2594 133.94L98.3264 134.19L97.3993 134.444L96.4784 134.702L95.5636 134.964L94.655 135.231L93.7528 135.501L92.8571 135.775L91.9679 136.054L91.0853 136.336L90.2094 136.622L89.3402 136.912L88.478 137.206L87.6226 137.504L86.7744 137.805L85.9332 138.111L85.0992 138.42L84.2725 138.733L83.4531 139.049L82.6411 139.369L81.8367 139.693L81.0398 140.02L80.2507 140.351L79.4692 140.685L78.6955 141.023L77.9298 141.364L77.1719 141.708L76.4221 142.056L75.6804 142.407L74.9469 142.762L74.2216 143.119L73.5046 143.48L72.7959 143.844L72.0957 144.211L71.404 144.582L70.7209 144.955L70.0464 145.331L69.3806 145.71L68.7236 146.093L68.0753 146.478L67.436 146.866L66.8055 147.256L66.1841 147.65L65.5718 148.046L64.9685 148.445L64.3744 148.847L63.7895 149.251L63.214 149.657L62.6477 150.067L62.0908 150.478L61.5433 150.893L61.0053 151.309L60.4769 151.728L59.958 152.149L59.4487 152.573L58.9491 152.998L58.4592 153.426L57.9791 153.856L57.5088 154.288L57.0483 154.723L56.5977 155.159L56.157 155.597L55.7263 156.037L55.3056 156.479L54.8949 156.922L54.4943 157.368L54.1038 157.815L53.7234 158.264L53.3532 158.714L52.9932 159.166L52.6434 159.62L52.3039 160.075L51.9748 160.531L51.6559 160.989L51.3473 161.448Z" fill="url(#paint1_radial_905_20046)" fill-opacity="0.2"/>
<path d="M140.285 179.052L140.211 178.998L140.138 178.943L140.066 178.887L139.995 178.831L139.926 178.775L139.857 178.718L139.79 178.661L139.724 178.603L139.659 178.545L139.595 178.487L139.533 178.428L139.471 178.369L139.411 178.309L139.353 178.249L139.295 178.189L139.239 178.128L139.184 178.067L139.13 178.006L139.078 177.944L139.027 177.882L138.978 177.819L138.929 177.756L138.882 177.693L138.837 177.629L138.793 177.566L138.75 177.501L138.709 177.437L138.669 177.372L138.63 177.307L138.593 177.242L138.557 177.176L138.523 177.11L138.49 177.044L138.459 176.977L138.429 176.911L138.401 176.844L138.374 176.776L138.348 176.709L138.325 176.641L138.302 176.573L138.281 176.505L138.262 176.437L138.244 176.368L138.228 176.299L138.214 176.23L138.201 176.161L138.189 176.092L138.179 176.023L138.171 175.953L138.164 175.883L138.159 175.813L138.155 175.743L138.153 175.673L138.153 175.603L138.154 175.532L138.157 175.462L138.162 175.391L138.168 175.32L138.176 175.249L138.185 175.178L138.197 175.108L138.209 175.036L138.224 174.965L138.24 174.894L138.258 174.823L138.277 174.752L138.298 174.681L138.321 174.609L138.346 174.538L138.372 174.467L138.4 174.396L138.429 174.325L138.461 174.253L138.494 174.182L138.528 174.111L138.565 174.04L138.603 173.969L138.642 173.898L138.684 173.827L138.727 173.757L138.772 173.686L138.819 173.615L138.867 173.545L138.917 173.474L138.969 173.404L139.022 173.334L139.077 173.264L139.134 173.194L139.193 173.125L139.253 173.055L139.315 172.986L139.379 172.917L139.444 172.848L139.511 172.779L139.58 172.711L139.65 172.642L139.722 172.574L139.796 172.506L139.872 172.439L139.949 172.371L140.028 172.304L140.109 172.237L140.191 172.171L140.275 172.105L140.36 172.039L140.448 171.973L140.537 171.908L140.627 171.843L140.72 171.778L140.813 171.713L140.909 171.649L141.006 171.586L141.105 171.522L141.205 171.459L141.308 171.397L141.411 171.334L141.516 171.273L141.623 171.211L141.732 171.15L141.842 171.089L141.954 171.029L142.067 170.969L142.182 170.91L142.298 170.851L142.416 170.793L142.535 170.735L142.656 170.677L142.779 170.62L142.903 170.564L143.028 170.508L143.155 170.452L143.284 170.397L143.414 170.343L143.545 170.289L143.678 170.235L143.812 170.182L143.948 170.13L144.085 170.078L144.224 170.027L144.364 169.976L144.505 169.926L144.648 169.876L144.792 169.828L144.938 169.779L145.085 169.731L145.233 169.684L145.383 169.638L145.534 169.592L145.686 169.547L145.839 169.502L145.994 169.458L146.15 169.415L146.307 169.372L146.466 169.33L146.625 169.289L146.786 169.248L146.948 169.208L147.112 169.169L147.276 169.131L147.442 169.093L147.608 169.056L147.776 169.019L147.945 168.984L148.115 168.949L148.286 168.915L148.458 168.881L148.632 168.848L148.806 168.816L148.981 168.785L149.157 168.755L149.335 168.725L149.513 168.696L149.692 168.668L149.872 168.641L150.053 168.614L150.235 168.589L150.418 168.564L150.601 168.54L150.786 168.516L150.971 168.494L151.157 168.472L151.344 168.451L151.531 168.431L151.72 168.412L151.909 168.394L152.099 168.377L152.289 168.36L152.481 168.344L152.673 168.329L152.865 168.315L153.058 168.302L153.252 168.29L153.446 168.278L153.641 168.268L153.837 168.258L154.033 168.25L154.229 168.242L154.426 168.235L154.623 168.229L154.821 168.223L155.02 168.219L155.218 168.216L155.417 168.213L155.617 168.212L155.817 168.211L156.017 168.212L156.217 168.213L156.418 168.215L156.619 168.218L156.82 168.222L157.021 168.227L157.223 168.233L157.425 168.239L157.627 168.247L157.829 168.256L158.031 168.265L158.233 168.276L158.436 168.287L158.638 168.3L158.84 168.313L159.043 168.327L159.245 168.343L159.447 168.359L159.65 168.376L159.852 168.394L160.054 168.413L160.256 168.433L160.458 168.454L160.659 168.476L160.861 168.499L161.062 168.523L161.263 168.547L161.464 168.573L161.664 168.6L161.864 168.627L162.064 168.656L162.263 168.685L162.462 168.716L162.661 168.747L162.859 168.78L163.057 168.813L163.254 168.847L163.451 168.882L163.648 168.918L163.843 168.956L164.039 168.994L164.233 169.033L164.427 169.072L164.621 169.113L164.814 169.155L165.006 169.198L165.197 169.241L165.388 169.286L165.578 169.331L165.767 169.378L165.956 169.425L166.143 169.473L166.33 169.522L166.516 169.573L166.701 169.624L166.885 169.675L167.069 169.728L167.251 169.782L167.433 169.836L167.613 169.892L167.792 169.948L167.971 170.006L168.148 170.064L168.325 170.123L168.5 170.183L168.674 170.243L168.847 170.305L169.019 170.367L169.189 170.431L169.359 170.495L169.527 170.56L169.694 170.626L169.86 170.692L170.024 170.76L170.188 170.828L170.349 170.898L170.51 170.968L170.669 171.038L170.827 171.11L170.983 171.182L171.138 171.256L171.292 171.33L171.444 171.404L171.594 171.48L171.743 171.556L171.891 171.633L172.037 171.711L172.181 171.79L172.324 171.869L172.465 171.949L172.605 172.03L172.743 172.112L172.879 172.194L173.014 172.277L173.147 172.361L173.278 172.445L173.407 172.53L173.535 172.616L173.661 172.702L173.785 172.789L173.908 172.877L174.028 172.966L174.147 173.055L174.264 173.144L174.379 173.235L174.492 173.326L174.603 173.417L174.713 173.509L174.82 173.602L174.925 173.695L175.029 173.789L175.13 173.884L175.23 173.979L175.327 174.074L175.423 174.171L175.516 174.267L175.607 174.364L175.696 174.462L175.783 174.56L175.868 174.659L175.951 174.758L176.032 174.858L176.111 174.958L176.187 175.059L176.261 175.16L176.334 175.262L176.403 175.364L176.471 175.466L176.536 175.569L176.6 175.672L176.661 175.776L176.719 175.88L176.776 175.984L176.83 176.089L176.882 176.194L176.931 176.299L176.978 176.405L177.023 176.511L177.066 176.617L177.106 176.724L177.144 176.831L177.179 176.938L177.212 177.046L177.243 177.153L177.271 177.262L177.297 177.37L177.321 177.478L177.342 177.587L177.36 177.696L177.376 177.805L177.39 177.914L177.401 178.024L177.41 178.133L177.417 178.243L177.42 178.353L177.422 178.463L177.421 178.573L177.417 178.683L177.411 178.794L177.403 178.904L177.392 179.014L177.378 179.125L177.362 179.236L177.343 179.346L177.322 179.457L177.298 179.567L177.272 179.678L177.244 179.789L177.212 179.899L177.178 180.01L177.142 180.12L177.103 180.231L177.062 180.341L177.018 180.452L176.971 180.562L176.922 180.672L176.871 180.782L176.817 180.892L176.76 181.001L176.701 181.111L176.639 181.22L176.574 181.33L176.508 181.439L176.438 181.547L176.366 181.656L176.292 181.764L176.215 181.872L176.135 181.98L176.053 182.088L175.968 182.195L175.881 182.302L175.791 182.409L175.699 182.516L175.604 182.622L175.507 182.727L175.407 182.833L175.305 182.938L175.2 183.043L175.093 183.147L174.983 183.251L174.871 183.355L174.756 183.458L174.639 183.56L174.52 183.663L174.398 183.765L174.273 183.866L174.146 183.967L174.017 184.067L173.885 184.167L173.751 184.266L173.614 184.365L173.475 184.464L173.334 184.561L173.19 184.659L173.044 184.755L172.895 184.851L172.744 184.947L172.591 185.042L172.436 185.136L172.278 185.23L172.118 185.323L171.955 185.415L171.791 185.507L171.624 185.598L171.455 185.688L171.283 185.778L171.109 185.867L170.934 185.955L170.755 186.043L170.575 186.13L170.393 186.216L170.208 186.301L170.021 186.385L169.833 186.469L169.642 186.552L169.448 186.634L169.253 186.716L169.056 186.796L168.857 186.876L168.656 186.955L168.452 187.033L168.247 187.11L168.04 187.187L167.83 187.262L167.619 187.337L167.406 187.41L167.191 187.483L166.974 187.555L166.755 187.626L166.535 187.696L166.312 187.765L166.088 187.833L165.862 187.9L165.634 187.966L165.404 188.031L165.173 188.096L164.94 188.159L164.705 188.221L164.469 188.282L164.231 188.342L163.991 188.401L163.749 188.459L163.507 188.516L163.262 188.572L163.016 188.627L162.769 188.681L162.52 188.734L162.269 188.786L162.017 188.836L161.764 188.886L161.509 188.934L161.253 188.981L160.995 189.027L160.736 189.072L160.476 189.116L160.215 189.159L159.952 189.2L159.688 189.241L159.423 189.28L159.157 189.318L158.889 189.355L158.621 189.39L158.351 189.425L158.08 189.458L157.808 189.49L157.535 189.521L157.261 189.551L156.987 189.579L156.711 189.606L156.434 189.632L156.156 189.657L155.878 189.681L155.599 189.703L155.318 189.724L155.037 189.744L154.756 189.762L154.473 189.779L154.19 189.795L153.906 189.81L153.622 189.823L153.337 189.835L153.051 189.846L152.765 189.856L152.478 189.864L152.191 189.871L151.903 189.877L151.615 189.881L151.327 189.884L151.038 189.886L150.748 189.886L150.459 189.885L150.169 189.883L149.878 189.88L149.588 189.875L149.297 189.868L149.007 189.861L148.716 189.852L148.424 189.842L148.133 189.83L147.842 189.818L147.551 189.803L147.259 189.788L146.968 189.771L146.677 189.753L146.386 189.734L146.095 189.713L145.804 189.69L145.513 189.667L145.223 189.642L144.933 189.616L144.643 189.588L144.353 189.56L144.064 189.529L143.775 189.498L143.487 189.465L143.198 189.431L142.911 189.395L142.624 189.358L142.337 189.32L142.051 189.28L141.766 189.24L141.481 189.197L141.197 189.154L140.913 189.109L140.63 189.063L140.348 189.015L140.067 188.967L139.786 188.916L139.507 188.865L139.228 188.812L138.95 188.758L138.673 188.703L138.397 188.646L138.122 188.588L137.848 188.529L137.575 188.468L137.303 188.407L137.032 188.343L136.762 188.279L136.493 188.213L136.226 188.146L135.96 188.078L135.695 188.009L135.431 187.938L135.169 187.866L134.908 187.793L134.648 187.719L134.39 187.643L134.134 187.566L133.878 187.488L133.624 187.409L133.372 187.328L133.121 187.246L132.872 187.163L132.625 187.079L132.379 186.994L132.134 186.907L131.892 186.82L131.651 186.731L131.412 186.641L131.175 186.55L130.939 186.457L130.705 186.364L130.474 186.269L130.244 186.174L130.016 186.077L129.789 185.979L129.565 185.88L129.343 185.78L129.123 185.679L128.905 185.576L128.689 185.473L128.475 185.369L128.263 185.263L128.054 185.157L127.846 185.049L127.641 184.941L127.438 184.832L127.237 184.721L127.039 184.61L126.843 184.497L126.649 184.384L126.457 184.269L126.268 184.154L126.081 184.038L125.897 183.92L125.715 183.802L125.536 183.683L125.359 183.563L125.184 183.442L125.013 183.321L124.843 183.198L124.677 183.075L124.513 182.95L124.351 182.825L124.192 182.699L124.036 182.573L123.883 182.445L123.732 182.317L123.584 182.188L123.439 182.058L123.296 181.927L123.156 181.796L123.019 181.664L122.885 181.531L122.754 181.398L122.626 181.263L122.5 181.129L122.378 180.993L122.258 180.857L122.141 180.72L122.028 180.583L121.917 180.445L121.809 180.306L121.704 180.167L121.602 180.027L121.504 179.887L121.408 179.746L121.315 179.604L121.226 179.463L121.139 179.32L121.056 179.177L120.976 179.034L120.899 178.89L120.825 178.746L120.754 178.601L120.687 178.456L120.622 178.31L120.561 178.164L120.503 178.018L120.449 177.871L120.397 177.724L120.349 177.577L120.304 177.429L120.262 177.281L120.224 177.133L120.189 176.984L120.157 176.835L120.128 176.686L120.103 176.537L120.081 176.388L120.063 176.238L120.048 176.088L120.036 175.938L120.027 175.788L120.022 175.637L120.021 175.487L120.022 175.336L120.027 175.186L120.036 175.035L120.047 174.884L120.063 174.733L120.081 174.582L120.103 174.432L120.128 174.281L120.157 174.13L120.189 173.979L120.225 173.828L120.264 173.677L120.307 173.527L120.353 173.376L120.402 173.226L120.455 173.075L120.511 172.925L120.57 172.775L120.633 172.625L120.7 172.476L120.77 172.326L120.843 172.177L120.92 172.028L121 171.879L121.083 171.731L121.17 171.582L121.26 171.434L121.354 171.287L121.451 171.14L121.552 170.993L121.656 170.846L121.763 170.7L121.874 170.554L121.988 170.409L122.105 170.264L122.226 170.119L122.35 169.975L122.478 169.832L122.609 169.688L122.743 169.546L122.88 169.404L123.021 169.262L123.165 169.121L123.313 168.981L123.463 168.841L123.617 168.702L123.775 168.563L123.935 168.425L124.099 168.287L124.266 168.151L124.436 168.015L124.61 167.879L124.786 167.744L124.966 167.61L125.149 167.477L125.335 167.345L125.524 167.213L125.717 167.082L125.912 166.952L126.111 166.822L126.313 166.694L126.518 166.566L126.725 166.439L126.936 166.313L127.15 166.188L127.367 166.064L127.587 165.941L127.81 165.818L128.036 165.697L128.264 165.576L128.496 165.457L128.73 165.338L128.968 165.22L129.208 165.104L129.451 164.988L129.697 164.874L129.946 164.76L130.197 164.648L130.452 164.536L130.708 164.426L130.968 164.317L131.23 164.209L131.495 164.102L131.763 163.996L132.033 163.891L132.306 163.788L132.582 163.685L132.86 163.584L133.14 163.484L133.423 163.385L133.709 163.288L133.996 163.191L134.287 163.096L134.579 163.002L134.875 162.91L135.172 162.819L135.472 162.729L135.774 162.64L136.078 162.553L136.384 162.467L136.693 162.382L137.004 162.299L137.317 162.217L137.632 162.136L137.949 162.057L138.269 161.979L138.59 161.902L138.913 161.827L139.239 161.754L139.566 161.682L139.895 161.611L140.226 161.541L140.559 161.474L140.894 161.407L141.23 161.342L141.568 161.279L141.908 161.217L142.25 161.156L142.593 161.098L142.938 161.04L143.285 160.984L143.633 160.93L143.982 160.877L144.334 160.826L144.686 160.776L145.04 160.728L145.395 160.682L145.752 160.637L146.11 160.593L146.469 160.551L146.83 160.511L147.192 160.473L147.555 160.436L147.919 160.4L148.284 160.367L148.651 160.335L149.018 160.304L149.386 160.275L149.756 160.248L150.126 160.223L150.497 160.199L150.869 160.177L151.242 160.156L151.615 160.137L151.99 160.12L152.365 160.105L152.74 160.091L153.117 160.079L153.494 160.069L153.871 160.06L154.249 160.053L154.628 160.048L155.007 160.044L155.386 160.042L155.766 160.042L156.146 160.044L156.526 160.047L156.907 160.052L157.288 160.059L157.669 160.067L158.05 160.078L158.431 160.09L158.813 160.103L159.194 160.119L159.575 160.136L159.957 160.155L160.338 160.175L160.719 160.198L161.1 160.222L161.48 160.247L161.861 160.275L162.241 160.304L162.621 160.335L163 160.368L163.379 160.403L163.758 160.439L164.136 160.477L164.513 160.516L164.89 160.558L165.266 160.601L165.642 160.646L166.017 160.692L166.391 160.741L166.765 160.791L167.138 160.843L167.509 160.896L167.88 160.951L168.251 161.008L168.62 161.067L168.988 161.127L169.355 161.189L169.721 161.253L170.086 161.318L170.449 161.385L170.812 161.454L171.173 161.524L171.533 161.596L171.892 161.67L172.249 161.746L172.605 161.823L172.96 161.901L173.313 161.982L173.664 162.064L174.014 162.147L174.363 162.233L174.71 162.32L175.055 162.408L175.398 162.498L175.74 162.59L176.08 162.683L176.418 162.778L176.754 162.875L177.089 162.973L177.421 163.072L177.752 163.173L178.081 163.276L178.407 163.38L178.732 163.486L179.054 163.593L179.374 163.702L179.692 163.813L180.008 163.924L180.322 164.038L180.633 164.153L180.942 164.269L181.249 164.387L181.553 164.506L181.855 164.626L182.155 164.748L182.452 164.872L182.746 164.997L183.038 165.123L183.327 165.251L183.614 165.38L183.898 165.51L184.179 165.642L184.458 165.775L184.734 165.909L185.007 166.045L185.277 166.182L185.544 166.32L185.809 166.46L186.071 166.601L186.329 166.743L186.585 166.886L186.838 167.031L187.087 167.176L187.334 167.324L187.578 167.472L187.818 167.621L188.055 167.772L188.289 167.923L188.52 168.076L188.748 168.23L188.972 168.385L189.193 168.541L189.411 168.698L189.626 168.857L189.837 169.016L190.044 169.176L190.249 169.338L190.449 169.5L190.647 169.664L190.841 169.828L191.031 169.993L191.218 170.16L191.401 170.327L191.581 170.495L191.757 170.664L191.929 170.834L192.098 171.005L192.263 171.176L192.424 171.349L192.581 171.522L192.735 171.696L192.885 171.871L193.031 172.046L193.174 172.223L193.312 172.4L193.447 172.577L193.578 172.756L193.705 172.935L193.828 173.115L193.947 173.295L194.062 173.476L194.174 173.658L194.281 173.84L194.384 174.023L194.484 174.207L194.579 174.391L194.67 174.575L194.757 174.76L194.84 174.946L194.919 175.132L194.994 175.318L195.065 175.505L195.131 175.692L195.194 175.88L195.252 176.068L195.306 176.256L195.357 176.445L195.402 176.634L195.444 176.823L195.481 177.013L195.515 177.202L195.544 177.392L195.568 177.583L195.589 177.773L195.605 177.964L195.617 178.155L195.625 178.346L195.629 178.537L195.628 178.728L195.623 178.92L195.614 179.111L195.6 179.302L195.582 179.494L195.56 179.685L195.533 179.877L195.502 180.068L195.467 180.26L195.428 180.451L195.384 180.642L195.336 180.834L195.284 181.025L195.227 181.215L195.166 181.406L195.101 181.597L195.031 181.787L194.957 181.977L194.879 182.167L194.796 182.357L194.71 182.546L194.618 182.735L194.523 182.924L194.423 183.112L194.319 183.3L194.211 183.488L194.098 183.675L193.981 183.861L193.86 184.048L193.735 184.234L193.605 184.419L193.471 184.604L193.333 184.788L193.191 184.972L193.044 185.155L192.893 185.338L192.738 185.52L192.579 185.702L192.416 185.883L192.248 186.063L192.076 186.242L191.9 186.421L191.72 186.599L191.536 186.777L191.348 186.953L191.156 187.129L190.959 187.304L190.759 187.479L190.554 187.652L190.346 187.825L190.133 187.996L189.916 188.167L189.696 188.337L189.471 188.506L189.243 188.674L189.01 188.842L188.774 189.008L188.534 189.173L188.29 189.337L188.042 189.5L187.79 189.662L187.534 189.824L187.275 189.984L187.012 190.142L186.745 190.3L186.474 190.457L186.2 190.612L185.922 190.767L185.64 190.92L185.355 191.072L185.066 191.222L184.773 191.372L184.477 191.52L184.177 191.667L183.874 191.812L183.567 191.957L183.257 192.1L182.944 192.241L182.627 192.382L182.306 192.521L181.983 192.658L181.656 192.794L181.326 192.929L180.992 193.063L180.655 193.194L180.315 193.325L179.972 193.454L179.626 193.581L179.277 193.707L178.924 193.832L178.569 193.954L178.21 194.076L177.849 194.196L177.484 194.314L177.117 194.43L176.747 194.545L176.374 194.659L175.998 194.77L175.619 194.88L175.238 194.989L174.853 195.096L174.467 195.201L174.077 195.304L173.685 195.406L173.291 195.506L172.894 195.604L172.494 195.7L172.092 195.795L171.688 195.888L171.281 195.979L170.872 196.068L170.46 196.156L170.046 196.241L169.63 196.325L169.212 196.407L168.792 196.487L168.37 196.566L167.945 196.642L167.519 196.717L167.09 196.789L166.66 196.86L166.228 196.929L165.794 196.996L165.358 197.061L164.92 197.124L164.481 197.185L164.04 197.244L163.597 197.301L163.153 197.356L162.707 197.41L162.259 197.461L161.81 197.51L161.36 197.557L160.908 197.602L160.455 197.646L160.001 197.687L159.546 197.726L159.089 197.763L158.631 197.798L158.172 197.831L157.712 197.862L157.251 197.891L156.788 197.917L156.325 197.942L155.861 197.965L155.397 197.985L154.931 198.004L154.465 198.02L153.998 198.034L153.53 198.047L153.062 198.057L152.593 198.065L152.124 198.07L151.654 198.074L151.184 198.076L150.713 198.075L150.242 198.073L149.771 198.068L149.299 198.061L148.828 198.052L148.356 198.041L147.884 198.027L147.412 198.012L146.94 197.994L146.469 197.975L145.997 197.953L145.525 197.929L145.054 197.903L144.583 197.874L144.112 197.844L143.641 197.811L143.171 197.777L142.702 197.74L142.233 197.701L141.764 197.66L141.296 197.617L140.828 197.571L140.362 197.524L139.896 197.474L139.431 197.423L138.966 197.369L138.503 197.313L138.04 197.255L137.578 197.195L137.118 197.132L136.658 197.068L136.2 197.001L135.743 196.933L135.287 196.862L134.832 196.789L134.378 196.714L133.926 196.637L133.475 196.558L133.026 196.477L132.578 196.394L132.132 196.309L131.688 196.222L131.245 196.133L130.803 196.041L130.364 195.948L129.926 195.853L129.49 195.755L129.056 195.656L128.624 195.554L128.193 195.451L127.765 195.346L127.339 195.238L126.915 195.129L126.493 195.018L126.073 194.905L125.656 194.789L125.241 194.672L124.828 194.553L124.417 194.433L124.009 194.31L123.603 194.185L123.2 194.058L122.8 193.93L122.402 193.8L122.006 193.668L121.614 193.534L121.224 193.398L120.837 193.26L120.452 193.121L120.071 192.98L119.692 192.837L119.316 192.692L118.944 192.545L118.574 192.397L118.207 192.247L117.844 192.095L117.483 191.942L117.126 191.787L116.772 191.63L116.421 191.472L116.074 191.312L115.73 191.15L115.389 190.987L115.052 190.822L114.718 190.655L114.387 190.487L114.06 190.318L113.737 190.147L113.417 189.974L113.101 189.8L112.789 189.624L112.48 189.447L112.175 189.268L111.874 189.088L111.577 188.907L111.284 188.724L110.994 188.54L110.708 188.354L110.427 188.167L110.149 187.979L109.875 187.789L109.606 187.598L109.34 187.406L109.078 187.212L108.821 187.017L108.568 186.821L108.319 186.624L108.074 186.426L107.834 186.226L107.598 186.025L107.366 185.823L107.139 185.62L106.916 185.416L106.697 185.211L106.483 185.004L106.273 184.797L106.068 184.589L105.867 184.379L105.671 184.169L105.479 183.958L105.292 183.745L105.11 183.532L104.932 183.318L104.759 183.103L104.591 182.887L104.427 182.671L104.268 182.453L104.114 182.235L103.964 182.016L103.82 181.796L103.68 181.575L103.545 181.354L103.415 181.132L103.289 180.909L103.169 180.686L103.053 180.462L102.943 180.238L102.837 180.013L102.737 179.787L102.641 179.561L102.55 179.334L102.464 179.107L102.384 178.879L102.308 178.651L102.237 178.423L102.172 178.194L102.111 177.964L102.056 177.735L102.006 177.505L101.961 177.274L101.921 177.044L101.886 176.813L101.856 176.582L101.831 176.35L101.812 176.119L101.797 175.887L101.788 175.655L101.784 175.423L101.785 175.191L101.792 174.959L101.803 174.727L101.82 174.494L101.842 174.262L101.869 174.03L101.901 173.798L101.939 173.566L101.981 173.334L102.029 173.102L102.083 172.87L102.141 172.638L102.205 172.407L102.273 172.175L102.347 171.944L102.427 171.714L102.511 171.483L102.601 171.253L102.696 171.023L102.796 170.793L102.901 170.564L103.011 170.335L103.127 170.107L103.248 169.879L103.374 169.652L103.505 169.425L103.641 169.198L103.783 168.972L103.929 168.747L104.081 168.522L104.238 168.298L104.4 168.074L104.567 167.851L104.739 167.629L104.916 167.408L105.098 167.187L105.286 166.967L105.478 166.747L105.675 166.529L105.878 166.311L106.085 166.094L106.297 165.878L106.515 165.663L106.737 165.449L106.964 165.236L107.196 165.023L107.433 164.812L107.675 164.602L107.922 164.392L108.173 164.184L108.43 163.977L108.691 163.77L108.957 163.565L109.228 163.361L109.503 163.159L109.783 162.957L110.068 162.757L110.357 162.557L110.651 162.359L110.95 162.163L111.253 161.967L111.561 161.773L111.874 161.58L112.191 161.389L112.512 161.199L112.838 161.01L113.168 160.823L113.503 160.637L113.842 160.452L114.185 160.27L114.533 160.088L114.885 159.908L115.241 159.73L115.601 159.553L115.966 159.377L116.335 159.204L116.707 159.031L117.084 158.861L117.465 158.692L117.85 158.525L118.239 158.359L118.632 158.195L119.029 158.033L119.43 157.873L119.834 157.714L120.243 157.557L120.655 157.402L121.071 157.249L121.49 157.097L121.913 156.948L122.34 156.8L122.77 156.654L123.204 156.51L123.642 156.368L124.082 156.228L124.527 156.09L124.974 155.953L125.425 155.819L125.879 155.687L126.337 155.557L126.797 155.428L127.261 155.302L127.728 155.178L128.198 155.056L128.671 154.936L129.147 154.818L129.626 154.702L130.108 154.588L130.592 154.477L131.08 154.367L131.57 154.26L132.063 154.155L132.559 154.052L133.057 153.951L133.557 153.853L134.061 153.756L134.566 153.662L135.075 153.57L135.585 153.481L136.098 153.394L136.613 153.309L137.13 153.226L137.65 153.146L138.171 153.068L138.695 152.992L139.221 152.918L139.748 152.847L140.278 152.779L140.809 152.712L141.343 152.648L141.878 152.587L142.414 152.528L142.953 152.471L143.493 152.417L144.034 152.365L144.577 152.315L145.122 152.268L145.667 152.223L146.215 152.181L146.763 152.141L147.313 152.104L147.864 152.069L148.416 152.037L148.969 152.007L149.523 151.98L150.078 151.955L150.634 151.932L151.191 151.912L151.748 151.895L152.306 151.88L152.865 151.868L153.425 151.858L153.985 151.85L154.546 151.846L155.107 151.843L155.668 151.844L156.23 151.846L156.792 151.852L157.355 151.859L157.917 151.87L158.48 151.883L159.043 151.898L159.605 151.916L160.168 151.937L160.731 151.96L161.293 151.985L161.855 152.014L162.417 152.044L162.979 152.078L163.54 152.113L164.1 152.152L164.661 152.193L165.22 152.236L165.779 152.282L166.337 152.33L166.895 152.381L167.452 152.435L168.008 152.491L168.563 152.55L169.117 152.611L169.67 152.674L170.222 152.741L170.772 152.809L171.322 152.88L171.87 152.954L172.417 153.03L172.963 153.109L173.507 153.19L174.05 153.274L174.591 153.36L175.131 153.448L175.669 153.539L176.205 153.633L176.739 153.728L177.272 153.827L177.803 153.928L178.332 154.031L178.859 154.136L179.383 154.244L179.906 154.355L180.427 154.468L180.945 154.583L181.461 154.7L181.975 154.82L182.487 154.943L182.996 155.067L183.502 155.194L184.006 155.323L184.508 155.455L185.007 155.589L185.503 155.725L185.996 155.864L186.487 156.004L186.975 156.147L187.459 156.292L187.941 156.44L188.42 156.59L188.896 156.741L189.369 156.896L189.838 157.052L190.305 157.21L190.768 157.371L191.228 157.533L191.684 157.698L192.137 157.865L192.587 158.034L193.033 158.205L193.476 158.378L193.915 158.554L194.35 158.731L194.782 158.91L195.209 159.091L195.634 159.274L196.054 159.46L196.47 159.647L196.883 159.836L197.291 160.027L197.696 160.22L198.096 160.414L198.492 160.611L198.884 160.81L199.272 161.01L199.656 161.212L200.035 161.416L200.41 161.621L200.781 161.829L201.147 162.038L201.509 162.249L201.867 162.461L202.219 162.676L202.568 162.892L202.911 163.109L203.25 163.328L203.585 163.549L203.914 163.771L204.239 163.995L204.559 164.22L204.874 164.447L205.184 164.676L205.49 164.905L205.79 165.137L206.086 165.369L206.376 165.603L206.661 165.839L206.942 166.076L207.217 166.314L207.487 166.553L207.752 166.794L208.011 167.036L208.266 167.279L208.515 167.524L208.758 167.769L208.997 168.016L209.23 168.264L209.458 168.513L209.68 168.764L209.897 169.015L210.108 169.267L210.314 169.52L210.514 169.775L210.709 170.03L210.898 170.286L211.081 170.544L211.259 170.802L211.431 171.061L211.598 171.32L211.759 171.581L211.914 171.843L212.063 172.105L212.207 172.368L212.344 172.631L212.476 172.896L212.603 173.161L212.723 173.427L212.837 173.693L212.946 173.96L213.049 174.227L213.146 174.495L213.236 174.764L213.321 175.033L213.4 175.302L213.473 175.572L213.54 175.842L213.601 176.113L213.657 176.384L213.706 176.655L213.749 176.927L213.785 177.199L213.816 177.471L213.841 177.744L213.86 178.016L213.873 178.289L213.879 178.562L213.88 178.835L213.874 179.108L213.863 179.381L213.845 179.654L213.821 179.927L213.791 180.2L213.755 180.473L213.713 180.746L213.665 181.019L213.61 181.292L213.55 181.564L213.483 181.836L213.41 182.108L213.331 182.38L213.246 182.652L213.155 182.923L213.058 183.194L212.955 183.464L212.845 183.735L212.73 184.004L212.608 184.274L212.481 184.542L212.347 184.811L212.207 185.079L212.061 185.346L211.909 185.612L211.752 185.878L211.588 186.144L211.418 186.409L211.242 186.673L211.06 186.936L210.872 187.198L210.678 187.46L210.478 187.721L210.272 187.981L210.06 188.241L209.843 188.499L209.619 188.757L209.39 189.013L209.155 189.269L208.914 189.523L208.667 189.777L208.414 190.029L208.155 190.281L207.891 190.531L207.621 190.781L207.345 191.029L207.064 191.276L206.777 191.521L206.484 191.766L206.186 192.009L205.882 192.251L205.573 192.492L205.258 192.731L204.937 192.969L204.611 193.206L204.279 193.441L203.942 193.674L203.6 193.907L203.252 194.138L202.899 194.367L202.541 194.595L202.177 194.821L201.808 195.046L201.434 195.269L201.055 195.49L200.67 195.71L200.281 195.928L199.886 196.144L199.486 196.359L199.081 196.572L198.672 196.783L198.257 196.992L197.837 197.2L197.413 197.406L196.984 197.61L196.549 197.811L196.111 198.012L195.667 198.21L195.219 198.406L194.766 198.6L194.309 198.792L193.847 198.983L193.38 199.171L192.909 199.357L192.434 199.541L191.954 199.723L191.47 199.903L190.982 200.081L190.489 200.256L189.992 200.43L189.491 200.601L188.986 200.77L188.477 200.937L187.964 201.101L187.447 201.263L186.926 201.423L186.401 201.581L185.873 201.736L185.34 201.889L184.804 202.04L184.265 202.188L183.721 202.334L183.174 202.477L182.624 202.618L182.07 202.757L181.513 202.893L180.952 203.027L180.388 203.158L179.821 203.287L179.251 203.413L178.677 203.536L178.101 203.657L177.521 203.776L176.939 203.892L176.353 204.005L175.765 204.116L175.174 204.224L174.58 204.329L173.984 204.432L173.385 204.532L172.783 204.629L172.179 204.724L171.572 204.816L170.963 204.906L170.352 204.992L169.738 205.076L169.122 205.157L168.504 205.236L167.884 205.311L167.262 205.384L166.638 205.454L166.012 205.521L165.384 205.586L164.755 205.648L164.124 205.706L163.491 205.762L162.856 205.816L162.22 205.866L161.582 205.913L160.943 205.958L160.303 206L159.661 206.039L159.019 206.075L158.375 206.108L157.73 206.138L157.083 206.165L156.436 206.19L155.788 206.211L155.14 206.23L154.49 206.245L153.84 206.258L153.189 206.268L152.537 206.275L151.885 206.279L151.233 206.28L150.58 206.278L149.927 206.273L149.274 206.265L148.62 206.254L147.967 206.241L147.313 206.224L146.659 206.204L146.006 206.182L145.352 206.156L144.699 206.128L144.046 206.096L143.393 206.062L142.741 206.025L142.089 205.985L141.438 205.941L140.787 205.895L140.138 205.846L139.488 205.794L138.84 205.739L138.193 205.681L137.546 205.62L136.9 205.557L136.256 205.49L135.613 205.42L134.971 205.348L134.33 205.272L133.69 205.194L133.052 205.113L132.415 205.029L131.78 204.942L131.147 204.852L130.515 204.759L129.885 204.664L129.257 204.565L128.63 204.464L128.006 204.36L127.383 204.253L126.763 204.143L126.144 204.03L125.528 203.914L124.914 203.796L124.302 203.675L123.693 203.551L123.086 203.425L122.482 203.295L121.88 203.163L121.281 203.028L120.685 202.89L120.091 202.75L119.5 202.607L118.912 202.461L118.327 202.313L117.745 202.162L117.166 202.008L116.59 201.852L116.017 201.693L115.448 201.531L114.881 201.367L114.319 201.2L113.759 201.03L113.203 200.858L112.651 200.684L112.102 200.507L111.557 200.327L111.016 200.145L110.478 199.961L109.944 199.774L109.414 199.584L108.888 199.392L108.366 199.198L107.849 199.001L107.335 198.802L106.825 198.601L106.32 198.397L105.819 198.191L105.322 197.982L104.829 197.772L104.341 197.559L103.858 197.343L103.379 197.126L102.905 196.906L102.435 196.684L101.97 196.46L101.51 196.234L101.054 196.006L100.604 195.776L100.158 195.543L99.7173 195.309L99.2815 195.072L98.8508 194.834L98.4253 194.593L98.0048 194.35L97.5895 194.106L97.1795 193.859L96.7747 193.611L96.3753 193.361L95.9813 193.109L95.5926 192.855L95.2094 192.599L94.8318 192.342L94.4596 192.083L94.0931 191.822L93.7322 191.559L93.3769 191.295L93.0274 191.029L92.6836 190.761L92.3456 190.492L92.0134 190.221L91.6871 189.948L91.3667 189.674L91.0523 189.399L90.7438 189.122L90.4413 188.844L90.1449 188.564L89.8546 188.283L89.5704 188L89.2923 187.716L89.0205 187.431L88.7548 187.144L88.4954 186.857L88.2423 186.568L87.9955 186.277L87.7551 185.986L87.521 185.693L87.2933 185.4L87.0721 185.105L86.8573 184.809L86.649 184.512L86.4472 184.214L86.252 183.916L86.0633 183.616L85.8812 183.315L85.7057 183.014L85.5369 182.711L85.3747 182.408L85.2192 182.104L85.0704 181.799L84.9283 181.493L84.7929 181.187L84.6643 180.88L84.5425 180.573L84.4275 180.264L84.3193 179.956L84.218 179.646L84.1234 179.336L84.0358 179.026L83.955 178.715L83.8811 178.404L83.8142 178.092L83.7541 177.78L83.7009 177.468L83.6547 177.155L83.6155 176.842L83.5832 176.529L83.5579 176.216L83.5395 175.902L83.5282 175.588L83.5238 175.274L83.5265 174.961L83.5361 174.647L83.5527 174.333L83.5764 174.018L83.6071 173.705L83.6447 173.391L83.6895 173.077L83.7412 172.763L83.8 172.45L83.8657 172.136L83.9385 171.823L84.0183 171.51L84.1052 171.198L84.199 170.886L84.2999 170.574L84.4078 170.262L84.5226 169.951L84.6445 169.641L84.7734 169.331L84.9092 169.021L85.052 168.712L85.2018 168.403L85.3585 168.096L85.5222 167.788L85.6928 167.482L85.8704 167.176L86.0548 166.871L86.2462 166.567L86.4444 166.263L86.6495 165.96L86.8615 165.658L87.0803 165.357L87.3059 165.057L87.5384 164.758L87.7776 164.46L88.0236 164.163L88.2763 163.867L88.5358 163.572L88.802 163.278L89.0749 162.985L89.3544 162.694L89.6406 162.404L89.9334 162.114L90.2328 161.826L90.5388 161.54L90.8514 161.255L91.1704 160.971L91.4959 160.688L91.8279 160.407L92.1664 160.127L92.5113 159.849L92.8625 159.572L93.2201 159.297L93.584 159.023L93.9542 158.751L94.3306 158.481L94.7133 158.212L95.1022 157.945L95.4972 157.679L95.8983 157.416L96.3055 157.154L96.7188 156.893L97.1381 156.635L97.5633 156.379L97.9945 156.124L98.4316 155.871L98.8745 155.62L99.3233 155.371L99.7779 155.124L100.238 154.879L100.704 154.636L101.176 154.395L101.653 154.156L102.136 153.92L102.624 153.685L103.118 153.453L103.617 153.222L104.122 152.994L104.632 152.768L105.147 152.545L105.668 152.323L106.193 152.104L106.724 151.888L107.26 151.673L107.801 151.461L108.347 151.252L108.898 151.044L109.454 150.84L110.015 150.637L110.58 150.438L111.15 150.24L111.725 150.046L112.305 149.853L112.889 149.664L113.477 149.477L114.071 149.292L114.668 149.11L115.27 148.931L115.876 148.755L116.486 148.581L117.101 148.41L117.72 148.242L118.342 148.076L118.969 147.913L119.6 147.753L120.235 147.596L120.873 147.442L121.515 147.29L122.161 147.141L122.81 146.995L123.464 146.853L124.12 146.713L124.78 146.575L125.444 146.441L126.11 146.31L126.78 146.182L127.454 146.057L128.13 145.935L128.809 145.815L129.492 145.699L130.177 145.586L130.865 145.476L131.556 145.369L132.25 145.265L132.946 145.165L133.645 145.067L134.346 144.973L135.05 144.881L135.757 144.793L136.465 144.708L137.176 144.626L137.889 144.547L138.604 144.472L139.322 144.4L140.041 144.331L140.762 144.265L141.485 144.202L142.209 144.143L142.936 144.087L143.663 144.034L144.393 143.984L145.124 143.938L145.856 143.895L146.59 143.855L147.325 143.819L148.061 143.785L148.798 143.756L149.536 143.729L150.275 143.706L151.015 143.686L151.756 143.669L152.498 143.656L153.24 143.646L153.983 143.64L154.726 143.637L155.47 143.637L156.214 143.64L156.958 143.647L157.703 143.657L158.447 143.671L159.192 143.688L159.937 143.708L160.682 143.732L161.426 143.759L162.171 143.789L162.915 143.823L163.658 143.86L164.401 143.9L165.144 143.944L165.886 143.991L166.627 144.041L167.368 144.095L168.107 144.152L168.846 144.213L169.584 144.277L170.321 144.344L171.056 144.414L171.791 144.488L172.524 144.565L173.256 144.646L173.986 144.73L174.715 144.817L175.442 144.907L176.167 145.001L176.891 145.098L177.613 145.198L178.333 145.301L179.051 145.408L179.767 145.518L180.481 145.631L181.193 145.748L181.903 145.868L182.61 145.991L183.315 146.117L184.017 146.246L184.717 146.379L185.414 146.514L186.109 146.653L186.801 146.795L187.49 146.94L188.176 147.089L188.859 147.24L189.539 147.394L190.216 147.552L190.889 147.713L191.56 147.876L192.227 148.043L192.891 148.213L193.551 148.386L194.208 148.562L194.861 148.741L195.51 148.922L196.156 149.107L196.798 149.295L197.436 149.485L198.07 149.679L198.7 149.875L199.326 150.075L199.948 150.277L200.566 150.482L201.179 150.69L201.788 150.9L202.393 151.114L202.993 151.33L203.589 151.549L204.18 151.77L204.766 151.995L205.348 152.222L205.925 152.451L206.497 152.684L207.064 152.919L207.626 153.156L208.183 153.396L208.735 153.639L209.282 153.884L209.824 154.132L210.36 154.382L210.891 154.634L211.417 154.889L211.937 155.147L212.452 155.407L212.962 155.669L213.465 155.933L213.963 156.2L214.456 156.469L214.942 156.741L215.423 157.015L215.898 157.29L216.367 157.568L216.829 157.849L217.286 158.131L217.737 158.415L218.182 158.702L218.621 158.991L219.053 159.281L219.479 159.574L219.899 159.868L220.312 160.165L220.719 160.463L221.119 160.764L221.513 161.066L221.901 161.37L222.282 161.676L222.656 161.983L223.023 162.293L223.384 162.604L223.738 162.916L224.085 163.231L224.426 163.547L224.759 163.864L225.086 164.183L225.405 164.504L225.718 164.826L226.024 165.15L226.322 165.475L226.613 165.801L226.898 166.129L227.175 166.458L227.445 166.788L227.707 167.12L227.963 167.453L228.211 167.787L228.451 168.123L228.685 168.459L228.911 168.797L229.129 169.135L229.341 169.475L229.544 169.816L229.74 170.157L229.929 170.5L230.11 170.844L230.283 171.188L230.449 171.533L230.608 171.879L230.758 172.226L230.901 172.574L231.037 172.922L231.164 173.271L231.284 173.62L231.396 173.971L231.501 174.321L231.597 174.673L231.686 175.024L231.767 175.377L231.84 175.729L231.906 176.082L231.963 176.436L232.013 176.789L232.055 177.143L232.089 177.497L232.115 177.852L232.133 178.207L232.143 178.561L232.146 178.916L232.14 179.271L232.127 179.626L232.105 179.981L232.076 180.336L232.039 180.691L231.994 181.046L231.941 181.4L231.88 181.755L231.811 182.109L231.734 182.463L231.649 182.817L231.556 183.17L231.456 183.523L231.347 183.876L231.231 184.228L231.106 184.579L230.974 184.931L230.834 185.281L230.686 185.631L230.53 185.981L230.366 186.33L230.195 186.678L230.015 187.025L229.828 187.372L229.633 187.718L229.43 188.063L229.219 188.407L229.001 188.751L228.774 189.093L228.54 189.435L228.299 189.775L228.049 190.114L227.792 190.453L227.528 190.79L227.255 191.126L226.975 191.461L226.688 191.795L226.392 192.127L226.09 192.459L225.78 192.789L225.462 193.117L225.137 193.444L224.804 193.77L224.464 194.094L224.116 194.417L223.762 194.739L223.399 195.059L223.03 195.377L222.653 195.693L222.269 196.008L221.878 196.322L221.48 196.633L221.075 196.943L220.662 197.251L220.242 197.557L219.816 197.862L219.382 198.164L218.942 198.465L218.494 198.764L218.04 199.061L217.579 199.355L217.111 199.648L216.636 199.939L216.155 200.227L215.667 200.514L215.172 200.798L214.671 201.08L214.164 201.36L213.649 201.638L213.129 201.913L212.602 202.186L212.069 202.457L211.529 202.725L210.983 202.991L210.431 203.255L209.873 203.516L209.309 203.775L208.739 204.031L208.162 204.285L207.58 204.536L206.992 204.784L206.399 205.03L205.799 205.274L205.194 205.514L204.583 205.752L203.966 205.988L203.345 206.22L202.717 206.45L202.084 206.677L201.446 206.901L200.803 207.122L200.154 207.341L199.5 207.556L198.841 207.769L198.177 207.978L197.508 208.185L196.834 208.389L196.155 208.59L195.472 208.788L194.783 208.982L194.09 209.174L193.393 209.362L192.691 209.548L191.984 209.73L191.274 209.909L190.558 210.085L189.839 210.258L189.115 210.428L188.388 210.594L187.656 210.757L186.92 210.917L186.181 211.073L185.437 211.227L184.69 211.377L183.939 211.523L183.185 211.666L182.427 211.806L181.665 211.943L180.9 212.076L180.132 212.205L179.361 212.331L178.586 212.454L177.808 212.573L177.028 212.689L176.244 212.801L175.458 212.91L174.669 213.015L173.877 213.117L173.082 213.215L172.285 213.31L171.485 213.401L170.683 213.488L169.879 213.572L169.073 213.652L168.264 213.729L167.453 213.802L166.641 213.871L165.826 213.937L165.009 213.999L164.191 214.058L163.371 214.112L162.55 214.163L161.727 214.211L160.903 214.254L160.077 214.294L159.25 214.33L158.422 214.363L157.592 214.392L156.762 214.417L155.931 214.438L155.099 214.456L154.266 214.469L153.432 214.479L152.598 214.486L151.764 214.488L150.929 214.487L150.093 214.482L149.257 214.474L148.422 214.461L147.586 214.445L146.75 214.425L145.914 214.401L145.078 214.374L144.243 214.342L143.407 214.307L142.573 214.269L141.738 214.226L140.905 214.18L140.072 214.13L139.239 214.076L138.408 214.018L137.577 213.957L136.748 213.892L135.919 213.823L135.092 213.75L134.266 213.674L133.441 213.594L132.618 213.51L131.796 213.423L130.976 213.331L130.157 213.236L129.341 213.138L128.526 213.036L127.713 212.93L126.902 212.82L126.093 212.707L125.286 212.59L124.481 212.469L123.679 212.345L122.879 212.217L122.082 212.085L121.287 211.95L120.495 211.811L119.706 211.669L118.919 211.523L118.136 211.374L117.355 211.221L116.578 211.064L115.803 210.904L115.032 210.741L114.264 210.574L113.5 210.403L112.739 210.229L111.981 210.052L111.227 209.871L110.477 209.687L109.731 209.499L108.988 209.308L108.25 209.113L107.515 208.916L106.784 208.714L106.058 208.51L105.336 208.302L104.618 208.091L103.905 207.877L103.196 207.659L102.491 207.439L101.792 207.215L101.096 206.987L100.406 206.757L99.7205 206.524L99.0399 206.287L98.3642 206.048L97.6936 205.805L97.0281 205.559L96.3678 205.31L95.7127 205.058L95.063 204.804L94.4186 204.546L93.7797 204.285L93.1464 204.021L92.5186 203.755L91.8965 203.486L91.2802 203.213L90.6696 202.938L90.0649 202.661L89.4661 202.38L88.8733 202.097L88.2866 201.811L87.706 201.522L87.1316 201.231L86.5634 200.937L86.0015 200.64L85.446 200.341L84.8969 200.039L84.3543 199.735L83.8182 199.429L83.2887 199.119L82.7659 198.808L82.2498 198.494L81.7405 198.178L81.238 197.859L80.7424 197.538L80.2537 197.215L79.772 196.889L79.2973 196.562L78.8298 196.232L78.3694 195.9L77.9162 195.566L77.4703 195.229L77.0316 194.891L76.6003 194.551L76.1764 194.209L75.7599 193.864L75.351 193.518L74.9495 193.17L74.5557 192.82L74.1694 192.469L73.7909 192.115L73.4201 191.76L73.057 191.403L72.7017 191.044L72.3542 190.684L72.0147 190.322L71.683 189.959L71.3593 189.594L71.0437 189.227L70.736 188.859L70.4364 188.49L70.1449 188.119L69.8615 187.747L69.5864 187.373L69.3194 186.998L69.0607 186.622L68.8102 186.245L68.568 185.866L68.3342 185.487L68.1087 185.106L67.8916 184.724L67.683 184.342L67.4827 183.958L67.291 183.573L67.1077 183.187L66.9329 182.801L66.7667 182.414L66.609 182.025L66.46 181.636L66.3195 181.247L66.1877 180.856L66.0645 180.465L65.9499 180.074L65.8441 179.682L65.7469 179.289L65.6584 178.896L65.5787 178.502L65.5077 178.108L65.4454 177.714L65.392 177.319L65.3473 176.924L65.3113 176.529L65.2842 176.133L65.2659 175.738L65.2563 175.342L65.2556 174.946L65.2637 174.55L65.2807 174.154L65.3065 173.758L65.3411 173.362L65.3845 172.967L65.4368 172.571L65.498 172.176L65.5679 171.78L65.6467 171.385L65.7344 170.991L65.8309 170.596L65.9362 170.203L66.0503 169.809L66.1732 169.416L66.305 169.023L66.4456 168.632L66.5949 168.24L66.7531 167.849L66.92 167.459L67.0957 167.07L67.2801 166.681L67.4733 166.293L67.6752 165.906L67.8859 165.52L68.1052 165.135L68.3332 164.75L68.5699 164.367L68.8152 163.984L69.0691 163.603L69.3317 163.223L69.6028 162.844L69.8825 162.466L70.1707 162.089L70.4675 161.714L70.7727 161.339L71.0865 160.967L71.4086 160.595L71.7392 160.225L72.0782 159.856L72.4255 159.489L72.7812 159.124L73.1451 158.759L73.5174 158.397L73.8978 158.036L74.2865 157.677L74.6834 157.319L75.0883 156.964L75.5014 156.61L75.9226 156.257L76.3517 155.907L76.7889 155.559L77.234 155.212L77.687 154.868L78.1479 154.525L78.6166 154.184L79.0931 153.846L79.5774 153.51L80.0693 153.175L80.569 152.843L81.0762 152.514L81.591 152.186L82.1133 151.861L82.643 151.538L83.1803 151.217L83.7248 150.899L84.2767 150.583L84.8359 150.269L85.4023 149.958L85.9758 149.65L86.5565 149.344L87.1442 149.041L87.739 148.74L88.3407 148.442L88.9493 148.147L89.5647 147.854L90.1869 147.564L90.8159 147.277L91.4515 146.992L92.0937 146.711L92.7425 146.432L93.3977 146.156L94.0594 145.883L94.7274 145.613L95.4017 145.346L96.0823 145.082L96.769 144.821L97.4619 144.563L98.1607 144.309L98.8656 144.057L99.5763 143.808L100.293 143.563L101.015 143.321L101.743 143.082L102.477 142.846L103.216 142.613L103.961 142.384L104.711 142.158L105.467 141.936L106.227 141.717L106.993 141.501L107.765 141.289L108.541 141.08L109.322 140.875L110.108 140.673L110.899 140.474L111.694 140.279L112.495 140.088L113.3 139.9L114.109 139.716L114.923 139.536L115.741 139.359L116.564 139.186L117.39 139.016L118.221 138.85L119.056 138.688L119.895 138.53L120.738 138.375L121.584 138.225L122.434 138.078L123.288 137.934L124.146 137.795L125.007 137.659L125.871 137.528L126.738 137.4L127.609 137.276L128.483 137.156L129.36 137.04L130.24 136.928L131.123 136.819L132.008 136.715L132.896 136.615L133.787 136.518L134.681 136.426L135.576 136.338L136.474 136.254L137.375 136.173L138.277 136.097L139.182 136.025L140.088 135.957L140.997 135.893L141.907 135.833L142.819 135.777L143.733 135.725L144.648 135.678L145.564 135.634L146.482 135.595L147.402 135.559L148.322 135.528L149.243 135.501L150.166 135.478L151.089 135.459L152.013 135.445L152.938 135.434L153.864 135.428L154.789 135.426L155.716 135.428L156.643 135.434L157.57 135.445L158.497 135.459L159.424 135.478L160.351 135.501L161.278 135.528L162.205 135.559L163.131 135.595L164.057 135.635L164.983 135.678L165.908 135.726L166.832 135.778L167.756 135.835L168.678 135.895L169.6 135.96L170.521 136.029L171.44 136.101L172.358 136.179L173.275 136.26L174.19 136.345L175.104 136.435L176.017 136.528L176.927 136.626L177.836 136.728L178.743 136.834L179.648 136.944L180.551 137.058L181.451 137.176L182.35 137.298L183.246 137.424L184.139 137.555L185.03 137.689L185.919 137.828L186.804 137.97L187.687 138.116L188.567 138.267L189.444 138.421L190.318 138.58L191.189 138.742L192.056 138.908L192.92 139.078L193.781 139.252L194.638 139.43L195.492 139.612L196.342 139.798L197.188 139.987L198.03 140.181L198.868 140.378L199.702 140.579L200.532 140.784L201.358 140.992L202.18 141.204L202.997 141.42L203.809 141.64L204.617 141.863L205.421 142.09L206.219 142.321L207.013 142.555L207.802 142.793L208.586 143.034L209.365 143.279L210.139 143.528L210.908 143.78L211.671 144.035L212.429 144.294L213.181 144.557L213.928 144.823L214.669 145.092L215.405 145.365L216.135 145.64L216.859 145.92L217.577 146.202L218.289 146.488L218.994 146.777L219.694 147.069L220.388 147.365L221.075 147.663L221.756 147.965L222.43 148.27L223.098 148.577L223.76 148.888L224.414 149.202L225.062 149.519L225.703 149.839L226.338 150.162L226.965 150.487L227.585 150.816L228.198 151.147L228.805 151.481L229.403 151.818L229.995 152.158L230.579 152.5L231.156 152.845L231.726 153.193L232.288 153.543L232.842 153.895L233.389 154.251L233.928 154.609L234.459 154.969L234.983 155.331L235.499 155.697L236.006 156.064L236.506 156.434L236.998 156.806L237.481 157.18L237.957 157.557L238.424 157.935L238.883 158.316L239.334 158.699L239.776 159.084L240.21 159.471L240.635 159.86L241.052 160.251L241.461 160.644L241.861 161.039L242.252 161.435L242.634 161.834L243.008 162.234L243.373 162.636L243.73 163.039L244.077 163.445L244.415 163.851L244.745 164.26L245.066 164.67L245.377 165.081L245.68 165.494L245.973 165.908L246.258 166.324L246.533 166.741L246.799 167.159L247.056 167.579L247.303 167.999L247.542 168.421L247.771 168.844L247.99 169.268L248.201 169.693L248.402 170.119L248.593 170.546L248.775 170.974L248.948 171.403L249.111 171.832L249.265 172.262L249.409 172.694L249.543 173.125L249.668 173.558L249.784 173.991L249.89 174.424L249.986 174.858L250.072 175.293L250.149 175.728L250.216 176.163L250.274 176.599L250.322 177.035L250.36 177.472L250.389 177.908L250.407 178.345L250.416 178.782L250.416 179.218L250.405 179.655L250.385 180.092L250.355 180.529L250.315 180.966L250.266 181.403L250.207 181.839L250.138 182.276L250.059 182.712L249.971 183.147L249.873 183.583L249.765 184.017L249.647 184.452L249.52 184.886L249.383 185.319L249.236 185.752L249.08 186.185L248.913 186.616L248.738 187.047L248.552 187.477L248.357 187.907L248.152 188.335L247.938 188.763L247.713 189.19L247.48 189.615L247.237 190.04L246.984 190.464L246.721 190.887L246.449 191.308L246.168 191.728L245.877 192.147L245.577 192.565L245.267 192.982L244.948 193.397L244.62 193.81L244.282 194.223L243.935 194.634L243.578 195.043L243.212 195.451L242.837 195.857L242.453 196.261L242.06 196.664L241.657 197.065L241.246 197.464L240.825 197.862L240.396 198.257L239.957 198.651L239.509 199.043L239.053 199.433L238.588 199.821L238.114 200.206L237.631 200.59L237.139 200.971L236.639 201.351L236.13 201.728L235.612 202.103L235.086 202.475L234.551 202.845L234.008 203.213L233.456 203.579L232.896 203.942L232.328 204.302L231.752 204.66L231.167 205.016L230.574 205.369L229.973 205.719L229.364 206.066L228.747 206.411L228.123 206.753L227.49 207.092L226.849 207.429L226.201 207.763L225.545 208.093L224.881 208.421L224.21 208.746L223.532 209.068L222.845 209.387L222.152 209.703L221.451 210.015L220.743 210.325L220.028 210.631L219.306 210.935L218.576 211.235L217.84 211.531L217.097 211.825L216.347 212.115L215.59 212.402L214.826 212.685L214.056 212.965L213.279 213.242L212.496 213.515L211.707 213.785L210.911 214.051L210.109 214.313L209.301 214.572L208.486 214.827L207.666 215.079L206.84 215.327L206.008 215.571L205.17 215.812L204.326 216.049L203.477 216.282L202.622 216.511L201.762 216.737L200.897 216.958L200.026 217.176L199.15 217.39L198.269 217.6L197.383 217.806L196.492 218.008L195.596 218.206L194.695 218.4L193.79 218.59L192.88 218.776L191.966 218.958L191.047 219.135L190.124 219.309L189.197 219.478L188.265 219.644L187.33 219.805L186.39 219.962L185.447 220.115L184.5 220.263L183.549 220.407L182.595 220.547L181.637 220.683L180.676 220.815L179.711 220.942L178.743 221.064L177.773 221.183L176.799 221.297L175.822 221.407L174.842 221.512L173.86 221.613L172.875 221.709L171.887 221.802L170.898 221.889L169.905 221.972L168.911 222.051L167.914 222.125L166.915 222.195L165.915 222.261L164.912 222.321L163.908 222.378L162.902 222.429L161.895 222.477L160.886 222.52L159.876 222.558L158.864 222.591L157.852 222.621L156.838 222.645L155.824 222.665L154.808 222.681L153.792 222.692L152.776 222.698L151.758 222.7L150.741 222.697L149.722 222.689L148.704 222.677L147.686 222.661L146.667 222.64L145.649 222.614L144.631 222.584L143.613 222.549L142.596 222.509L141.579 222.465L140.562 222.416L139.546 222.363L138.532 222.305L137.518 222.243L136.504 222.176L135.493 222.105L134.482 222.029L133.472 221.948L132.464 221.863L131.458 221.773L130.453 221.679L129.45 221.58L128.449 221.477L127.449 221.369L126.452 221.257L125.456 221.14L124.463 221.018L123.473 220.893L122.484 220.762L121.499 220.628L120.515 220.489L119.535 220.345L118.557 220.197L117.583 220.045L116.611 219.888L115.642 219.727L114.677 219.561L113.715 219.391L112.756 219.217L111.801 219.038L110.85 218.855L109.902 218.668L108.958 218.477L108.018 218.281L107.082 218.081L106.15 217.877L105.222 217.668L104.299 217.456L103.38 217.239L102.465 217.018L101.555 216.793L100.65 216.564L99.7493 216.33L98.8535 216.093L97.9627 215.852L97.077 215.606L96.1964 215.357L95.3209 215.103L94.4509 214.846L93.5862 214.585L92.727 214.319L91.8734 214.05L91.0255 213.777L90.1833 213.501L89.3469 213.22L88.5165 212.936L87.6922 212.647L86.8739 212.355L86.0618 212.06L85.256 211.761L84.4566 211.458L83.6636 211.151L82.8771 210.841L82.0973 210.527L81.3241 210.21L80.5577 209.889L79.7982 209.565L79.0456 209.237L78.3 208.906L77.5615 208.572L76.8302 208.234L76.1061 207.893L75.3894 207.549L74.68 207.201L73.9782 206.85L73.2839 206.496L72.5972 206.139L71.9182 205.778L71.247 205.415L70.5836 205.049L69.9281 204.679L69.2806 204.307L68.6412 203.931L68.0099 203.553L67.3868 203.172L66.7719 202.788L66.1654 202.401L65.5673 202.011L64.9776 201.619L64.3964 201.224L63.8238 200.827L63.2599 200.426L62.7046 200.024L62.1581 199.618L61.6205 199.21L61.0917 198.8L60.5718 198.388L60.061 197.972L59.5592 197.555L59.0665 197.135L58.583 196.714L58.1087 196.289L57.6437 195.863L57.188 195.435L56.7416 195.004L56.3047 194.572L55.8773 194.137L55.4594 193.701L55.051 193.262L54.6523 192.822L54.2632 192.38L53.8838 191.936L53.5142 191.49L53.1544 191.043L52.8044 190.594L52.4642 190.144L52.134 189.691L51.8137 189.238L51.5034 188.783L51.2032 188.326L50.913 187.868L50.6328 187.409L50.3628 186.948L50.103 186.486L49.8534 186.023L49.6139 185.559L49.3848 185.094L49.1659 184.627L48.9573 184.16L48.7591 183.692L48.5712 183.222L48.3937 182.752L48.2266 182.281L48.07 181.809L47.9238 181.337L47.7881 180.864L47.6628 180.39L47.5481 179.915L47.4439 179.44L47.3502 178.965L47.2672 178.489L47.1946 178.012L47.1327 177.535L47.0814 177.058L47.0406 176.581L47.0105 176.103L46.991 175.626L46.9822 175.148L46.984 174.67L46.9964 174.192L47.0195 173.714L47.0533 173.236L47.0977 172.758L47.1528 172.281L47.2185 171.803L47.2949 171.326L47.3819 170.85L47.4796 170.373L47.588 169.897L47.707 169.421L47.8367 168.946L47.9769 168.472L48.1278 167.998L48.2893 167.525L48.4614 167.052L48.6442 166.58L48.8374 166.109L49.0413 165.639L49.2557 165.169L49.4807 164.701L49.7161 164.233L49.9621 163.767L50.2185 163.302L50.4854 162.837L50.7628 162.374L51.0506 161.913L51.3487 161.452L51.6573 160.993L51.9762 160.535L52.3053 160.078L52.6448 159.623L52.9946 159.17L53.3546 158.717L53.7248 158.267L54.1052 157.818L54.4957 157.371L54.8963 156.926L55.307 156.482L55.7277 156.04L56.1584 155.6L56.5991 155.162L57.0497 154.726L57.5102 154.292L57.9805 153.86L58.4606 153.43L58.9505 153.002L59.4501 152.576L59.9594 152.153L60.4783 151.732L61.0067 151.313L61.5447 150.896L62.0922 150.482L62.6491 150.07L63.2154 149.661L63.7909 149.254L64.3758 148.85L64.9699 148.448L65.5732 148.05L66.1855 147.653L66.8069 147.26L67.4374 146.869L68.0767 146.481L68.725 146.096L69.382 145.714L70.0478 145.335L70.7223 144.958L71.4054 144.585L72.0971 144.215L72.7973 143.848L73.506 143.484L74.223 143.123L74.9483 142.765L75.6818 142.411L76.4235 142.059L77.1733 141.712L77.9312 141.367L78.6969 141.026L79.4706 140.688L80.2521 140.354L81.0412 140.023L81.8381 139.696L82.6425 139.372L83.4545 139.052L84.2739 138.736L85.1006 138.423L85.9346 138.114L86.7758 137.809L87.624 137.507L88.4794 137.21L89.3416 136.916L90.2108 136.626L91.0867 136.339L91.9693 136.057L92.8585 135.779L93.7542 135.504L94.6564 135.234L95.565 134.968L96.4798 134.706L97.4007 134.448L98.3278 134.194L99.2609 133.944L100.2 133.698L101.145 133.457L102.095 133.219L103.051 132.986L104.013 132.758L104.98 132.533L105.953 132.313L106.93 132.098L107.913 131.886L108.901 131.68L109.894 131.477L110.892 131.279L111.894 131.086L112.902 130.897L113.913 130.712L114.93 130.532L115.95 130.357L116.975 130.186L118.005 130.02L119.038 129.858L120.075 129.701L121.116 129.549L122.161 129.401L123.209 129.258L124.261 129.12L125.317 128.987L126.376 128.858L127.438 128.734L128.503 128.615L129.572 128.5L130.643 128.391L131.717 128.286L132.794 128.186L133.873 128.09L134.955 128L136.04 127.915L137.126 127.834L138.215 127.758L139.306 127.688L140.399 127.622L141.494 127.561L142.59 127.505L143.688 127.453L144.788 127.407L145.889 127.366L146.992 127.33L148.095 127.298L149.2 127.272L150.306 127.25L151.413 127.234L152.52 127.222L153.628 127.216L154.737 127.214L155.846 127.218L156.955 127.226L158.065 127.24L159.174 127.258L160.284 127.282L161.394 127.31L162.503 127.343L163.612 127.382L164.72 127.425L165.828 127.474L166.936 127.527L168.042 127.585L169.148 127.649L170.252 127.717L171.356 127.79L172.458 127.869L173.559 127.952L174.658 128.04L175.756 128.133L176.852 128.231L177.947 128.334L179.039 128.442L180.13 128.555L181.218 128.673L182.304 128.795L183.388 128.923L184.469 129.056L185.548 129.193L186.624 129.335L187.697 129.482L188.768 129.634L189.835 129.791L190.899 129.952L191.96 130.118L193.018 130.29L194.073 130.465L195.123 130.646L196.171 130.831L197.214 131.021L198.253 131.216L199.289 131.416L200.321 131.62L201.348 131.829L202.371 132.042L203.39 132.26L204.404 132.483L205.413 132.71L206.418 132.942L207.418 133.178L208.413 133.419L209.404 133.664L210.389 133.914L211.369 134.168L212.343 134.427L213.312 134.69L214.276 134.957L215.234 135.229L216.186 135.505L217.132 135.785L218.073 136.07L219.008 136.359L219.936 136.652L220.858 136.949L221.774 137.251L222.684 137.556L223.587 137.866L224.483 138.18L225.373 138.498L226.256 138.82L227.133 139.146L228.002 139.475L228.864 139.809L229.719 140.147L230.567 140.488L231.408 140.834L232.241 141.183L233.067 141.536L233.885 141.893L234.695 142.253L235.498 142.617L236.293 142.985L237.08 143.356L237.859 143.731L238.63 144.109L239.393 144.491L240.148 144.876L240.894 145.265L241.632 145.657L242.361 146.052L243.082 146.451L243.794 146.853L244.498 147.258L245.192 147.667L245.878 148.078L246.555 148.493L247.223 148.911L247.882 149.332L248.532 149.755L249.173 150.182L249.804 150.612L250.426 151.044L251.038 151.479L251.641 151.918L252.235 152.358L252.819 152.802L253.393 153.248L253.958 153.697L254.512 154.148L255.057 154.602L255.592 155.058L256.117 155.517L256.632 155.978L257.137 156.442L257.631 156.907L258.116 157.375L258.59 157.846L259.054 158.318L259.508 158.793L259.951 159.269L260.383 159.748L260.806 160.228L261.217 160.711L261.618 161.195L262.009 161.681L262.388 162.169L262.757 162.659L263.115 163.15L263.463 163.644L263.799 164.138L264.125 164.634L264.439 165.132L264.743 165.631L265.036 166.132L265.317 166.633L265.588 167.137L265.847 167.641L266.096 168.147L266.333 168.653L266.559 169.161L266.773 169.67L266.977 170.18L267.169 170.691L267.35 171.202L267.519 171.715L267.677 172.228L267.824 172.742L267.96 173.257L268.083 173.772L268.196 174.288L268.297 174.805L268.387 175.322L268.465 175.839L268.531 176.357L268.586 176.875L268.63 177.393L268.662 177.912L268.682 178.431L268.691 178.95L268.689 179.469L268.675 179.988L268.649 180.506L268.612 181.025L268.563 181.544L268.502 182.063L268.43 182.581L268.347 183.099L268.251 183.616L268.145 184.134L268.026 184.65L267.897 185.167L267.755 185.682L267.602 186.197L267.438 186.712L267.262 187.226L267.075 187.739L266.876 188.251L266.665 188.762L266.443 189.272L266.21 189.782L265.965 190.29L265.709 190.797L265.441 191.304L265.162 191.809L264.872 192.312L264.571 192.815L264.258 193.316L263.933 193.816L263.598 194.314L263.251 194.811L262.894 195.306L262.525 195.8L262.144 196.292L261.753 196.782L261.351 197.271L260.938 197.758L260.513 198.243L260.078 198.726L259.632 199.207L259.175 199.687L258.707 200.164L258.229 200.639L257.739 201.112L257.239 201.583L256.728 202.051L256.207 202.518L255.675 202.982L255.132 203.443L254.58 203.903L254.016 204.359L253.442 204.814L252.858 205.265L252.264 205.714L251.66 206.161L251.045 206.604L250.42 207.045L249.785 207.484L249.14 207.919L248.486 208.351L247.821 208.781L247.147 209.208L246.463 209.631L245.769 210.052L245.065 210.469L244.353 210.883L243.63 211.295L242.898 211.702L242.157 212.107L241.407 212.508L240.647 212.906L239.878 213.301L239.101 213.692L238.314 214.079L237.518 214.463L236.713 214.844L235.9 215.221L235.078 215.594L234.248 215.964L233.409 216.33L232.561 216.692L231.705 217.05L230.841 217.405L229.969 217.755L229.088 218.102L228.2 218.445L227.303 218.784L226.399 219.118L225.487 219.449L224.567 219.776L223.64 220.098L222.705 220.417L221.763 220.731L220.813 221.041L219.856 221.346L218.892 221.648L217.921 221.945L216.943 222.238L215.959 222.526L214.967 222.81L213.969 223.089L212.964 223.364L211.953 223.635L210.935 223.901L209.911 224.162L208.881 224.419L207.845 224.671L206.803 224.919L205.755 225.161L204.701 225.4L203.641 225.633L202.576 225.862L201.506 226.086L200.43 226.305L199.349 226.519L198.263 226.728L197.171 226.933L196.075 227.132L194.974 227.327L193.868 227.517L192.758 227.702L191.643 227.882L190.524 228.056L189.4 228.226L188.273 228.391L187.141 228.55L186.005 228.705L184.866 228.855L183.723 228.999L182.576 229.138L181.425 229.272L180.272 229.401L179.115 229.525L177.954 229.643L176.791 229.757L175.625 229.865L174.456 229.968L173.285 230.065L172.11 230.157L170.934 230.244L169.755 230.326L168.574 230.403L167.39 230.474L166.205 230.54L165.018 230.6L163.829 230.655L162.638 230.705L161.446 230.75L160.253 230.789L159.058 230.822L157.862 230.851L156.665 230.874L155.467 230.891L154.268 230.904L153.069 230.91L151.869 230.912L150.669 230.908L149.468 230.898L148.267 230.884L147.066 230.864L145.865 230.838L144.665 230.807L143.464 230.771L142.264 230.729L141.064 230.682L139.865 230.629L138.667 230.571L137.47 230.508L136.274 230.439L135.078 230.365L133.885 230.285L132.692 230.2L131.501 230.11L130.311 230.015L129.124 229.914L127.938 229.807L126.754 229.696L125.572 229.579L124.392 229.456L123.215 229.329L122.04 229.196L120.868 229.058L119.698 228.914L118.531 228.765L117.367 228.611L116.207 228.452L115.049 228.288L113.894 228.118L112.743 227.943L111.596 227.763L110.452 227.578L109.311 227.387L108.175 227.192L107.043 226.991L105.914 226.785L104.79 226.575L103.67 226.359L102.555 226.138L101.444 225.912L100.338 225.681L99.2366 225.445L98.1401 225.204L97.0485 224.958L95.9621 224.707L94.8809 224.452L93.805 224.191L92.7346 223.926L91.6697 223.655L90.6105 223.38L89.557 223.1L88.5094 222.816L87.4678 222.527L86.4323 222.233L85.403 221.934L84.3799 221.631L83.3633 221.323L82.3532 221.01L81.3498 220.693L80.353 220.372L79.3631 220.046L78.3801 219.715L77.4041 219.38L76.4353 219.041L75.4737 218.697L74.5194 218.349L73.5725 217.997L72.6332 217.64L71.7015 217.279L70.7776 216.914L69.8614 216.545L68.9532 216.171L68.053 215.794L67.1608 215.412L66.2769 215.027L65.4013 214.637L64.5341 214.244L63.6753 213.846L62.8251 213.445L61.9835 213.04L61.1507 212.631L60.3267 212.218L59.5116 211.802L58.7055 211.381L57.9085 210.958L57.1207 210.53L56.3422 210.099L55.5729 209.665L54.8131 209.227L54.0628 208.786L53.3221 208.341L52.591 207.893L51.8697 207.441L51.1581 206.987L50.4565 206.529L49.7648 206.068L49.0831 205.604L48.4116 205.136L47.7503 204.666L47.0992 204.193L46.4584 203.716L45.828 203.237L45.2081 202.755L44.5987 202.27L43.9999 201.783L43.4117 201.293L42.8343 200.8L42.2677 200.304L41.7119 199.806L41.167 199.305L40.6331 198.802L40.1102 198.297L39.5984 197.789L39.0977 197.279L38.6083 196.766L38.13 196.252L37.6631 195.735" stroke="url(#paint2_radial_905_20046)" stroke-width="0.8"/>
<path d="M168.501 180C163.996 182.402 153.575 183.17 146.12 181.5M146.12 181.5C143.645 180.945 141.644 180.122 140.148 179H140.305C141.589 180.01 144.489 181.191 146.12 181.5Z" stroke="url(#paint3_linear_905_20046)" stroke-width="0.5"/>
<path fill-rule="evenodd" clip-rule="evenodd" d="M218.315 48.3038C222.238 49.8693 225.306 51.5783 227.385 53.3758C229.466 55.1755 230.5 57.0125 230.5 58.8435C230.5 61.3197 228.601 63.807 224.84 66.1659C223.893 66.7604 222.836 67.341 221.675 67.9059C221.115 66.9503 220.285 66.0391 219.233 65.1774C217.17 63.4873 214.188 61.929 210.472 60.5315L210.12 61.4675C213.786 62.8461 216.655 64.3581 218.599 65.9509C219.564 66.7417 220.285 67.5382 220.767 68.335C217.508 69.8305 213.514 71.2086 208.905 72.4317C195.385 76.0189 176.68 78.2436 156 78.2436C135.32 78.2436 116.615 76.0189 103.095 72.4317C98.1177 71.111 93.8583 69.6095 90.4674 67.9748C90.9377 67.2983 91.581 66.6225 92.4007 65.9509C94.3445 64.3581 97.214 62.8461 100.88 61.4675L100.528 60.5315C96.812 61.929 93.8295 63.4873 91.7669 65.1774C90.8556 65.9241 90.1108 66.7078 89.5637 67.5255C88.6981 67.0813 87.8958 66.6278 87.1596 66.1659C83.3992 63.807 81.5 61.3197 81.5 58.8435C81.5 56.0741 83.8789 53.2956 88.5344 50.7107L88.5347 50.7105L89.2365 50.3201L88.7504 49.4462L88.049 49.8364L88.0488 49.8365C83.3556 52.4423 80.5 55.4761 80.5 58.8435C80.5 61.8625 82.7981 64.6104 86.6282 67.0131C87.3776 67.4832 88.1908 67.9435 89.0647 68.3933C88.6961 69.1581 88.5 69.95 88.5 70.7665C88.5 73.423 90.5681 75.8197 93.9647 77.9007C97.3898 79.9992 102.313 81.8711 108.352 83.4361C120.438 86.5681 137.107 88.4995 155.5 88.4995C173.893 88.4995 190.562 86.5681 202.648 83.4361C208.687 81.8711 213.61 79.9992 217.035 77.9007C220.432 75.8197 222.5 73.423 222.5 70.7665C222.5 70.0951 222.367 69.4404 222.115 68.8037C223.305 68.2245 224.393 67.6271 225.372 67.0131C229.202 64.6104 231.5 61.8625 231.5 58.8435C231.5 56.6057 230.233 54.5167 228.039 52.6194C225.842 50.72 222.66 48.9613 218.685 47.375L218.315 48.3038ZM221.208 69.2326C217.872 70.7659 213.811 72.1644 209.161 73.3983C195.536 77.0135 176.741 79.2436 156 79.2436C135.259 79.2436 116.464 77.0135 102.839 73.3983C97.7949 72.06 93.4441 70.5279 89.96 68.8402C89.6524 69.4838 89.5 70.1268 89.5 70.7665C89.5 72.8687 91.1535 75.0056 94.4871 77.048C97.7921 79.0729 102.608 80.9145 108.603 82.4681C120.585 85.5733 137.166 87.4995 155.5 87.4995C173.834 87.4995 190.415 85.5733 202.397 82.4681C208.392 80.9145 213.208 79.0729 216.513 77.048C219.846 75.0056 221.5 72.8687 221.5 70.7665C221.5 70.2568 221.403 69.7451 221.208 69.2326Z" fill="#1AD079"/>
<path d="M83 43H228L170.814 177H140.186L83 43Z" fill="#141F45"/>
<path d="M83 43H228L170.814 177H140.186L83 43Z" fill="url(#paint4_radial_905_20046)"/>
<path d="M83 43H228L170.814 177H140.186L83 43Z" fill="url(#paint5_linear_905_20046)"/>
<path d="M175 94.96C175 98.4343 173.783 101.577 171.35 104.389C168.917 107.177 165.58 108.994 161.34 109.84L161.34 118L151.711 118L151.711 109.771C148.583 109.131 145.594 108.023 142.743 106.446C139.893 104.846 137.645 103.006 136 100.926L142.743 93.3486C144.875 95.52 147.042 97.2 149.243 98.3886C151.445 99.5771 153.913 100.171 156.647 100.171C158.895 100.171 160.714 99.7029 162.104 98.7657C163.495 97.8286 164.19 96.5829 164.19 95.0286C164.19 94.16 163.9 93.3943 163.321 92.7314C162.742 92.0686 161.965 91.5314 160.992 91.12C160.019 90.7086 158.895 90.3314 157.62 89.9886C156.369 89.6229 155.037 89.2571 153.623 88.8914C152.233 88.5029 150.842 88.08 149.452 87.6229C148.061 87.1657 146.729 86.5714 145.455 85.84C144.203 85.1086 143.091 84.2629 142.118 83.3029C141.144 82.3429 140.368 81.12 139.789 79.6343C139.209 78.1257 138.92 76.4229 138.92 74.5257C138.92 71.0057 140.09 67.9429 142.43 65.3371C144.771 62.7086 147.865 60.9943 151.711 60.1943L151.711 52L161.34 52L161.34 60.2629C163.889 60.8343 166.31 61.7371 168.604 62.9714C170.922 64.2057 172.787 65.6229 174.201 67.2229L168.083 75.4514C166.252 73.6914 164.201 72.3086 161.93 71.3029C159.683 70.2743 157.539 69.76 155.5 69.76C153.716 69.76 152.267 70.1371 151.155 70.8914C150.066 71.6229 149.521 72.5829 149.521 73.7714C149.521 74.6629 149.811 75.44 150.39 76.1029C150.97 76.7657 151.746 77.3257 152.719 77.7829C153.716 78.2171 154.851 78.6286 156.126 79.0171C157.4 79.3829 158.733 79.7714 160.123 80.1829C161.537 80.5714 162.95 81.0171 164.364 81.52C165.777 82 167.121 82.6286 168.396 83.4057C169.67 84.16 170.794 85.04 171.767 86.0457C172.764 87.0286 173.552 88.2857 174.131 89.8171C174.71 91.3257 175 93.04 175 94.96Z" fill="url(#paint6_linear_905_20046)"/>
<path fill-rule="evenodd" clip-rule="evenodd" d="M227.26 53.2709C229.424 55.1041 230.5 56.978 230.5 58.8454C230.5 61.3216 228.601 63.8089 224.84 66.1679C223.898 66.759 222.847 67.3366 221.694 67.8985C221.239 67.1115 220.603 66.3548 219.811 65.6316L219.137 66.3698C219.849 67.0209 220.398 67.6744 220.787 68.3278C217.525 69.8267 213.524 71.208 208.905 72.4336C195.385 76.0209 176.68 78.2455 156 78.2455C135.32 78.2455 116.615 76.0209 103.095 72.4336C98.1067 71.11 93.8396 69.6048 90.4449 67.9659C90.8054 67.4401 91.2701 66.9146 91.8408 66.3905L91.1644 65.654C90.5126 66.2525 89.9669 66.874 89.5424 67.5165C88.6849 67.0757 87.8897 66.6259 87.1596 66.1679C83.3992 63.8089 81.5 61.3216 81.5 58.8454C81.5 57.2872 82.2473 55.7269 83.7544 54.1849L83.0393 53.4859C81.4176 55.1452 80.5 56.9426 80.5 58.8454C80.5 61.8644 82.7981 64.6123 86.6282 67.015C87.373 67.4823 88.181 67.9399 89.049 68.3871C88.6907 69.1431 88.5 69.9254 88.5 70.7315C88.5 73.3925 90.5674 75.794 93.9643 77.8795C97.3895 79.9825 102.313 81.8583 108.352 83.4266C120.438 86.5651 137.107 88.5007 155.5 88.5007C173.893 88.5007 190.562 86.5651 202.648 83.4266C208.687 81.8583 213.611 79.9825 217.036 77.8795C220.433 75.794 222.5 73.3925 222.5 70.7315C222.5 70.071 222.372 69.4263 222.129 68.7991C223.313 68.222 224.397 67.6268 225.372 67.015C229.202 64.6123 231.5 61.8644 231.5 58.8454C231.5 56.5631 230.182 54.4357 227.906 52.5078L227.26 53.2709ZM221.221 69.2285C217.883 70.7641 213.817 72.1647 209.161 73.4002C195.536 77.0154 176.741 79.2455 156 79.2455C135.259 79.2455 116.464 77.0154 102.839 73.4002C97.7872 72.0598 93.4307 70.5251 89.9439 68.8344C89.6469 69.4682 89.5 70.1013 89.5 70.7315C89.5 72.8392 91.1542 74.9808 94.4875 77.0273C97.7925 79.0565 102.608 80.9019 108.603 82.4587C120.585 85.5704 137.166 87.5007 155.5 87.5007C173.834 87.5007 190.415 85.5704 202.397 82.4587C208.392 80.9019 213.208 79.0565 216.512 77.0273C219.846 74.9808 221.5 72.8392 221.5 70.7315C221.5 70.232 221.408 69.7306 221.221 69.2285Z" fill="#1AD079"/>
<circle cx="110.147" cy="187.491" r="2.1" fill="#979CAC"/>
<circle cx="66.0805" cy="147.272" r="2.1" fill="#636B84"/>
<circle cx="73.9125" cy="206.491" r="2.1" fill="#2D3759"/>
<circle cx="206.362" cy="191.686" r="2.1" fill="#D1D3DB"/>
<circle cx="142.217" cy="230.952" r="2.1" fill="#464F6D"/>
<circle cx="250.545" cy="178.256" r="2.1" fill="#6C738A"/>
<path d="M218.47 140.584L220.472 125.241C220.615 124.146 221.618 123.374 222.714 123.517L243.712 126.256C249.188 126.971 253.048 131.989 252.334 137.466L251.367 144.876C251.224 145.971 250.22 146.743 249.125 146.6L220.194 142.826C219.099 142.683 218.327 141.679 218.47 140.584Z" fill="#1F294D"/>
<path d="M218.47 140.584L220.472 125.241C220.615 124.146 221.618 123.374 222.714 123.517L243.712 126.256C249.188 126.971 253.048 131.989 252.334 137.466L251.367 144.876C251.224 145.971 250.22 146.743 249.125 146.6L220.194 142.826C219.099 142.683 218.327 141.679 218.47 140.584Z" fill="url(#paint7_linear_905_20046)"/>
<circle cx="224.976" cy="143.509" r="2.5" transform="rotate(7.43343 224.976 143.509)" fill="#1AD079"/>
<circle cx="244.995" cy="146.119" r="2.5" transform="rotate(7.43343 244.995 146.119)" fill="#1AD079"/>
<circle cx="92.6532" cy="130.673" r="6" transform="rotate(-44.7797 92.6532 130.673)" fill="#141F45"/>
<circle cx="92.6532" cy="130.673" r="6" transform="rotate(-44.7797 92.6532 130.673)" fill="url(#paint8_linear_905_20046)"/>
<circle cx="92.6529" cy="130.666" r="4" transform="rotate(-44.7797 92.6529 130.666)" fill="url(#paint9_linear_905_20046)"/>
<path d="M82.6746 125.075L84.9035 122.864L87.1323 120.652C87.3395 120.446 87.6263 120.341 87.9172 120.365L90.6482 120.585C90.9187 120.607 91.1224 120.841 91.1071 121.112L90.7048 128.235C90.6903 128.49 90.4854 128.694 90.2299 128.706L83.1043 129.054C82.8332 129.067 82.601 128.861 82.5812 128.591L82.3816 125.858C82.3603 125.567 82.4674 125.281 82.6746 125.075Z" fill="#1AD079"/>
<path d="M293 182V250" stroke="url(#paint10_linear_905_20046)"/>
<path d="M21 187V265" stroke="url(#paint11_linear_905_20046)"/>
<path d="M97.927 182.649L83.5278 186.507C83.2463 186.582 83.0928 186.886 83.1989 187.157L84.3651 190.143C85.601 193.306 88.0429 195.849 91.1536 197.212L91.7397 197.468C92.0055 197.585 92.2039 197.816 92.279 198.096C92.3659 198.42 92.2763 198.766 92.0431 199.007L91.7397 199.321C89.6168 201.517 88.6563 204.586 89.1493 207.6L89.9073 212.235C89.9506 212.499 90.2126 212.668 90.4714 212.599L104.96 208.717C105.218 208.647 105.361 208.37 105.266 208.119L103.605 203.727C102.525 200.87 100.159 198.692 97.2223 197.852L96.8027 197.732C96.4801 197.64 96.2296 197.385 96.1427 197.061C96.0676 196.78 96.124 196.481 96.296 196.247L96.6752 195.732C98.6877 192.996 99.531 189.573 99.0196 186.216L98.5371 183.048C98.4932 182.759 98.2086 182.573 97.927 182.649Z" fill="#1F294D"/>
<path d="M97.927 182.649L83.5278 186.507C83.2463 186.582 83.0928 186.886 83.1989 187.157L84.3651 190.143C85.601 193.306 88.0429 195.849 91.1536 197.212L91.7397 197.468C92.0055 197.585 92.2039 197.816 92.279 198.096C92.3659 198.42 92.2763 198.766 92.0431 199.007L91.7397 199.321C89.6168 201.517 88.6563 204.586 89.1493 207.6L89.9073 212.235C89.9506 212.499 90.2126 212.668 90.4714 212.599L104.96 208.717C105.218 208.647 105.361 208.37 105.266 208.119L103.605 203.727C102.525 200.87 100.159 198.692 97.2223 197.852L96.8027 197.732C96.4801 197.64 96.2296 197.385 96.1427 197.061C96.0676 196.78 96.124 196.481 96.296 196.247L96.6752 195.732C98.6877 192.996 99.531 189.573 99.0196 186.216L98.5371 183.048C98.4932 182.759 98.2086 182.573 97.927 182.649Z" fill="url(#paint12_linear_905_20046)"/>
<path d="M89.0493 193.515C88.9924 193.429 89.0367 193.312 89.1365 193.285L96.4581 191.324C96.5579 191.297 96.6546 191.376 96.6484 191.479C96.5371 193.334 95.5588 195.029 94.0079 196.053L93.9198 196.111C93.8632 196.148 93.796 196.166 93.7282 196.162L93.6229 196.156C91.7678 196.044 90.0733 195.066 89.0493 193.515Z" fill="#1AD079"/>
<path d="M102.891 206.971C102.943 207.077 102.886 207.204 102.771 207.235L91.6218 210.222C91.5076 210.253 91.394 210.172 91.3864 210.054C91.1966 207.11 92.7951 204.342 95.4389 203.034L95.5745 202.967C95.6202 202.945 95.6699 202.931 95.7208 202.928L95.8717 202.918C98.815 202.729 101.584 204.327 102.891 206.971Z" fill="#1AD079"/>
<path fill-rule="evenodd" clip-rule="evenodd" d="M255.715 208.18L255.277 209.199C255.168 209.453 254.874 209.57 254.621 209.461L254.156 209.262C255.397 210.923 255.741 213.183 254.864 215.225C253.556 218.269 250.028 219.677 246.983 218.369C243.938 217.062 242.53 213.533 243.838 210.488C244.715 208.446 246.591 207.141 248.65 206.897L248.189 206.698C247.935 206.589 247.818 206.295 247.927 206.042L248.364 205.023C248.473 204.769 248.767 204.652 249.021 204.761L255.453 207.524C255.707 207.633 255.824 207.927 255.715 208.18Z" fill="#141F45"/>
<path fill-rule="evenodd" clip-rule="evenodd" d="M255.715 208.18L255.277 209.199C255.168 209.453 254.874 209.57 254.621 209.461L254.156 209.262C255.397 210.923 255.741 213.183 254.864 215.225C253.556 218.269 250.028 219.677 246.983 218.369C243.938 217.062 242.53 213.533 243.838 210.488C244.715 208.446 246.591 207.141 248.65 206.897L248.189 206.698C247.935 206.589 247.818 206.295 247.927 206.042L248.364 205.023C248.473 204.769 248.767 204.652 249.021 204.761L255.453 207.524C255.707 207.633 255.824 207.927 255.715 208.18Z" fill="url(#paint13_linear_905_20046)"/>
<circle cx="249.354" cy="212.856" r="4" transform="rotate(23.2465 249.354 212.856)" fill="url(#paint14_linear_905_20046)"/>
<path fill-rule="evenodd" clip-rule="evenodd" d="M257.391 203.152L257.125 203.772C256.567 205.07 255.33 205.867 254.008 205.926C253.656 205.942 253.238 206.47 253.099 206.794L252.902 207.254C252.793 207.507 252.499 207.625 252.245 207.516L251.326 207.121C251.073 207.012 250.955 206.718 251.064 206.464L251.262 206.005C251.397 205.689 251.474 205.043 251.241 204.792C250.311 203.79 250.003 202.296 250.578 200.96L250.844 200.34C251.62 198.532 253.716 197.696 255.524 198.473C257.331 199.249 258.168 201.344 257.391 203.152Z" fill="#1AD079"/>
<g filter="url(#filter0_f_905_20046)">
<ellipse cx="155.5" cy="39" rx="72.5" ry="8" fill="url(#paint15_linear_905_20046)" fill-opacity="0.2"/>
</g>
</g>
<defs>
<filter id="filter0_f_905_20046" x="79" y="27" width="153" height="24" filterUnits="userSpaceOnUse" color-interpolation-filters="sRGB">
<feFlood flood-opacity="0" result="BackgroundImageFix"/>
<feBlend mode="normal" in="SourceGraphic" in2="BackgroundImageFix" result="shape"/>
<feGaussianBlur stdDeviation="2" result="effect1_foregroundBlur_905_20046"/>
</filter>
<radialGradient id="paint0_radial_905_20046" cx="0" cy="0" r="1" gradientUnits="userSpaceOnUse" gradientTransform="translate(175.508 180.368) rotate(64.1926) scale(89.5655 140.545)">
<stop stop-color="white"/>
<stop offset="1" stop-color="white" stop-opacity="0"/>
</radialGradient>
<radialGradient id="paint1_radial_905_20046" cx="0" cy="0" r="1" gradientUnits="userSpaceOnUse" gradientTransform="translate(158 178.498) rotate(90) scale(101.5 147.48)">
<stop stop-color="white" stop-opacity="0"/>
<stop offset="1" stop-color="#141F45"/>
</radialGradient>
<radialGradient id="paint2_radial_905_20046" cx="0" cy="0" r="1" gradientUnits="userSpaceOnUse" gradientTransform="translate(172.5 180.002) rotate(70.9423) scale(87.284 136.965)">
<stop stop-color="white"/>
<stop offset="1" stop-color="white" stop-opacity="0"/>
</radialGradient>
<linearGradient id="paint3_linear_905_20046" x1="157.259" y1="180.964" x2="168.236" y2="179.583" gradientUnits="userSpaceOnUse">
<stop stop-color="#CACCD5"/>
<stop offset="1" stop-color="#182248"/>
</linearGradient>
<radialGradient id="paint4_radial_905_20046" cx="0" cy="0" r="1" gradientUnits="userSpaceOnUse" gradientTransform="translate(155.5 43) rotate(90) scale(135.675 827.553)">
<stop offset="0.400317" stop-color="#1AD079"/>
<stop offset="1" stop-color="#1AD079" stop-opacity="0"/>
</radialGradient>
<linearGradient id="paint5_linear_905_20046" x1="156" y1="43" x2="155.5" y2="177" gradientUnits="userSpaceOnUse">
<stop stop-color="#141F45"/>
<stop offset="0.103245" stop-color="#141F45" stop-opacity="0.88"/>
<stop offset="1" stop-color="#1AD079" stop-opacity="0"/>
</linearGradient>
<linearGradient id="paint6_linear_905_20046" x1="155.095" y1="52" x2="155.095" y2="127.737" gradientUnits="userSpaceOnUse">
<stop stop-color="#141F45"/>
<stop offset="0.0001" stop-color="#141F45"/>
<stop offset="1" stop-color="#141F45" stop-opacity="0.22"/>
</linearGradient>
<linearGradient id="paint7_linear_905_20046" x1="236" y1="116" x2="232.22" y2="146.71" gradientUnits="userSpaceOnUse">
<stop stop-color="white" stop-opacity="0.49"/>
<stop offset="1" stop-color="white" stop-opacity="0"/>
</linearGradient>
<linearGradient id="paint8_linear_905_20046" x1="92.6532" y1="124.673" x2="92.6532" y2="136.673" gradientUnits="userSpaceOnUse">
<stop stop-color="white" stop-opacity="0"/>
<stop offset="1" stop-color="white" stop-opacity="0.49"/>
</linearGradient>
<linearGradient id="paint9_linear_905_20046" x1="92.6529" y1="126.666" x2="92.6529" y2="134.666" gradientUnits="userSpaceOnUse">
<stop stop-color="#141F45"/>
<stop offset="1" stop-color="#202A4E"/>
</linearGradient>
<linearGradient id="paint10_linear_905_20046" x1="293.5" y1="182" x2="293.5" y2="250" gradientUnits="userSpaceOnUse">
<stop stop-color="#515975"/>
<stop offset="1" stop-color="white" stop-opacity="0"/>
</linearGradient>
<linearGradient id="paint11_linear_905_20046" x1="21.5" y1="187" x2="21.5" y2="265" gradientUnits="userSpaceOnUse">
<stop stop-color="white" stop-opacity="0"/>
<stop offset="0.546714" stop-color="white" stop-opacity="0.0656056"/>
<stop offset="1" stop-color="white" stop-opacity="0"/>
</linearGradient>
<linearGradient id="paint12_linear_905_20046" x1="89.5" y1="177.998" x2="99.4926" y2="215.358" gradientUnits="userSpaceOnUse">
<stop stop-color="white" stop-opacity="0.49"/>
<stop offset="1" stop-color="white" stop-opacity="0"/>
</linearGradient>
<linearGradient id="paint13_linear_905_20046" x1="252.968" y1="204.437" x2="249.237" y2="213.6" gradientUnits="userSpaceOnUse">
<stop stop-color="white" stop-opacity="0"/>
<stop offset="1" stop-color="white" stop-opacity="0.49"/>
</linearGradient>
<linearGradient id="paint14_linear_905_20046" x1="249.354" y1="208.856" x2="249.354" y2="216.856" gradientUnits="userSpaceOnUse">
<stop stop-color="#141F45"/>
<stop offset="1" stop-color="#202A4E"/>
</linearGradient>
<linearGradient id="paint15_linear_905_20046" x1="155.5" y1="31" x2="156.36" y2="54.9871" gradientUnits="userSpaceOnUse">
<stop stop-color="#1AD079"/>
<stop offset="0.326172" stop-color="#1AD079" stop-opacity="0.326172"/>
<stop offset="1" stop-color="#1AD079"/>
</linearGradient>
<clipPath id="clip0_905_20046">
<path d="M0 10C0 4.47716 4.47715 0 10 0H302C307.523 0 312 4.47715 312 10V272C312 277.523 307.523 282 302 282H9.99999C4.47715 282 0 277.523 0 272V10Z" fill="white"/>
</clipPath>
</defs>
</svg>
