<svg width="144" height="144" viewBox="0 0 144 144" fill="none" xmlns="http://www.w3.org/2000/svg">
<rect x="90" y="76.5" width="24" height="24" rx="1" fill="#83899D"/>
<rect x="120" y="76.5" width="24" height="24" rx="1" fill="#83899D"/>
<rect x="120" y="16.5" width="24" height="24" rx="1" fill="#07133B"/>
<rect x="90" y="46.5" width="24" height="24" rx="1" fill="#07133B"/>
<rect x="120" y="46.5" width="24" height="24" rx="1" fill="#07133B"/>
<rect x="90" y="16.5" width="24" height="24" rx="1" fill="#07133B"/>
<rect y="61.5" width="39" height="39" rx="1" fill="#1AD079"/>
<rect x="45" y="61.5" width="39" height="39" rx="1" fill="#1AD079"/>
<rect y="16.5" width="39" height="39" rx="1" fill="#1AD079"/>
<rect x="45" y="16.5" width="39" height="39" rx="1" fill="#1AD079"/>
<path d="M142.191 107.746C142.331 107.576 142.583 107.551 142.754 107.691C142.924 107.831 142.949 108.083 142.809 108.254L142.191 107.746ZM1.19069 108.254C1.05063 108.083 1.07556 107.831 1.2464 107.691C1.41724 107.551 1.66926 107.576 1.80934 107.746L1.19069 108.254ZM141.661 109.558C141.51 109.719 141.257 109.727 141.096 109.576C140.935 109.424 140.927 109.171 141.079 109.01L141.661 109.558ZM138.623 111.331C138.791 111.188 139.044 111.209 139.187 111.377C139.329 111.546 139.309 111.798 139.14 111.941L138.623 111.331ZM136.398 114.056C136.218 114.183 135.968 114.14 135.841 113.96C135.714 113.779 135.757 113.53 135.937 113.402L136.398 114.056ZM133.087 115.257C133.276 115.143 133.522 115.204 133.636 115.394C133.75 115.583 133.689 115.829 133.5 115.943L133.087 115.257ZM130.489 117.632C130.293 117.734 130.051 117.659 129.949 117.463C129.846 117.267 129.922 117.026 130.118 116.923L130.489 117.632ZM127.063 118.422C127.264 118.33 127.501 118.418 127.593 118.618C127.686 118.819 127.598 119.057 127.397 119.149L127.063 118.422ZM124.233 120.52C124.028 120.603 123.795 120.505 123.711 120.3C123.628 120.096 123.726 119.862 123.931 119.779L124.233 120.52ZM120.748 121.003C120.955 120.928 121.185 121.035 121.26 121.243C121.336 121.451 121.228 121.68 121.021 121.755L120.748 121.003ZM117.763 122.872C117.553 122.94 117.327 122.825 117.259 122.615C117.191 122.405 117.306 122.179 117.516 122.111L117.763 122.872ZM114.253 123.109C114.465 123.048 114.687 123.17 114.748 123.382C114.809 123.595 114.687 123.816 114.475 123.878L114.253 123.109ZM111.15 124.784C110.937 124.839 110.718 124.71 110.663 124.496C110.608 124.282 110.737 124.064 110.951 124.009L111.15 124.784ZM107.635 124.813C107.851 124.764 108.065 124.899 108.114 125.114C108.164 125.329 108.029 125.544 107.813 125.593L107.635 124.813ZM104.452 126.315C104.235 126.358 104.024 126.218 103.981 126.002C103.937 125.785 104.077 125.574 104.294 125.53L104.452 126.315ZM100.931 126.165C101.149 126.127 101.356 126.272 101.394 126.49C101.433 126.707 101.287 126.915 101.07 126.953L100.931 126.165ZM97.6801 127.51C97.4617 127.544 97.2577 127.394 97.2243 127.175C97.191 126.957 97.341 126.753 97.5594 126.719L97.6801 127.51ZM94.1756 127.198C94.3946 127.169 94.5953 127.324 94.6238 127.543C94.6523 127.762 94.4979 127.962 94.2788 127.991L94.1756 127.198ZM90.866 128.398C90.6464 128.422 90.4491 128.263 90.4252 128.043C90.4014 127.824 90.5601 127.626 90.7797 127.603L90.866 128.398ZM87.3745 127.936C87.5946 127.917 87.7886 128.08 87.8079 128.3C87.8272 128.52 87.6644 128.714 87.4444 128.733L87.3745 127.936ZM84.0161 128.999C83.7957 129.014 83.605 128.847 83.5901 128.627C83.5753 128.406 83.7419 128.216 83.9623 128.201L84.0161 128.999ZM80.55 128.397C80.7706 128.387 80.9581 128.557 80.9686 128.778C80.9791 128.998 80.8088 129.186 80.5881 129.196L80.55 128.397ZM77.156 129.327C76.9352 129.333 76.7511 129.159 76.7448 128.938C76.7385 128.718 76.9125 128.534 77.1333 128.527L77.156 129.327ZM73.7139 128.592C73.9348 128.59 74.1155 128.767 74.1176 128.988C74.1197 129.209 73.9423 129.39 73.7214 129.392L73.7139 128.592ZM70.2786 129.392C70.0577 129.39 69.8803 129.209 69.8824 128.988C69.8845 128.767 70.0652 128.59 70.2861 128.592L70.2786 129.392ZM66.8667 128.527C67.0875 128.534 67.2615 128.718 67.2552 128.938C67.2489 129.159 67.0648 129.333 66.844 129.327L66.8667 128.527ZM63.4119 129.196C63.1912 129.186 63.0209 128.998 63.0314 128.778C63.0419 128.557 63.2293 128.387 63.45 128.397L63.4119 129.196ZM60.0377 128.201C60.2581 128.216 60.4247 128.406 60.4099 128.627C60.395 128.847 60.2043 129.014 59.9839 128.999L60.0377 128.201ZM56.5556 128.733C56.3356 128.714 56.1728 128.52 56.1921 128.3C56.2114 128.08 56.4054 127.917 56.6255 127.936L56.5556 128.733ZM53.2203 127.603C53.4399 127.626 53.5986 127.824 53.5748 128.043C53.5509 128.263 53.3536 128.422 53.134 128.398L53.2203 127.603ZM49.7212 127.991C49.5021 127.962 49.3477 127.762 49.3762 127.543C49.4047 127.324 49.6054 127.169 49.8244 127.198L49.7212 127.991ZM46.4406 126.719C46.659 126.753 46.809 126.957 46.7757 127.175C46.7423 127.394 46.5383 127.544 46.3199 127.51L46.4406 126.719ZM42.9301 126.953C42.7125 126.915 42.5673 126.707 42.6056 126.49C42.644 126.272 42.8515 126.127 43.069 126.165L42.9301 126.953ZM39.7062 125.53C39.9228 125.574 40.063 125.785 40.0194 126.002C39.9757 126.218 39.7648 126.358 39.5482 126.315L39.7062 125.53ZM36.1866 125.593C35.9712 125.544 35.8365 125.329 35.8856 125.114C35.9348 124.899 36.1492 124.764 36.3646 124.813L36.1866 125.593ZM33.0487 124.009C33.2627 124.064 33.3915 124.282 33.3365 124.496C33.2815 124.71 33.0635 124.839 32.8495 124.784L33.0487 124.009ZM29.5252 123.878C29.3129 123.816 29.1906 123.595 29.2518 123.382C29.3131 123.17 29.5348 123.048 29.7471 123.109L29.5252 123.878ZM26.4836 122.111C26.6937 122.179 26.809 122.405 26.741 122.615C26.673 122.825 26.4474 122.94 26.2373 122.872L26.4836 122.111ZM22.9793 121.755C22.7717 121.68 22.6644 121.451 22.7397 121.243C22.8151 121.035 23.0445 120.928 23.2522 121.003L22.9793 121.755ZM20.0693 119.779C20.2739 119.862 20.3721 120.096 20.2887 120.3C20.2053 120.505 19.9719 120.603 19.7673 120.52L20.0693 119.779ZM16.6026 119.149C16.4019 119.057 16.3141 118.819 16.4065 118.618C16.4989 118.418 16.7364 118.33 16.9371 118.422L16.6026 119.149ZM13.8822 116.923C14.0779 117.026 14.1535 117.267 14.051 117.463C13.9486 117.659 13.7069 117.734 13.5112 117.632L13.8822 116.923ZM10.5004 115.943C10.3112 115.829 10.2502 115.583 10.3641 115.394C10.4781 115.204 10.7239 115.143 10.9132 115.257L10.5004 115.943ZM8.06268 113.402C8.24322 113.53 8.28638 113.779 8.15907 113.96C8.03175 114.14 7.7822 114.183 7.60165 114.056L8.06268 113.402ZM4.85988 111.941C4.69136 111.798 4.67056 111.546 4.8134 111.377C4.95625 111.209 5.20865 111.188 5.37717 111.331L4.85988 111.941ZM2.92143 109.01C3.07281 109.171 3.06509 109.424 2.90419 109.576C2.74329 109.727 2.49014 109.719 2.33876 109.558L2.92143 109.01ZM142.809 108.254C142.449 108.693 142.066 109.128 141.661 109.558L141.079 109.01C141.471 108.593 141.842 108.172 142.191 107.746L142.809 108.254ZM139.14 111.941C138.289 112.663 137.374 113.368 136.398 114.056L135.937 113.402C136.895 112.727 137.791 112.036 138.623 111.331L139.14 111.941ZM133.5 115.943C132.54 116.521 131.536 117.084 130.489 117.632L130.118 116.923C131.152 116.382 132.142 115.827 133.087 115.257L133.5 115.943ZM127.397 119.149C126.376 119.619 125.32 120.077 124.233 120.52L123.931 119.779C125.008 119.34 126.052 118.888 127.063 118.422L127.397 119.149ZM121.021 121.755C119.96 122.14 118.874 122.513 117.763 122.872L117.516 122.111C118.619 121.754 119.697 121.385 120.748 121.003L121.021 121.755ZM114.475 123.878C113.387 124.192 112.279 124.494 111.15 124.784L110.951 124.009C112.072 123.721 113.173 123.421 114.253 123.109L114.475 123.878ZM107.813 125.593C106.709 125.845 105.589 126.086 104.452 126.315L104.294 125.53C105.424 125.303 106.538 125.064 107.635 124.813L107.813 125.593ZM101.07 126.953C99.9535 127.15 98.8233 127.336 97.6801 127.51L97.5594 126.719C98.6966 126.546 99.8207 126.361 100.931 126.165L101.07 126.953ZM94.2788 127.991C93.1524 128.137 92.0146 128.273 90.866 128.398L90.7797 127.603C91.9227 127.479 93.0548 127.343 94.1756 127.198L94.2788 127.991ZM87.4444 128.733C86.3108 128.833 85.1679 128.921 84.0161 128.999L83.9623 128.201C85.1087 128.124 86.2463 128.035 87.3745 127.936L87.4444 128.733ZM80.5881 129.196C79.4516 129.251 78.3074 129.294 77.156 129.327L77.1333 128.527C78.2795 128.495 79.4186 128.451 80.55 128.397L80.5881 129.196ZM73.7214 129.392C73.1492 129.397 72.5753 129.4 72 129.4L72 128.6C72.5728 128.6 73.1441 128.597 73.7139 128.592L73.7214 129.392ZM72 129.4C71.4247 129.4 70.8508 129.397 70.2786 129.392L70.2861 128.592C70.8559 128.597 71.4272 128.6 72 128.6L72 129.4ZM66.844 129.327C65.6926 129.294 64.5484 129.251 63.4119 129.196L63.45 128.397C64.5814 128.451 65.7205 128.495 66.8667 128.527L66.844 129.327ZM59.9839 128.999C58.8321 128.921 57.6892 128.833 56.5556 128.733L56.6255 127.936C57.7537 128.035 58.8913 128.124 60.0377 128.201L59.9839 128.999ZM53.134 128.398C51.9854 128.273 50.8476 128.137 49.7212 127.991L49.8244 127.198C50.9452 127.343 52.0773 127.479 53.2203 127.603L53.134 128.398ZM46.3199 127.51C45.1767 127.336 44.0465 127.15 42.9301 126.953L43.069 126.165C44.1793 126.361 45.3034 126.546 46.4406 126.719L46.3199 127.51ZM39.5482 126.315C38.4115 126.086 37.2906 125.845 36.1866 125.593L36.3646 124.813C37.4618 125.064 38.576 125.303 39.7062 125.53L39.5482 126.315ZM32.8495 124.784C31.7213 124.494 30.6128 124.192 29.5252 123.878L29.7471 123.109C30.827 123.421 31.9279 123.721 33.0487 124.009L32.8495 124.784ZM26.2373 122.872C25.1261 122.513 24.0397 122.14 22.9793 121.755L23.2522 121.003C24.3035 121.385 25.381 121.754 26.4836 122.111L26.2373 122.872ZM19.7673 120.52C18.6799 120.077 17.6245 119.619 16.6026 119.149L16.9371 118.422C17.9478 118.888 18.9924 119.34 20.0693 119.779L19.7673 120.52ZM13.5112 117.632C12.4642 117.084 11.4598 116.521 10.5004 115.943L10.9132 115.257C11.8581 115.827 12.8485 116.382 13.8822 116.923L13.5112 117.632ZM7.60165 114.056C6.62645 113.368 5.71139 112.663 4.85988 111.941L5.37717 111.331C6.20921 112.036 7.10533 112.727 8.06268 113.402L7.60165 114.056ZM2.33876 109.558C1.93425 109.128 1.55133 108.693 1.19069 108.254L1.80934 107.746C2.15793 108.172 2.52878 108.593 2.92143 109.01L2.33876 109.558Z" fill="#1AD079"/>
</svg>
