<svg width="312" height="282" viewBox="0 0 312 282" fill="none" xmlns="http://www.w3.org/2000/svg">
<g clip-path="url(#clip0_905_20061)">
<path d="M0 10C0 4.47716 4.47715 0 10 0H302C307.523 0 312 4.47715 312 10V272C312 277.523 307.523 282 302 282H9.99999C4.47715 282 0 277.523 0 272V10Z" fill="#141F45"/>
<g opacity="0.4">
<path d="M174.372 62H136.572C135.01 62 133.51 62.6092 132.39 63.6982L123.11 72.7209H103.036H83.219C81.6239 72.7209 80.0944 73.356 78.9686 74.486L71.7951 81.6857C70.6746 82.8103 70.0455 84.3331 70.0455 85.9206V94.1626H60.0312H51.1735C49.5784 94.1626 48.049 94.7978 46.9231 95.9277L39.7496 103.127C38.6291 104.252 38 105.775 38 107.362V114.634C38 115.277 38.1033 115.915 38.3058 116.525L43.3409 131.686L39.7496 135.29C38.6291 136.415 38 137.937 38 139.525V156.009C38 157.596 38.6291 159.119 39.7496 160.244L48.6818 169.209L57.605 178.164C58.7308 179.294 60.2602 179.93 61.8553 179.93H78.2356C79.8307 179.93 81.3601 180.565 82.486 181.695L89.6504 188.885C90.7762 190.015 92.3057 190.65 93.9008 190.65H102.091L111.014 199.606C112.14 200.736 113.669 201.371 115.264 201.371L144.818 201.371L153.741 210.327C154.867 211.457 156.397 212.092 157.992 212.092H176.864H187.545L196.469 221.048C197.594 222.178 199.124 222.813 200.719 222.813H217.302H229.987H238.503C240.102 222.813 241.636 222.174 242.763 221.038L249.896 213.846C251.011 212.723 251.636 211.204 251.636 209.621V191.32C251.636 189.537 252.446 187.851 253.836 186.735L262.318 179.93L271.112 171.656C272.317 170.522 273 168.94 273 167.286V139.525C273 137.937 272.371 136.415 271.25 135.29L264.077 128.09C262.951 126.96 261.422 126.325 259.826 126.325H251.636V107.362C251.636 105.775 251.007 104.252 249.887 103.127L221.35 74.486C220.224 73.356 218.694 72.7209 217.099 72.7209H198.227H187.545L178.622 63.7651C177.496 62.6351 175.967 62 174.372 62Z" fill="url(#paint0_angular_905_20061)" fill-opacity="0.6"/>
<path d="M174.372 62H136.572C135.01 62 133.51 62.6092 132.39 63.6982L123.11 72.7209H103.036H83.219C81.6239 72.7209 80.0944 73.356 78.9686 74.486L71.7951 81.6857C70.6746 82.8103 70.0455 84.3331 70.0455 85.9206V94.1626H60.0312H51.1735C49.5784 94.1626 48.049 94.7978 46.9231 95.9277L39.7496 103.127C38.6291 104.252 38 105.775 38 107.362V114.634C38 115.277 38.1033 115.915 38.3058 116.525L43.3409 131.686L39.7496 135.29C38.6291 136.415 38 137.937 38 139.525V156.009C38 157.596 38.6291 159.119 39.7496 160.244L48.6818 169.209L57.605 178.164C58.7308 179.294 60.2602 179.93 61.8553 179.93H78.2356C79.8307 179.93 81.3601 180.565 82.486 181.695L89.6504 188.885C90.7762 190.015 92.3057 190.65 93.9008 190.65H102.091L111.014 199.606C112.14 200.736 113.669 201.371 115.264 201.371L144.818 201.371L153.741 210.327C154.867 211.457 156.397 212.092 157.992 212.092H176.864H187.545L196.469 221.048C197.594 222.178 199.124 222.813 200.719 222.813H217.302H229.987H238.503C240.102 222.813 241.636 222.174 242.763 221.038L249.896 213.846C251.011 212.723 251.636 211.204 251.636 209.621V191.32C251.636 189.537 252.446 187.851 253.836 186.735L262.318 179.93L271.112 171.656C272.317 170.522 273 168.94 273 167.286V139.525C273 137.937 272.371 136.415 271.25 135.29L264.077 128.09C262.951 126.96 261.422 126.325 259.826 126.325H251.636V107.362C251.636 105.775 251.007 104.252 249.887 103.127L221.35 74.486C220.224 73.356 218.694 72.7209 217.099 72.7209H198.227H187.545L178.622 63.7651C177.496 62.6351 175.967 62 174.372 62Z" fill="url(#paint1_linear_905_20061)" fill-opacity="0.2"/>
<path d="M174.372 62H136.572C135.01 62 133.51 62.6092 132.39 63.6982L123.11 72.7209H103.036H83.219C81.6239 72.7209 80.0944 73.356 78.9686 74.486L71.7951 81.6857C70.6746 82.8103 70.0455 84.3331 70.0455 85.9206V94.1626H60.0312H51.1735C49.5784 94.1626 48.049 94.7978 46.9231 95.9277L39.7496 103.127C38.6291 104.252 38 105.775 38 107.362V114.634C38 115.277 38.1033 115.915 38.3058 116.525L43.3409 131.686L39.7496 135.29C38.6291 136.415 38 137.937 38 139.525V156.009C38 157.596 38.6291 159.119 39.7496 160.244L48.6818 169.209L57.605 178.164C58.7308 179.294 60.2602 179.93 61.8553 179.93H78.2356C79.8307 179.93 81.3601 180.565 82.486 181.695L89.6504 188.885C90.7762 190.015 92.3057 190.65 93.9008 190.65H102.091L111.014 199.606C112.14 200.736 113.669 201.371 115.264 201.371L144.818 201.371L153.741 210.327C154.867 211.457 156.397 212.092 157.992 212.092H176.864H187.545L196.469 221.048C197.594 222.178 199.124 222.813 200.719 222.813H217.302H229.987H238.503C240.102 222.813 241.636 222.174 242.763 221.038L249.896 213.846C251.011 212.723 251.636 211.204 251.636 209.621V191.32C251.636 189.537 252.446 187.851 253.836 186.735L262.318 179.93L271.112 171.656C272.317 170.522 273 168.94 273 167.286V139.525C273 137.937 272.371 136.415 271.25 135.29L264.077 128.09C262.951 126.96 261.422 126.325 259.826 126.325H251.636V107.362C251.636 105.775 251.007 104.252 249.887 103.127L221.35 74.486C220.224 73.356 218.694 72.7209 217.099 72.7209H198.227H187.545L178.622 63.7651C177.496 62.6351 175.967 62 174.372 62Z" fill="url(#paint2_linear_905_20061)"/>
</g>
<g filter="url(#filter0_f_905_20061)">
<path d="M34.4 116H53.7154L56 121.312V127.156H46.4L41.6 133L34 131.406L34.4 116Z" fill="url(#paint3_linear_905_20061)"/>
</g>
<g filter="url(#filter1_f_905_20061)">
<path d="M246 116V126H249.379H253V116H247.328H246Z" fill="url(#paint4_linear_905_20061)"/>
</g>
<g filter="url(#filter2_f_905_20061)">
<path d="M259.444 177.139L248.421 184.818L250.352 187.591L252.422 190.562L263.445 182.883L260.203 178.228L259.444 177.139Z" fill="url(#paint5_linear_905_20061)"/>
</g>
<path d="M187.957 82L198 82L198 75.7241L198 69L187 69L187.957 79.5345L187.957 82Z" fill="url(#paint6_linear_905_20061)"/>
<path d="M111.191 82.5172L102 97L102.511 77.2069L103.021 69L126 69.4828L113.745 81.069L111.191 82.5172Z" fill="url(#paint7_linear_905_20061)"/>
<path d="M48.5 140L38 140L38 154L38 169L48.5 169L48.5 145.5L48.5 140Z" fill="url(#paint8_linear_905_20061)"/>
<path d="M241 211L219 211L219 221.621L219 233L241 233L241 215.172L241 211Z" fill="url(#paint9_linear_905_20061)"/>
<path d="M102 182L93 182L93 189.241L93 197L102 197L102 184.845L102 182Z" fill="url(#paint10_linear_905_20061)"/>
<path d="M60 107L70 107L70 95.4138L70 83L60 83L60 102.448L60 107Z" fill="url(#paint11_linear_905_20061)"/>
<path d="M134 191L129.5 194L124 200L124 204L147 204L134 191Z" fill="url(#paint12_linear_905_20061)"/>
<path d="M110.639 82.7717C110.639 83.9499 111.595 84.905 112.773 84.905C113.951 84.905 114.906 83.9499 114.906 82.7717C114.906 81.5935 113.951 80.6383 112.773 80.6383C111.595 80.6383 110.639 81.5935 110.639 82.7717ZM196.094 72.7209C196.094 73.8991 197.049 74.8542 198.227 74.8542C199.405 74.8542 200.361 73.8991 200.361 72.7209C200.361 71.5427 199.405 70.5875 198.227 70.5875C197.049 70.5875 196.094 71.5427 196.094 72.7209ZM249.503 115.604C249.503 116.783 250.458 117.738 251.636 117.738C252.815 117.738 253.77 116.783 253.77 115.604C253.77 114.426 252.815 113.471 251.636 113.471C250.458 113.471 249.503 114.426 249.503 115.604ZM238.821 126.325C238.821 127.503 239.776 128.459 240.955 128.459C242.133 128.459 243.088 127.503 243.088 126.325C243.088 125.147 242.133 124.192 240.955 124.192C239.776 124.192 238.821 125.147 238.821 126.325ZM260.185 179.93C260.185 181.108 261.14 182.063 262.318 182.063C263.496 182.063 264.452 181.108 264.452 179.93C264.452 178.751 263.496 177.796 262.318 177.796C261.14 177.796 260.185 178.751 260.185 179.93ZM249.503 191.32C249.503 192.499 250.458 193.454 251.636 193.454C252.815 193.454 253.77 192.499 253.77 191.32C253.77 190.142 252.815 189.187 251.636 189.187C250.458 189.187 249.503 190.142 249.503 191.32ZM238.869 222.813C238.869 223.991 239.824 224.946 241.002 224.946C242.18 224.946 243.136 223.991 243.136 222.813C243.136 221.635 242.18 220.68 241.002 220.68C239.824 220.68 238.869 221.635 238.869 222.813ZM206.776 179.93C206.776 181.108 207.731 182.063 208.909 182.063C210.087 182.063 211.042 181.108 211.042 179.93C211.042 178.751 210.087 177.796 208.909 177.796C207.731 177.796 206.776 178.751 206.776 179.93ZM217.458 169.209C217.458 170.387 218.413 171.342 219.591 171.342C220.769 171.342 221.724 170.387 221.724 169.209C221.724 168.03 220.769 167.075 219.591 167.075C218.413 167.075 217.458 168.03 217.458 169.209ZM228.139 179.93C228.139 181.108 229.095 182.063 230.273 182.063C231.451 182.063 232.406 181.108 232.406 179.93C232.406 178.751 231.451 177.796 230.273 177.796C229.095 177.796 228.139 178.751 228.139 179.93ZM215.169 222.813C215.169 223.991 216.124 224.946 217.302 224.946C218.48 224.946 219.435 223.991 219.435 222.813C219.435 221.635 218.48 220.68 217.302 220.68C216.124 220.68 215.169 221.635 215.169 222.813ZM185.412 190.65C185.412 191.829 186.367 192.784 187.545 192.784C188.724 192.784 189.679 191.829 189.679 190.65C189.679 189.472 188.724 188.517 187.545 188.517C186.367 188.517 185.412 189.472 185.412 190.65ZM132.003 190.65C132.003 191.829 132.958 192.784 134.136 192.784C135.315 192.784 136.27 191.829 136.27 190.65C136.27 189.472 135.315 188.517 134.136 188.517C132.958 188.517 132.003 189.472 132.003 190.65ZM121.35 201.371C121.35 202.549 122.305 203.505 123.483 203.505C124.661 203.505 125.617 202.549 125.617 201.371C125.617 200.193 124.661 199.238 123.483 199.238C122.305 199.238 121.35 200.193 121.35 201.371ZM100.902 72.7209C100.902 73.8991 101.857 74.8542 103.036 74.8542C104.214 74.8542 105.169 73.8991 105.169 72.7209C105.169 71.5427 104.214 70.5875 103.036 70.5875C101.857 70.5875 100.902 71.5427 100.902 72.7209ZM67.9121 104.883C67.9121 106.062 68.8672 107.017 70.0455 107.017C71.2237 107.017 72.1788 106.062 72.1788 104.883C72.1788 103.705 71.2237 102.75 70.0455 102.75C68.8672 102.75 67.9121 103.705 67.9121 104.883ZM57.8979 94.1626C57.8979 95.3408 58.853 96.2959 60.0312 96.2959C61.2095 96.2959 62.1646 95.3408 62.1646 94.1626C62.1646 92.9844 61.2095 92.0293 60.0312 92.0293C58.853 92.0293 57.8979 92.9844 57.8979 94.1626ZM35.8667 115.604C35.8667 116.783 36.8218 117.738 38 117.738C39.1782 117.738 40.1333 116.783 40.1333 115.604C40.1333 114.426 39.1782 113.471 38 113.471C36.8218 113.471 35.8667 114.426 35.8667 115.604ZM35.8667 158.488C35.8667 159.666 36.8218 160.621 38 160.621C39.1782 160.621 40.1333 159.666 40.1333 158.488C40.1333 157.31 39.1782 156.354 38 156.354C36.8218 156.354 35.8667 157.31 35.8667 158.488ZM78.5939 126.325C78.5939 127.503 79.5491 128.459 80.7273 128.459C81.9055 128.459 82.8606 127.503 82.8606 126.325C82.8606 125.147 81.9055 124.192 80.7273 124.192C79.5491 124.192 78.5939 125.147 78.5939 126.325ZM46.5485 147.767C46.5485 148.945 47.5036 149.9 48.6818 149.9C49.86 149.9 50.8152 148.945 50.8152 147.767C50.8152 146.589 49.86 145.634 48.6818 145.634C47.5036 145.634 46.5485 146.589 46.5485 147.767ZM89.2758 190.65C89.2758 191.829 90.2309 192.784 91.4091 192.784C92.5873 192.784 93.5424 191.829 93.5424 190.65C93.5424 189.472 92.5873 188.517 91.4091 188.517C90.2309 188.517 89.2758 189.472 89.2758 190.65ZM67.9121 158.488C67.9121 159.666 68.8672 160.621 70.0455 160.621C71.2237 160.621 72.1788 159.666 72.1788 158.488C72.1788 157.31 71.2237 156.354 70.0455 156.354C68.8672 156.354 67.9121 157.31 67.9121 158.488ZM67.9121 137.046C67.9121 138.224 68.8672 139.179 70.0455 139.179C71.2237 139.179 72.1788 138.224 72.1788 137.046C72.1788 135.868 71.2237 134.913 70.0455 134.913C68.8672 134.913 67.9121 135.868 67.9121 137.046ZM132.003 147.767C132.003 148.945 132.958 149.9 134.136 149.9C135.315 149.9 136.27 148.945 136.27 147.767C136.27 146.589 135.315 145.634 134.136 145.634C132.958 145.634 132.003 146.589 132.003 147.767ZM57.8979 115.604C57.8979 116.783 58.853 117.738 60.0312 117.738C61.2095 117.738 62.1646 116.783 62.1646 115.604C62.1646 114.426 61.2095 113.471 60.0312 113.471C58.853 113.471 57.8979 114.426 57.8979 115.604ZM89.2758 83.4417C89.2758 84.6199 90.2309 85.5751 91.4091 85.5751C92.5873 85.5751 93.5424 84.6199 93.5424 83.4417C93.5424 82.2635 92.5873 81.3084 91.4091 81.3084C90.2309 81.3084 89.2758 82.2635 89.2758 83.4417ZM99.9576 115.604C99.9576 116.783 100.913 117.738 102.091 117.738C103.269 117.738 104.224 116.783 104.224 115.604C104.224 114.426 103.269 113.471 102.091 113.471C100.913 113.471 99.9576 114.426 99.9576 115.604ZM132.003 83.4417C132.003 84.6199 132.958 85.5751 134.136 85.5751C135.315 85.5751 136.27 84.6199 136.27 83.4417C136.27 82.2635 135.315 81.3084 134.136 81.3084C132.958 81.3084 132.003 82.2635 132.003 83.4417ZM142.685 115.604C142.685 116.783 143.64 117.738 144.818 117.738C145.996 117.738 146.952 116.783 146.952 115.604C146.952 114.426 145.996 113.471 144.818 113.471C143.64 113.471 142.685 114.426 142.685 115.604ZM153.367 72.7209C153.367 73.8991 154.322 74.8542 155.5 74.8542C156.678 74.8542 157.633 73.8991 157.633 72.7209C157.633 71.5427 156.678 70.5875 155.5 70.5875C154.322 70.5875 153.367 71.5427 153.367 72.7209ZM153.367 137.046C153.367 138.224 154.322 139.179 155.5 139.179C156.678 139.179 157.633 138.224 157.633 137.046C157.633 135.868 156.678 134.913 155.5 134.913C154.322 134.913 153.367 135.868 153.367 137.046ZM174.063 82.7717C174.063 83.9499 175.018 84.905 176.196 84.905C177.374 84.905 178.329 83.9499 178.329 82.7717C178.329 81.5935 177.374 80.6383 176.196 80.6383C175.018 80.6383 174.063 81.5935 174.063 82.7717ZM164.048 115.604C164.048 116.783 165.004 117.738 166.182 117.738C167.36 117.738 168.315 116.783 168.315 115.604C168.315 114.426 167.36 113.471 166.182 113.471C165.004 113.471 164.048 114.426 164.048 115.604ZM196.094 94.1626C196.094 95.3408 197.049 96.2959 198.227 96.2959C199.405 96.2959 200.361 95.3408 200.361 94.1626C200.361 92.9844 199.405 92.0293 198.227 92.0293C197.049 92.0293 196.094 92.9844 196.094 94.1626ZM196.094 126.325C196.094 127.503 197.049 128.459 198.227 128.459C199.405 128.459 200.361 127.503 200.361 126.325C200.361 125.147 199.405 124.192 198.227 124.192C197.049 124.192 196.094 125.147 196.094 126.325ZM174.73 137.046C174.73 138.224 175.685 139.179 176.864 139.179C178.042 139.179 178.997 138.224 178.997 137.046C178.997 135.868 178.042 134.913 176.864 134.913C175.685 134.913 174.73 135.868 174.73 137.046ZM174.776 147.767C174.776 148.945 175.731 149.9 176.909 149.9C178.087 149.9 179.042 148.945 179.042 147.767C179.042 146.589 178.087 145.634 176.909 145.634C175.731 145.634 174.776 146.589 174.776 147.767ZM249.503 147.767C249.503 148.945 250.458 149.9 251.636 149.9C252.815 149.9 253.77 148.945 253.77 147.767C253.77 146.589 252.815 145.634 251.636 145.634C250.458 145.634 249.503 146.589 249.503 147.767ZM249.503 169.209C249.503 170.387 250.458 171.342 251.636 171.342C252.815 171.342 253.77 170.387 253.77 169.209C253.77 168.03 252.815 167.075 251.636 167.075C250.458 167.075 249.503 168.03 249.503 169.209ZM196.094 169.209C196.094 170.387 197.049 171.342 198.227 171.342C199.405 171.342 200.361 170.387 200.361 169.209C200.361 168.03 199.405 167.075 198.227 167.075C197.049 167.075 196.094 168.03 196.094 169.209ZM174.73 158.488C174.73 159.666 175.685 160.621 176.864 160.621C178.042 160.621 178.997 159.666 178.997 158.488C178.997 157.31 178.042 156.354 176.864 156.354C175.685 156.354 174.73 157.31 174.73 158.488ZM206.776 201.371C206.776 202.549 207.731 203.505 208.909 203.505C210.087 203.505 211.042 202.549 211.042 201.371C211.042 200.193 210.087 199.238 208.909 199.238C207.731 199.238 206.776 200.193 206.776 201.371ZM121.35 179.93C121.35 181.108 122.305 182.063 123.483 182.063C124.661 182.063 125.617 181.108 125.617 179.93C125.617 178.751 124.661 177.796 123.483 177.796C122.305 177.796 121.35 178.751 121.35 179.93ZM134.639 166.5C134.639 167.678 135.595 168.633 136.773 168.633C137.951 168.633 138.906 167.678 138.906 166.5C138.906 165.322 137.951 164.367 136.773 164.367C135.595 164.367 134.639 165.322 134.639 166.5ZM153.367 158.488C153.367 159.666 154.322 160.621 155.5 160.621C156.678 160.621 157.633 159.666 157.633 158.488C157.633 157.31 156.678 156.354 155.5 156.354C154.322 156.354 153.367 157.31 153.367 158.488ZM110.639 104.883C110.639 106.062 111.595 107.017 112.773 107.017C113.951 107.017 114.906 106.062 114.906 104.883C114.906 103.705 113.951 102.75 112.773 102.75C111.595 102.75 110.639 103.705 110.639 104.883ZM99.9576 158.488C99.9576 159.666 100.913 160.621 102.091 160.621C103.269 160.621 104.224 159.666 104.224 158.488C104.224 157.31 103.269 156.354 102.091 156.354C100.913 156.354 99.9576 157.31 99.9576 158.488ZM217.458 94.1626C217.458 95.3408 218.413 96.2959 219.591 96.2959C220.769 96.2959 221.724 95.3408 221.724 94.1626C221.724 92.9844 220.769 92.0293 219.591 92.0293C218.413 92.0293 217.458 92.9844 217.458 94.1626ZM174.73 212.092C174.73 213.27 175.685 214.225 176.864 214.225C178.042 214.225 178.997 213.27 178.997 212.092C178.997 210.914 178.042 209.959 176.864 209.959C175.685 209.959 174.73 210.914 174.73 212.092ZM164.048 190.65C164.048 191.829 165.004 192.784 166.182 192.784C167.36 192.784 168.315 191.829 168.315 190.65C168.315 189.472 167.36 188.517 166.182 188.517C165.004 188.517 164.048 189.472 164.048 190.65ZM134.639 137.046C134.639 138.224 135.595 139.179 136.773 139.179C137.951 139.179 138.906 138.224 138.906 137.046C138.906 135.868 137.951 134.913 136.773 134.913C135.595 134.913 134.639 135.868 134.639 137.046ZM132.003 126.325C132.003 127.503 132.958 128.459 134.136 128.459C135.315 128.459 136.27 127.503 136.27 126.325C136.27 125.147 135.315 124.192 134.136 124.192C132.958 124.192 132.003 125.147 132.003 126.325ZM227.853 234C227.853 235.178 228.808 236.133 229.987 236.133C231.165 236.133 232.12 235.178 232.12 234C232.12 232.822 231.165 231.867 229.987 231.867C228.808 231.867 227.853 232.822 227.853 234ZM170.867 121.5C170.867 122.678 171.822 123.633 173 123.633C174.178 123.633 175.133 122.678 175.133 121.5C175.133 120.322 174.178 119.367 173 119.367C171.822 119.367 170.867 120.322 170.867 121.5ZM130.367 164.715C130.367 165.893 131.322 166.848 132.5 166.848C133.678 166.848 134.633 165.893 134.633 164.715C134.633 163.537 133.678 162.581 132.5 162.581C131.322 162.581 130.367 163.537 130.367 164.715ZM115.794 166.439L115.513 166.154L115.794 166.439ZM153.741 210.327L153.458 210.609L153.741 210.327ZM157.25 181.686L156.966 181.968L157.25 181.686ZM207.15 160.253L207.434 160.535L207.15 160.253ZM228.523 128.081L228.806 128.364L228.523 128.081ZM228.523 103.127L228.24 103.41L228.523 103.127ZM167.676 92.4634L167.976 92.7275L167.676 92.4634ZM135.886 106.639L136.169 106.357L135.886 106.639ZM93.1587 106.639L93.4421 106.357L93.1587 106.639ZM82.486 117.369L82.7693 117.087L82.486 117.369ZM93.1678 167.444L93.4511 167.726L93.1678 167.444ZM78.9686 167.444L78.6852 167.726L78.9686 167.444ZM271.25 135.29L271.534 135.008L271.25 135.29ZM50.4314 170.965L50.1481 171.247L50.4314 170.965ZM46.9231 128.09L47.2065 128.373L46.9231 128.09ZM196.478 178.174L196.194 178.456L196.478 178.174ZM82.486 181.695L82.2026 181.977L82.486 181.695ZM207.159 103.127L206.876 103.41L207.159 103.127ZM199.977 192.406L200.26 192.124L199.977 192.406ZM39.7496 103.127L40.033 103.41L39.7496 103.127ZM271.112 171.656L270.838 171.364L271.112 171.656ZM207.159 117.36L206.876 117.078L207.159 117.36ZM189.295 213.848L189.012 214.13L189.295 213.848ZM264.077 128.09L264.36 127.808L264.077 128.09ZM242.713 160.253L242.43 160.535L242.713 160.253ZM71.7951 81.6857L71.5117 81.4034L71.7951 81.6857ZM249.887 103.127L250.17 102.845L249.887 103.127ZM103.882 178.167L104.162 178.452L103.882 178.167ZM228.265 199.62L228.551 199.34L228.265 199.62ZM100.332 135.281L100.616 134.999L100.332 135.281ZM186.06 106.58L185.759 106.317L186.06 106.58ZM39.7496 135.29L39.4663 135.008L39.7496 135.29ZM249.896 213.846L249.612 213.565L249.896 213.846ZM103.841 192.406L103.557 192.689L103.841 192.406ZM185.796 70.9648L185.512 71.2472L185.796 70.9648ZM221.35 135.281L221.633 135.563L221.35 135.281ZM111.014 199.606L111.297 199.324L111.014 199.606ZM78.9686 146.002L78.6852 146.284L78.9686 146.002ZM78.9686 74.486L78.6852 74.2036L78.9686 74.486ZM221.35 74.486L221.633 74.2036L221.35 74.486ZM132.39 63.6982L132.111 63.4114L132.39 63.6982ZM136.572 62.4H174.372V61.6H136.572V62.4ZM178.339 64.0474L185.512 71.2472L186.079 70.6825L178.906 63.4828L178.339 64.0474ZM187.145 75.1997V102.628H187.945V75.1997H187.145ZM198.227 73.1209H217.099V72.3209H198.227V73.1209ZM221.066 74.7683L249.603 103.41L250.17 102.845L221.633 74.2036L221.066 74.7683ZM251.236 107.362V115.604H252.036V107.362H251.236ZM240.955 126.725H259.826V125.925H240.955V126.725ZM251.236 191.32V209.621H252.036V191.32H251.236ZM249.612 213.565L240.718 222.531L241.286 223.095L250.18 214.128L249.612 213.565ZM219.308 169.491L229.989 180.212L230.556 179.647L219.874 168.926L219.308 169.491ZM217.302 222.413H200.719V223.213H217.302V222.413ZM196.752 220.766L189.578 213.566L189.012 214.13L196.185 221.33L196.752 220.766ZM187.945 209.613V190.65H187.145V209.613H187.945ZM123.483 200.971H115.264V201.771H123.483V200.971ZM111.297 199.324L104.124 192.124L103.557 192.689L110.731 199.888L111.297 199.324ZM102.491 188.172V182.442H101.691V188.172H102.491ZM103.036 72.3209H83.219V73.1209H103.036V72.3209ZM78.6852 74.2036L71.5117 81.4034L72.0784 81.968L79.252 74.7683L78.6852 74.2036ZM69.6455 85.9206V104.883H70.4455V85.9206H69.6455ZM60.0312 93.7626H51.1735V94.5626H60.0312V93.7626ZM46.6398 95.6454L39.4663 102.845L40.033 103.41L47.2065 96.21L46.6398 95.6454ZM37.6 107.362V115.604H38.4V107.362H37.6ZM38.4 158.488V139.525H37.6V158.488H38.4ZM40.033 135.572L47.2065 128.373L46.6398 127.808L39.4663 135.008L40.033 135.572ZM51.1735 126.725H80.7273V125.925H51.1735V126.725ZM48.2818 147.767V166.73H49.0818V147.767H48.2818ZM50.1481 171.247L57.3216 178.447L57.8883 177.882L50.7148 170.682L50.1481 171.247ZM61.8553 180.33H78.2356V179.53H61.8553V180.33ZM82.2026 181.977L91.1257 190.933L91.6924 190.368L82.7693 181.412L82.2026 181.977ZM69.7621 158.77L78.6852 167.726L79.252 167.161L70.3288 158.205L69.7621 158.77ZM83.219 169.609H88.9174V168.809H83.219V169.609ZM69.7621 137.328L78.6852 146.284L79.252 145.72L70.3288 136.764L69.7621 137.328ZM83.219 148.167H134.136V147.367H83.219V148.167ZM100.616 134.999L82.7693 117.087L82.2026 117.652L100.049 135.563L100.616 134.999ZM78.2356 115.204H60.0312V116.004H78.2356V115.204ZM91.0091 83.4417V94.1626H91.8091V83.4417H91.0091ZM91.0091 94.1626V102.405H91.8091V94.1626H91.0091ZM92.8754 106.922L101.808 115.887L102.374 115.322L93.4421 106.357L92.8754 106.922ZM133.736 83.4417V102.405H134.536V83.4417H133.736ZM135.603 106.922L144.535 115.887L145.102 115.322L136.169 106.357L135.603 106.922ZM155.1 72.7209V137.046H155.9V72.7209H155.1ZM175.896 82.5076L167.375 92.1993L167.976 92.7275L176.496 83.0358L175.896 82.5076ZM165.782 96.425V115.604H166.582V96.425H165.782ZM197.944 94.4449L206.876 103.41L207.443 102.845L198.511 93.8803L197.944 94.4449ZM208.509 107.362V113.125H209.309V107.362H208.509ZM206.876 117.078L197.944 126.043L198.511 126.608L207.443 117.643L206.876 117.078ZM229.873 107.362V123.846H230.673V107.362H229.873ZM228.24 127.799L221.066 134.999L221.633 135.563L228.806 128.364L228.24 127.799ZM217.099 136.646H176.864V137.446H217.099V136.646ZM176.909 148.167H251.636V147.367H176.909V148.167ZM251.92 168.926L242.997 159.971L242.43 160.535L251.353 169.491L251.92 168.926ZM238.463 158.088H211.401V158.888H238.463V158.088ZM206.867 159.971L197.944 168.926L198.511 169.491L207.434 160.535L206.867 159.971ZM199.694 192.689L208.626 201.654L209.192 201.089L200.26 192.124L199.694 192.689ZM123.768 180.211L137.057 166.781L136.488 166.219L123.199 179.648L123.768 180.211ZM155.1 158.488V177.451H155.9V158.488H155.1ZM112.373 104.883V120.325H113.173V104.883H112.373ZM263.794 128.373L270.967 135.572L271.534 135.008L264.36 127.808L263.794 128.373ZM272.6 139.525V167.286H273.4V139.525H272.6ZM270.838 171.364L262.044 179.638L262.592 180.221L271.386 171.947L270.838 171.364ZM176.58 158.77L196.194 178.456L196.761 177.891L177.147 158.205L176.58 158.77ZM197.827 182.408V188.172H198.627V182.408H197.827ZM113.052 83.0585L132.669 63.985L132.111 63.4114L112.494 82.4849L113.052 83.0585ZM93.4511 167.726L102.374 158.77L101.808 158.205L92.8844 167.161L93.4511 167.726ZM154.025 210.045L134.42 190.368L133.853 190.933L153.458 210.609L154.025 210.045ZM228.806 102.845L219.874 93.8803L219.308 94.4449L228.24 103.41L228.806 102.845ZM157.992 212.492H176.864V211.692H157.992V212.492ZM156.966 181.968L165.898 190.933L166.465 190.368L157.533 181.403L156.966 181.968ZM104.583 137.446H136.773V136.646H104.583V137.446ZM118.773 126.725H134.136V125.925H118.773V126.725ZM229.587 203.826V234H230.387V203.826H229.587ZM228.551 199.34L209.194 179.649L208.624 180.21L227.98 199.901L228.551 199.34ZM185.759 106.317L172.699 121.237L173.301 121.763L186.361 106.844L185.759 106.317ZM104.162 178.452L116.075 166.724L115.513 166.154L103.601 177.882L104.162 178.452ZM120.003 165.115H132.5V164.315H120.003V165.115ZM116.075 166.724C117.122 165.693 118.533 165.115 120.003 165.115V164.315C118.323 164.315 116.711 164.975 115.513 166.154L116.075 166.724ZM153.458 210.609C154.659 211.815 156.29 212.492 157.992 212.492V211.692C156.503 211.692 155.075 211.099 154.025 210.045L153.458 210.609ZM155.1 177.451C155.1 179.144 155.771 180.768 156.966 181.968L157.533 181.403C156.487 180.354 155.9 178.932 155.9 177.451H155.1ZM211.401 158.088C209.699 158.088 208.068 158.765 206.867 159.971L207.434 160.535C208.485 159.481 209.912 158.888 211.401 158.888V158.088ZM229.873 123.846C229.873 125.328 229.286 126.749 228.24 127.799L228.806 128.364C230.002 127.164 230.673 125.54 230.673 123.846H229.873ZM230.673 107.362C230.673 105.669 230.002 104.045 228.806 102.845L228.24 103.41C229.286 104.459 229.873 105.881 229.873 107.362H230.673ZM167.375 92.1993C166.348 93.3675 165.782 94.8696 165.782 96.425H166.582C166.582 95.0641 167.077 93.7497 167.976 92.7275L167.375 92.1993ZM133.736 102.405C133.736 104.098 134.407 105.722 135.603 106.922L136.169 106.357C135.124 105.308 134.536 103.886 134.536 102.405H133.736ZM91.0091 102.405C91.0091 104.098 91.6802 105.722 92.8754 106.922L93.4421 106.357C92.3963 105.308 91.8091 103.886 91.8091 102.405H91.0091ZM82.7693 117.087C81.5684 115.882 79.937 115.204 78.2356 115.204V116.004C79.7243 116.004 81.1518 116.597 82.2026 117.652L82.7693 117.087ZM88.9174 169.609C90.6188 169.609 92.2502 168.931 93.4511 167.726L92.8844 167.161C91.8336 168.216 90.4061 168.809 88.9174 168.809V169.609ZM78.6852 167.726C79.8861 168.931 81.5175 169.609 83.219 169.609V168.809C81.7302 168.809 80.3027 168.216 79.252 167.161L78.6852 167.726ZM270.967 135.572C272.013 136.622 272.6 138.043 272.6 139.525H273.4C273.4 137.832 272.729 136.207 271.534 135.008L270.967 135.572ZM57.3216 178.447C58.5225 179.652 60.1539 180.33 61.8553 180.33V179.53C60.3666 179.53 58.9391 178.937 57.8883 177.882L57.3216 178.447ZM112.373 120.325C112.373 123.86 115.238 126.725 118.773 126.725V125.925C115.68 125.925 113.173 123.418 113.173 120.325H112.373ZM48.2818 166.73C48.2818 168.423 48.9529 170.047 50.1481 171.247L50.7148 170.682C49.669 169.633 49.0818 168.211 49.0818 166.73H48.2818ZM47.2065 128.373C48.2573 127.318 49.6848 126.725 51.1735 126.725V125.925C49.4721 125.925 47.8407 126.603 46.6398 127.808L47.2065 128.373ZM196.194 178.456C197.24 179.505 197.827 180.927 197.827 182.408H198.627C198.627 180.715 197.956 179.091 196.761 177.891L196.194 178.456ZM78.2356 180.33C79.7243 180.33 81.1518 180.922 82.2026 181.977L82.7693 181.412C81.5684 180.207 79.937 179.53 78.2356 179.53V180.33ZM206.876 103.41C207.922 104.459 208.509 105.881 208.509 107.362H209.309C209.309 105.669 208.638 104.045 207.443 102.845L206.876 103.41ZM200.719 222.413C199.23 222.413 197.803 221.82 196.752 220.766L196.185 221.33C197.386 222.536 199.018 223.213 200.719 223.213V222.413ZM200.26 192.124C199.214 191.074 198.627 189.653 198.627 188.172H197.827C197.827 189.865 198.498 191.489 199.694 192.689L200.26 192.124ZM39.4663 102.845C38.2711 104.045 37.6 105.669 37.6 107.362H38.4C38.4 105.881 38.9872 104.459 40.033 103.41L39.4663 102.845ZM272.6 167.286C272.6 168.83 271.962 170.306 270.838 171.364L271.386 171.947C272.671 170.737 273.4 169.051 273.4 167.286H272.6ZM208.509 113.125C208.509 114.607 207.922 116.028 206.876 117.078L207.443 117.643C208.638 116.443 209.309 114.819 209.309 113.125H208.509ZM189.578 213.566C188.533 212.516 187.945 211.095 187.945 209.613H187.145C187.145 211.307 187.817 212.931 189.012 214.13L189.578 213.566ZM51.1735 93.7626C49.4721 93.7626 47.8407 94.4401 46.6398 95.6454L47.2065 96.21C48.2573 95.1554 49.6848 94.5626 51.1735 94.5626V93.7626ZM259.826 126.725C261.315 126.725 262.743 127.318 263.794 128.373L264.36 127.808C263.159 126.603 261.528 125.925 259.826 125.925V126.725ZM242.997 159.971C241.796 158.765 240.164 158.088 238.463 158.088V158.888C239.952 158.888 241.379 159.481 242.43 160.535L242.997 159.971ZM71.5117 81.4034C70.3165 82.6029 69.6455 84.2273 69.6455 85.9206H70.4455C70.4455 84.4389 71.0327 83.0176 72.0784 81.968L71.5117 81.4034ZM249.603 103.41C250.649 104.459 251.236 105.881 251.236 107.362H252.036C252.036 105.669 251.365 104.045 250.17 102.845L249.603 103.41ZM102.491 182.442C102.491 180.942 103.093 179.504 104.162 178.452L103.601 177.882C102.379 179.085 101.691 180.728 101.691 182.442H102.491ZM230.387 203.826C230.387 202.148 229.727 200.537 228.551 199.34L227.98 199.901C229.01 200.948 229.587 202.358 229.587 203.826H230.387ZM100.049 135.563C101.25 136.769 102.881 137.446 104.583 137.446V136.646C103.094 136.646 101.666 136.053 100.616 134.999L100.049 135.563ZM187.145 102.628C187.145 103.985 186.653 105.296 185.759 106.317L186.361 106.844C187.382 105.677 187.945 104.179 187.945 102.628H187.145ZM38.4 139.525C38.4 138.043 38.9872 136.622 40.033 135.572L39.4663 135.008C38.2711 136.207 37.6 137.832 37.6 139.525H38.4ZM251.236 209.621C251.236 211.098 250.653 212.516 249.612 213.565L250.18 214.128C251.369 212.929 252.036 211.31 252.036 209.621H251.236ZM104.124 192.124C103.078 191.074 102.491 189.653 102.491 188.172H101.691C101.691 189.865 102.362 191.489 103.557 192.689L104.124 192.124ZM185.512 71.2472C186.558 72.2968 187.145 73.7181 187.145 75.1997H187.945C187.945 73.5064 187.274 71.8821 186.079 70.6825L185.512 71.2472ZM221.066 134.999C220.015 136.053 218.588 136.646 217.099 136.646V137.446C218.801 137.446 220.432 136.769 221.633 135.563L221.066 134.999ZM115.264 200.971C113.776 200.971 112.348 200.378 111.297 199.324L110.731 199.888C111.932 201.094 113.563 201.771 115.264 201.771V200.971ZM78.6852 146.284C79.8861 147.489 81.5175 148.167 83.219 148.167V147.367C81.7302 147.367 80.3027 146.774 79.252 145.72L78.6852 146.284ZM174.372 62.4C175.861 62.4 177.288 62.9928 178.339 64.0474L178.906 63.4828C177.705 62.2775 176.073 61.6 174.372 61.6V62.4ZM83.219 72.3209C81.5175 72.3209 79.8861 72.9984 78.6852 74.2036L79.252 74.7683C80.3027 73.7137 81.7302 73.1209 83.219 73.1209V72.3209ZM217.099 73.1209C218.588 73.1209 220.015 73.7137 221.066 74.7683L221.633 74.2036C220.432 72.9984 218.801 72.3209 217.099 72.3209V73.1209ZM136.572 61.6C134.906 61.6 133.306 62.2498 132.111 63.4114L132.669 63.985C133.714 62.9686 135.114 62.4 136.572 62.4V61.6Z" fill="url(#paint13_radial_905_20061)"/>
<path d="M126 116.421C126 112.875 128.875 110 132.421 110H132.742C133.451 110 134.026 110.575 134.026 111.284V113.853C134.026 114.562 134.601 115.137 135.311 115.137C136.02 115.137 136.595 114.562 136.595 113.853V111.284C136.595 110.575 137.17 110 137.879 110H173.195C173.904 110 174.479 110.575 174.479 111.284V113.853C174.479 114.562 175.054 115.137 175.763 115.137C176.472 115.137 177.047 114.562 177.047 113.853V111.284C177.047 110.575 177.622 110 178.332 110H178.653C182.199 110 185.074 112.875 185.074 116.421V155.268C182.946 155.268 181.221 156.993 181.221 159.121C181.221 161.249 182.946 162.974 185.074 162.974V164.579C185.074 168.125 182.199 171 178.653 171H132.421C128.875 171 126 168.125 126 164.579V162.974C128.128 162.974 129.853 161.249 129.853 159.121C129.853 156.993 128.128 155.268 126 155.268V116.421Z" fill="#141F45"/>
<path d="M126 116.421C126 112.875 128.875 110 132.421 110H132.742C133.451 110 134.026 110.575 134.026 111.284V113.853C134.026 114.562 134.601 115.137 135.311 115.137C136.02 115.137 136.595 114.562 136.595 113.853V111.284C136.595 110.575 137.17 110 137.879 110H173.195C173.904 110 174.479 110.575 174.479 111.284V113.853C174.479 114.562 175.054 115.137 175.763 115.137C176.472 115.137 177.047 114.562 177.047 113.853V111.284C177.047 110.575 177.622 110 178.332 110H178.653C182.199 110 185.074 112.875 185.074 116.421V155.268C182.946 155.268 181.221 156.993 181.221 159.121C181.221 161.249 182.946 162.974 185.074 162.974V164.579C185.074 168.125 182.199 171 178.653 171H132.421C128.875 171 126 168.125 126 164.579V162.974C128.128 162.974 129.853 161.249 129.853 159.121C129.853 156.993 128.128 155.268 126 155.268V116.421Z" fill="url(#paint14_linear_905_20061)" fill-opacity="0.6"/>
<rect x="177" y="150.328" width="0.642105" height="8.02632" transform="rotate(-90 177 150.328)" fill="white"/>
<rect x="177" y="145.195" width="0.642105" height="8.02632" transform="rotate(-90 177 145.195)" fill="white"/>
<rect x="177" y="140.055" width="0.642105" height="8.02632" transform="rotate(-90 177 140.055)" fill="white"/>
<rect x="177" y="134.914" width="0.642105" height="8.02632" transform="rotate(-90 177 134.914)" fill="white"/>
<rect x="177" y="129.781" width="0.642105" height="8.02632" transform="rotate(-90 177 129.781)" fill="white"/>
<rect x="142.375" y="161.973" width="0.642105" height="8.99292" fill="white"/>
<rect x="147.508" y="161.973" width="0.642105" height="8.99292" fill="white"/>
<rect x="152.648" y="161.973" width="0.642105" height="8.99292" fill="white"/>
<rect x="157.785" y="161.973" width="0.642105" height="8.99292" fill="white"/>
<rect x="162.922" y="161.973" width="0.642105" height="8.99292" fill="white"/>
<rect x="168.059" y="161.973" width="0.642105" height="8.99292" fill="white"/>
<rect x="141.41" y="161.285" width="2.56842" height="5.45789" rx="1.28421" fill="#1AD079"/>
<rect x="146.547" y="161.285" width="2.56842" height="5.45789" rx="1.28421" fill="#1AD079"/>
<rect x="151.684" y="161.285" width="2.56842" height="5.45789" rx="1.28421" fill="#1AD079"/>
<rect x="156.82" y="161.285" width="2.56842" height="5.45789" rx="1.28421" fill="#1AD079"/>
<rect x="161.957" y="161.285" width="2.56842" height="5.45789" rx="1.28421" fill="#1AD079"/>
<rect x="167.094" y="161.285" width="2.56842" height="5.45789" rx="1.28421" fill="#1AD079"/>
<rect x="144" y="128" width="24" height="24" rx="5.13684" fill="url(#paint15_radial_905_20061)"/>
<path d="M134 132.133C135.178 132.133 136.133 131.178 136.133 130C136.133 128.822 135.178 127.867 134 127.867C132.822 127.867 131.867 128.822 131.867 130C131.867 131.178 132.822 132.133 134 132.133ZM144 122.133C145.178 122.133 146.133 121.178 146.133 120C146.133 118.822 145.178 117.867 144 117.867C142.822 117.867 141.867 118.822 141.867 120C141.867 121.178 142.822 122.133 144 122.133ZM134.4 130V124H133.6V130H134.4ZM138 120.4H144V119.6H138V120.4ZM134.4 124C134.4 122.012 136.012 120.4 138 120.4V119.6C135.57 119.6 133.6 121.57 133.6 124H134.4Z" fill="#1AD079"/>
<path d="M273 101H313" stroke="url(#paint16_linear_905_20061)" stroke-width="0.8"/>
<path d="M273 201H313" stroke="url(#paint17_linear_905_20061)" stroke-width="0.8"/>
<path d="M281 121H321" stroke="url(#paint18_linear_905_20061)" stroke-width="0.8"/>
<path d="M289 141H329" stroke="url(#paint19_linear_905_20061)" stroke-width="0.8"/>
<path d="M289 161H329" stroke="url(#paint20_linear_905_20061)" stroke-width="0.8"/>
<path d="M289 181H329" stroke="url(#paint21_linear_905_20061)" stroke-width="0.8"/>
<path d="M40 82L40 42" stroke="url(#paint22_linear_905_20061)" stroke-width="0.8"/>
<path d="M60 66L60 26" stroke="url(#paint23_linear_905_20061)" stroke-width="0.8"/>
<path d="M80 58L80 18" stroke="url(#paint24_linear_905_20061)" stroke-width="0.8"/>
<path d="M72 202L72 242" stroke="url(#paint25_linear_905_20061)" stroke-width="0.8"/>
<path d="M92 210L92 250" stroke="url(#paint26_linear_905_20061)" stroke-width="0.8"/>
<path d="M112 218L112 258" stroke="url(#paint27_linear_905_20061)" stroke-width="0.8"/>
<path d="M132 218L132 258" stroke="url(#paint28_linear_905_20061)" stroke-width="0.8"/>
</g>
<defs>
<filter id="filter0_f_905_20061" x="32" y="114" width="26" height="21" filterUnits="userSpaceOnUse" color-interpolation-filters="sRGB">
<feFlood flood-opacity="0" result="BackgroundImageFix"/>
<feBlend mode="normal" in="SourceGraphic" in2="BackgroundImageFix" result="shape"/>
<feGaussianBlur stdDeviation="1" result="effect1_foregroundBlur_905_20061"/>
</filter>
<filter id="filter1_f_905_20061" x="244" y="114" width="11" height="14" filterUnits="userSpaceOnUse" color-interpolation-filters="sRGB">
<feFlood flood-opacity="0" result="BackgroundImageFix"/>
<feBlend mode="normal" in="SourceGraphic" in2="BackgroundImageFix" result="shape"/>
<feGaussianBlur stdDeviation="1" result="effect1_foregroundBlur_905_20061"/>
</filter>
<filter id="filter2_f_905_20061" x="246.422" y="175.141" width="19.0234" height="17.4219" filterUnits="userSpaceOnUse" color-interpolation-filters="sRGB">
<feFlood flood-opacity="0" result="BackgroundImageFix"/>
<feBlend mode="normal" in="SourceGraphic" in2="BackgroundImageFix" result="shape"/>
<feGaussianBlur stdDeviation="1" result="effect1_foregroundBlur_905_20061"/>
</filter>
<radialGradient id="paint0_angular_905_20061" cx="0" cy="0" r="1" gradientUnits="userSpaceOnUse" gradientTransform="translate(156 140) rotate(90) scale(66 121.086)">
<stop offset="0.0627433" stop-color="white" stop-opacity="0"/>
<stop offset="0.537924" stop-color="white"/>
</radialGradient>
<linearGradient id="paint1_linear_905_20061" x1="112" y1="103.5" x2="187" y2="70.5" gradientUnits="userSpaceOnUse">
<stop offset="0.255645" stop-color="#141F45"/>
<stop offset="1" stop-color="white"/>
</linearGradient>
<linearGradient id="paint2_linear_905_20061" x1="155.5" y1="62" x2="155.5" y2="234" gradientUnits="userSpaceOnUse">
<stop stop-color="#141F45"/>
<stop offset="0.509143" stop-color="#141F45" stop-opacity="0"/>
<stop offset="1" stop-color="#141F45" stop-opacity="0"/>
</linearGradient>
<linearGradient id="paint3_linear_905_20061" x1="42" y1="131.5" x2="54.2511" y2="120.544" gradientUnits="userSpaceOnUse">
<stop stop-color="#141F45"/>
<stop offset="1" stop-color="#141F45" stop-opacity="0"/>
</linearGradient>
<linearGradient id="paint4_linear_905_20061" x1="251.793" y1="120.762" x2="246.354" y2="120.881" gradientUnits="userSpaceOnUse">
<stop stop-color="#141F45"/>
<stop offset="0.0977672" stop-color="#141F45"/>
<stop offset="1" stop-color="#141F45" stop-opacity="0"/>
</linearGradient>
<linearGradient id="paint5_linear_905_20061" x1="257.506" y1="185.549" x2="254.324" y2="181.136" gradientUnits="userSpaceOnUse">
<stop stop-color="#141F45"/>
<stop offset="0.0977672" stop-color="#141F45"/>
<stop offset="1" stop-color="#141F45" stop-opacity="0"/>
</linearGradient>
<linearGradient id="paint6_linear_905_20061" x1="192.739" y1="71.2414" x2="193.147" y2="81.3304" gradientUnits="userSpaceOnUse">
<stop stop-color="#141F45"/>
<stop offset="0.0977672" stop-color="#141F45"/>
<stop offset="1" stop-color="#141F45" stop-opacity="0"/>
</linearGradient>
<linearGradient id="paint7_linear_905_20061" x1="112.812" y1="71.9964" x2="111.207" y2="84.0357" gradientUnits="userSpaceOnUse">
<stop stop-color="#141F45"/>
<stop offset="0.0977672" stop-color="#141F45"/>
<stop offset="1" stop-color="#141F45" stop-opacity="0"/>
</linearGradient>
<linearGradient id="paint8_linear_905_20061" x1="43.5" y1="164" x2="41.5698" y2="141.623" gradientUnits="userSpaceOnUse">
<stop stop-color="#141F45"/>
<stop offset="0.0977672" stop-color="#141F45"/>
<stop offset="1" stop-color="#141F45" stop-opacity="0"/>
</linearGradient>
<linearGradient id="paint9_linear_905_20061" x1="230.524" y1="229.207" x2="230.412" y2="217.046" gradientUnits="userSpaceOnUse">
<stop stop-color="#141F45"/>
<stop offset="0.445692" stop-color="#141F45"/>
<stop offset="1" stop-color="#141F45" stop-opacity="0"/>
</linearGradient>
<linearGradient id="paint10_linear_905_20061" x1="97.7143" y1="194.414" x2="97.5876" y2="186.124" gradientUnits="userSpaceOnUse">
<stop stop-color="#141F45"/>
<stop offset="0.445692" stop-color="#141F45"/>
<stop offset="1" stop-color="#141F45" stop-opacity="0"/>
</linearGradient>
<linearGradient id="paint11_linear_905_20061" x1="66.5" y1="92.2" x2="62.7674" y2="100.954" gradientUnits="userSpaceOnUse">
<stop stop-color="#141F45"/>
<stop offset="1" stop-color="#141F45" stop-opacity="0"/>
</linearGradient>
<linearGradient id="paint12_linear_905_20061" x1="134.476" y1="201.586" x2="130.348" y2="195.272" gradientUnits="userSpaceOnUse">
<stop stop-color="#141F45"/>
<stop offset="0.445692" stop-color="#141F45"/>
<stop offset="1" stop-color="#141F45" stop-opacity="0"/>
</linearGradient>
<radialGradient id="paint13_radial_905_20061" cx="0" cy="0" r="1" gradientUnits="userSpaceOnUse" gradientTransform="translate(156 139.5) rotate(101.705) scale(113.644 313.656)">
<stop offset="0.249172" stop-color="#141F45"/>
<stop offset="0.852731" stop-color="white"/>
</radialGradient>
<linearGradient id="paint14_linear_905_20061" x1="176.5" y1="95.5" x2="131.5" y2="226" gradientUnits="userSpaceOnUse">
<stop stop-color="#1AD079"/>
<stop offset="0.466896" stop-color="#1AD079" stop-opacity="0.355261"/>
<stop offset="1" stop-color="#1AD079"/>
</linearGradient>
<radialGradient id="paint15_radial_905_20061" cx="0" cy="0" r="1" gradientUnits="userSpaceOnUse" gradientTransform="translate(156 144.847) rotate(-90) scale(20.5857 86.5669)">
<stop stop-color="#141F45"/>
<stop offset="1" stop-color="#141F45" stop-opacity="0"/>
</radialGradient>
<linearGradient id="paint16_linear_905_20061" x1="273" y1="101.5" x2="308.5" y2="101.5" gradientUnits="userSpaceOnUse">
<stop stop-color="#1AD079"/>
<stop offset="1" stop-color="#1AD079" stop-opacity="0"/>
</linearGradient>
<linearGradient id="paint17_linear_905_20061" x1="273" y1="201.5" x2="308.5" y2="201.5" gradientUnits="userSpaceOnUse">
<stop stop-color="#1AD079"/>
<stop offset="1" stop-color="#1AD079" stop-opacity="0"/>
</linearGradient>
<linearGradient id="paint18_linear_905_20061" x1="281" y1="121.5" x2="311" y2="121" gradientUnits="userSpaceOnUse">
<stop stop-color="#1AD079"/>
<stop offset="1" stop-color="#1AD079" stop-opacity="0"/>
</linearGradient>
<linearGradient id="paint19_linear_905_20061" x1="289" y1="141.5" x2="310" y2="141.5" gradientUnits="userSpaceOnUse">
<stop stop-color="#1AD079"/>
<stop offset="1" stop-color="#1AD079" stop-opacity="0"/>
</linearGradient>
<linearGradient id="paint20_linear_905_20061" x1="289" y1="161.5" x2="308.5" y2="161.5" gradientUnits="userSpaceOnUse">
<stop stop-color="#1AD079"/>
<stop offset="1" stop-color="#1AD079" stop-opacity="0"/>
</linearGradient>
<linearGradient id="paint21_linear_905_20061" x1="289" y1="181.5" x2="308.5" y2="182" gradientUnits="userSpaceOnUse">
<stop stop-color="#1AD079"/>
<stop offset="1" stop-color="#1AD079" stop-opacity="0"/>
</linearGradient>
<linearGradient id="paint22_linear_905_20061" x1="40.5" y1="82" x2="40.5" y2="46.5" gradientUnits="userSpaceOnUse">
<stop stop-color="#1AD079"/>
<stop offset="1" stop-color="#1AD079" stop-opacity="0"/>
</linearGradient>
<linearGradient id="paint23_linear_905_20061" x1="60.5" y1="66" x2="60.5" y2="32" gradientUnits="userSpaceOnUse">
<stop stop-color="#1AD079"/>
<stop offset="1" stop-color="#1AD079" stop-opacity="0"/>
</linearGradient>
<linearGradient id="paint24_linear_905_20061" x1="80.5" y1="58" x2="80.5" y2="24" gradientUnits="userSpaceOnUse">
<stop stop-color="#1AD079"/>
<stop offset="1" stop-color="#1AD079" stop-opacity="0"/>
</linearGradient>
<linearGradient id="paint25_linear_905_20061" x1="72.5" y1="202" x2="72.5" y2="237.5" gradientUnits="userSpaceOnUse">
<stop stop-color="white"/>
<stop offset="1" stop-color="white" stop-opacity="0"/>
</linearGradient>
<linearGradient id="paint26_linear_905_20061" x1="92.5" y1="210" x2="92.5" y2="245.5" gradientUnits="userSpaceOnUse">
<stop stop-color="white"/>
<stop offset="1" stop-color="white" stop-opacity="0"/>
</linearGradient>
<linearGradient id="paint27_linear_905_20061" x1="112.5" y1="218" x2="112.5" y2="253.5" gradientUnits="userSpaceOnUse">
<stop stop-color="white"/>
<stop offset="1" stop-color="white" stop-opacity="0"/>
</linearGradient>
<linearGradient id="paint28_linear_905_20061" x1="132.5" y1="218" x2="132.5" y2="253.5" gradientUnits="userSpaceOnUse">
<stop stop-color="white"/>
<stop offset="1" stop-color="white" stop-opacity="0"/>
</linearGradient>
<clipPath id="clip0_905_20061">
<path d="M0 10C0 4.47716 4.47715 0 10 0H302C307.523 0 312 4.47715 312 10V272C312 277.523 307.523 282 302 282H9.99999C4.47715 282 0 277.523 0 272V10Z" fill="white"/>
</clipPath>
</defs>
</svg>
