<svg width="312" height="282" viewBox="0 0 312 282" fill="none" xmlns="http://www.w3.org/2000/svg">
<g clip-path="url(#clip0_1010_5217)">
<path d="M0 10C0 4.47716 4.47715 0 10 0H302C307.523 0 312 4.47715 312 10V272C312 277.523 307.523 282 302 282H9.99999C4.47715 282 0 277.523 0 272V10Z" fill="#141F45"/>
<g opacity="0.4">
<path fill-rule="evenodd" clip-rule="evenodd" d="M206.356 151.233L218.606 159.891H243.263L244.08 160.468H219.423L231.672 169.125H256.33L257.146 169.702H232.489L244.739 178.359H269.396L270.213 178.937H245.555L257.805 187.594H282.462L283.279 188.171H258.622L270.871 196.828H295.533L296.349 197.405H271.688L283.938 206.062H308.599L309.416 206.64H284.754L297.004 215.297H321.666L322.482 215.874H297.821L310.07 224.531H334.732L335.549 225.108H310.887L323.137 233.766H347.798L348.615 234.343H323.953L336.203 243H360.865L361.681 243.577H337.02L349.27 252.235H348.27L336.02 243.577H310.719L322.969 252.235H321.969L309.719 243.577H284.422L296.672 252.235H295.672L283.422 243.577H258.121L270.371 252.235H269.371L257.121 243.577H231.82L244.071 252.235H243.071L230.82 243.577L152.922 243.577L165.172 252.235H164.172L151.922 243.577H126.621L138.871 252.235H137.871L125.621 243.577H100.324L112.574 252.235H111.574L99.3243 243.577H74.0235L86.2737 252.235H85.2737L73.0235 243.577H47.729L46.9123 243H72.2069L59.9572 234.343H34.6626L33.8459 233.766H59.1405L46.8908 225.108H21.5962L20.7795 224.531H46.0742L33.8245 215.874H8.52979L7.71315 215.297H33.0079L20.7582 206.64H-4.53664L-5.35329 206.063H19.9415L7.69182 197.405H-17.603L-18.4197 196.828H6.87517L-5.37452 188.171H-30.6734L-31.49 187.594H-6.19117L-18.4409 178.937H-43.7398L-44.5564 178.359H-19.2575L-31.5072 169.702H-56.8062L-57.6228 169.125H-32.3238L-44.5735 160.468H-69.8726L-70.6892 159.891H-45.3902L-57.6399 151.233L-82.939 151.233L-83.7556 150.656L-58.4565 150.656L-70.7048 142H-69.7048L-57.4565 150.656H-32.1557L-44.4041 142H-43.4041L-31.1557 150.656H-5.85887L-18.1072 142H-17.1072L-4.85887 150.656L20.4419 150.656L8.1936 142H9.1936L21.4419 150.656L46.4193 150.656L34.4944 142.229H35.4944L47.4193 150.656H72.7522L60.7913 142.203H61.7913L73.7522 150.656H99.3403L87.092 142H88.092L100.34 150.656L125.641 150.656L113.393 142H114.393L126.641 150.656L151.942 150.656L139.694 142H140.694L152.942 150.656L178.239 150.656L165.99 142H166.99L179.239 150.656H204.54L192.291 142H193.291L205.54 150.656L230.197 150.656L231.013 151.233L206.356 151.233ZM73.2069 243L60.9572 234.343H86.258L98.5076 243H73.2069ZM99.5076 243L87.258 234.343H112.555L124.805 243H99.5076ZM125.805 243L113.555 234.343H138.856L151.105 243H125.805ZM152.105 243L139.856 234.343L217.754 234.343L230.004 243L152.105 243ZM231.004 243L218.754 234.343H244.055L256.305 243H231.004ZM257.305 243L245.055 234.343H270.356L282.605 243H257.305ZM283.605 243L271.356 234.343H296.652L308.902 243H283.605ZM309.902 243L297.652 234.343H322.953L335.203 243H309.902ZM296.836 233.766H322.137L309.887 225.108H284.586L296.836 233.766ZM270.539 233.766H295.836L283.586 225.108H258.289L270.539 233.766ZM244.238 233.766H269.539L257.289 225.108H231.988L244.238 233.766ZM217.937 233.766H243.238L230.988 225.108H205.688L217.937 233.766ZM139.039 233.766L216.937 233.766L204.688 225.108H179.099L191.345 233.763H190.345L178.1 225.108H152.767L164.36 233.302H163.36L151.767 225.108H126.789L139.039 233.766ZM112.738 233.766H138.039L125.789 225.108H100.488L112.738 233.766ZM86.4413 233.766H111.738L99.4885 225.108H74.1916L86.4413 233.766ZM60.1405 233.766H85.4413L73.1916 225.108H47.8908L60.1405 233.766ZM47.0742 224.531L34.8245 215.874H60.1253L72.375 224.531H47.0742ZM73.375 224.531L61.1253 215.874H86.4222L98.6718 224.531H73.375ZM99.6718 224.531L87.4222 215.874H112.723L124.973 224.531H99.6718ZM125.973 224.531L113.723 215.874H138.7L150.95 224.531H125.973ZM151.95 224.531L139.7 215.874H165.033L177.283 224.531H151.95ZM178.283 224.531L166.033 215.874H191.621L203.871 224.531H178.283ZM204.871 224.531L192.621 215.874H217.922L230.172 224.531H204.871ZM231.172 224.531L218.922 215.874H244.223L256.473 224.531H231.172ZM257.473 224.531L245.223 215.874H270.52L282.769 224.531H257.473ZM283.769 224.531L271.52 215.874H296.821L309.07 224.531H283.769ZM270.703 215.297H296.004L283.754 206.64H258.453L270.703 215.297ZM244.406 215.297H269.703L257.453 206.64H232.157L244.406 215.297ZM218.106 215.297H243.406L231.157 206.64H205.856L218.106 215.297ZM191.805 215.297H217.106L204.856 206.64H179.555L191.805 215.297ZM165.217 215.297H190.805L178.555 206.64H152.967L165.217 215.297ZM138.884 215.297H164.217L151.967 206.64H126.634L138.884 215.297ZM112.906 215.297H137.884L125.634 206.64H100.657L112.906 215.297ZM86.6055 215.297H111.906L99.6566 206.64H74.3558L86.6055 215.297ZM60.3086 215.297H85.6055L73.3558 206.64H48.0589L60.3086 215.297ZM34.0079 215.297H59.3086L47.0589 206.64H21.7582L34.0079 215.297ZM20.9415 206.063L8.69182 197.405H33.9926L46.2423 206.063H20.9415ZM47.2423 206.063L34.9926 197.405H60.2895L72.5392 206.063H47.2423ZM73.5392 206.063L61.2895 197.405H86.5903L98.84 206.063H73.5392ZM99.84 206.063L87.5903 197.405H112.568L124.817 206.063H99.84ZM125.817 206.063L113.568 197.405H138.9L151.15 206.063H125.817ZM152.15 206.062L139.9 197.405H165.489L177.738 206.062H152.15ZM178.738 206.062L166.489 197.405H191.789L204.039 206.062H178.738ZM205.039 206.062L192.789 197.405H218.09L230.34 206.062H205.039ZM231.34 206.062L219.09 197.405H244.387L256.637 206.062H231.34ZM257.637 206.062L245.387 197.405H270.688L282.938 206.062H257.637ZM244.57 196.828H269.871L257.622 188.171H232.321L244.57 196.828ZM218.274 196.828H243.57L231.321 188.171H206.024L218.274 196.828ZM191.973 196.828H217.274L205.024 188.171H179.723L191.973 196.828ZM165.672 196.828H190.973L178.723 188.171H153.422L165.672 196.828ZM139.084 196.828H164.672L152.422 188.171H126.834L139.084 196.828ZM112.751 196.828H138.084L125.834 188.171H100.501L112.751 196.828ZM86.7736 196.828H111.751L99.5013 188.171H74.5239L86.7736 196.828ZM60.4728 196.828H85.7736L73.5239 188.171H48.2231L60.4728 196.828ZM34.176 196.828H59.4728L47.2231 188.171H21.9263L34.176 196.828ZM7.87517 196.828H33.176L20.9263 188.171H-4.37452L7.87517 196.828ZM-5.19117 187.594L-17.4409 178.937H7.85992L20.1096 187.594H-5.19117ZM21.1096 187.594L8.85992 178.937H34.1568L46.4065 187.594H21.1096ZM47.4065 187.594L35.1568 178.937H60.4576L72.7073 187.594H47.4065ZM73.7073 187.594L61.4576 178.937H86.435L98.6847 187.594H73.7073ZM99.6847 187.594L87.435 178.937H112.768L125.018 187.594H99.6847ZM126.018 187.594L113.768 178.937H139.356L151.606 187.594H126.018ZM152.606 187.594L140.356 178.937H165.657L177.906 187.594H152.606ZM178.906 187.594L166.657 178.937L191.958 178.937L204.207 187.594H178.906ZM205.207 187.594L192.958 178.937H218.254L230.504 187.594H205.207ZM231.504 187.594L219.254 178.937H244.555L256.805 187.594H231.504ZM218.438 178.359H243.739L231.489 169.702H206.188L218.438 178.359ZM192.141 178.359H217.438L205.188 169.702H179.891L192.141 178.359ZM165.84 178.359L191.141 178.359L178.891 169.702L153.59 169.702L165.84 178.359ZM139.539 178.359H164.84L152.59 169.702H127.29L139.539 178.359ZM112.951 178.359H138.539L126.29 169.702H100.701L112.951 178.359ZM86.6184 178.359H111.951L99.7015 169.702H74.3687L86.6184 178.359ZM60.6409 178.359H85.6184L73.3687 169.702H48.3912L60.6409 178.359ZM34.3401 178.359H59.6409L47.3912 169.702H22.0904L34.3401 178.359ZM8.04328 178.359H33.3402L21.0905 169.702H-4.20642L8.04328 178.359ZM-18.2575 178.359H7.04328L-5.20642 169.702H-30.5072L-18.2575 178.359ZM-31.3238 169.125L-43.5735 160.468L-18.2728 160.468L-6.02306 169.125H-31.3238ZM-5.02306 169.125L-17.2728 160.468H8.02411L20.2738 169.125H-5.02306ZM21.2738 169.125L9.02411 160.468H34.3249L46.5746 169.125H21.2738ZM47.5746 169.125L35.3249 160.468L60.3023 160.468L72.552 169.125H47.5746ZM73.552 169.125L61.3023 160.468H86.6351L98.8848 169.125H73.552ZM99.8848 169.125L87.6351 160.468H113.223L125.473 169.125H99.8848ZM126.473 169.125L114.223 160.468L139.524 160.468L151.774 169.125H126.473ZM152.774 169.125L140.524 160.468H165.825L178.075 169.125L152.774 169.125ZM179.075 169.125L166.825 160.468H192.122L204.371 169.125H179.075ZM205.371 169.125L193.122 160.468L218.423 160.468L230.672 169.125H205.371ZM192.305 159.891L217.606 159.891L205.356 151.233H180.055L192.305 159.891ZM166.008 159.891H191.305L179.055 151.233L153.759 151.233L166.008 159.891ZM139.707 159.891H165.008L152.759 151.233L127.458 151.233L139.707 159.891ZM113.407 159.891L138.707 159.891L126.458 151.233L101.157 151.233L113.407 159.891ZM86.8185 159.891H112.407L100.157 151.233H74.5688L86.8185 159.891ZM60.4857 159.891H85.8185L73.5688 151.233H48.236L60.4857 159.891ZM34.5083 159.891L59.4857 159.891L47.236 151.233L22.2586 151.233L34.5083 159.891ZM8.20747 159.891H33.5083L21.2586 151.233L-4.04223 151.233L8.20747 159.891ZM-18.0894 159.891H7.20747L-5.04223 151.233H-30.3391L-18.0894 159.891ZM-44.3902 159.891L-19.0894 159.891L-31.3391 151.233H-56.6399L-44.3902 159.891Z" fill="url(#paint0_radial_1010_5217)"/>
<g filter="url(#filter0_f_1010_5217)">
<circle cx="329" cy="234" r="67" fill="#141F45"/>
</g>
<g filter="url(#filter1_f_1010_5217)">
<path d="M52.5018 293.5C15.5306 291.966 -25.9068 279.437 -24.4981 245.5C-23.0895 211.564 -46.4682 150.965 -9.49698 152.5C9.89349 153.305 38.1328 214.911 58.5 228.5C76.9664 240.82 287.171 239.862 286.502 256C285.093 289.936 89.4731 295.035 52.5018 293.5Z" fill="#141F45"/>
</g>
<g filter="url(#filter2_f_1010_5217)">
<path d="M275.554 114.564C312.439 117.521 353.362 131.638 350.647 165.494C347.932 199.351 325.385 218.458 288.5 215.5C269.155 213.949 287.327 192.363 267.498 178C249.52 164.977 163.206 153.6 164.497 137.5C167.212 103.643 238.669 111.606 275.554 114.564Z" fill="#141F45"/>
</g>
</g>
<path d="M-6 154H30.5C32.7091 154 34.5 152.209 34.5 150V146.5C34.5 144.291 36.2909 142.5 38.5 142.5H122.5C124.709 142.5 126.5 144.291 126.5 146.5V154V162C126.5 164.209 128.291 166 130.5 166H212.518C214.728 166 216.518 164.209 216.518 162V158C216.518 155.791 218.309 154 220.518 154H305" stroke="url(#paint1_linear_1010_5217)" stroke-width="0.5"/>
<path d="M56 67H86.6667L102.134 77.7084" stroke="url(#paint2_linear_1010_5217)" stroke-width="0.8" stroke-linecap="round" stroke-linejoin="round"/>
<path d="M100.016 206.393H73.0156L60.0156 197.393V54.8926L73.0156 63.8926H100.016V206.393Z" fill="#141F45"/>
<path d="M60.0156 54.8926L73.0156 63.8926H100.016L87.0156 54.8926H60.0156Z" fill="#141F45"/>
<path d="M60.0156 54.8926L73.0156 63.8926H100.016L87.0156 54.8926H60.0156Z" fill="#141F45"/>
<path fill-rule="evenodd" clip-rule="evenodd" d="M73.0156 206.393H100.016V63.8926H73.0156V206.393Z" fill="url(#paint3_linear_1010_5217)"/>
<path d="M60.0156 197.393L73.0156 206.393V63.8926L60.0156 54.8926V197.393Z" fill="url(#paint4_linear_1010_5217)"/>
<path d="M56 67V66.6C55.825 66.6 55.6704 66.7137 55.6182 66.8807C55.566 67.0477 55.6285 67.2293 55.7723 67.3289L56 67ZM104 79V79.4C104.175 79.4 104.33 79.2863 104.382 79.1193C104.434 78.9523 104.372 78.7707 104.228 78.6711L104 79ZM73.3333 79L73.1056 79.3289C73.1725 79.3752 73.252 79.4 73.3333 79.4V79ZM55.7723 67.3289L73.1056 79.3289L73.561 78.6711L56.2277 66.6711L55.7723 67.3289ZM73.3333 79.4H104V78.6H73.3333V79.4ZM56 67.4H59V66.6H56V67.4ZM100.772 77.252L103.772 79.3289L104.228 78.6711L101.228 76.5942L100.772 77.252Z" fill="url(#paint5_linear_1010_5217)"/>
<path d="M191 234.907H164L152 225.823V82L164 91.0836H191V234.907Z" fill="#141F45"/>
<path d="M152 82L164 91.0836H191L178 82H152Z" fill="#141F45"/>
<path d="M152 58L164 67.0297H191L178 58H152Z" fill="white" fill-opacity="0.54"/>
<path fill-rule="evenodd" clip-rule="evenodd" d="M164 210H191V67.0297H164V210Z" fill="url(#paint6_linear_1010_5217)"/>
<path d="M152 200.97L164 210V67.0297L152 58V200.97Z" fill="url(#paint7_linear_1010_5217)"/>
<path d="M151.998 58L163.998 67.0297H190.998L177.998 58H151.998Z" fill="#1AD079"/>
<path d="M190.998 234L216.001 252M190.998 234H233.727M190.998 234L190.998 224.802M163.998 234L163.998 67.0297M163.998 234L189.001 252M163.998 234H132.727M151.998 58L163.998 67.0297M151.998 58H177.998L190.998 67.0297M151.998 58L151.998 206.32M190.998 67.0297H163.998M190.998 67.0297L190.998 224.802M151.998 224.876L114.535 198.442M151.998 224.876L151.998 206.32M151.998 224.876H115.575M190.998 224.802H216.035M151.998 206.32L140.363 198.082" stroke="url(#paint8_radial_1010_5217)" stroke-width="0.6" stroke-linejoin="round"/>
<path d="M163.998 234H132.727M151.998 224.876L114.535 198.442M151.998 224.876L151.998 206.32L140.363 198.082M151.998 224.876H115.575" stroke="url(#paint9_radial_1010_5217)" stroke-width="0.6" stroke-linejoin="round"/>
<path d="M191 233.999L216.002 251.999M191 233.999H265.728M191 233.999L191 224.801H264.037M164 233.999L189.002 251.999" stroke="url(#paint10_linear_1010_5217)" stroke-width="0.6" stroke-linejoin="round"/>
<path d="M152 58L164 67.0297H191L178.515 58.3574C178.18 58.1247 177.781 58 177.374 58H152Z" fill="#1AD079"/>
<path d="M191 234L191 224.802L191 67.0297M164 234L164 67.0297M152 58L164 67.0297M152 58H177.374C177.781 58 178.18 58.1247 178.515 58.3574L191 67.0297M152 58L152 206.32L152 224.876M191 67.0297H164" stroke="#1AD079" stroke-width="0.6" stroke-linejoin="round"/>
<g filter="url(#filter3_f_1010_5217)">
<path d="M202.869 246.006C192.967 246.006 177 245.561 177 251.834C177 258.106 176.968 258.928 186.869 258.928C192.063 258.928 208.889 263.62 217 261.999C225.111 260.378 232 254.851 232 251.868C232 245.595 212.77 246.006 202.869 246.006Z" fill="#141F45"/>
</g>
<path d="M-7.33333 154C-7.33333 154.736 -6.73638 155.333 -6 155.333C-5.26362 155.333 -4.66667 154.736 -4.66667 154C-4.66667 153.264 -5.26362 152.667 -6 152.667C-6.73638 152.667 -7.33333 153.264 -7.33333 154ZM303.667 154C303.667 154.736 304.264 155.333 305 155.333C305.736 155.333 306.333 154.736 306.333 154C306.333 153.264 305.736 152.667 305 152.667C304.264 152.667 303.667 153.264 303.667 154ZM256.291 206.277C256.291 207.014 256.888 207.611 257.624 207.611C258.361 207.611 258.958 207.014 258.958 206.277C258.958 205.541 258.361 204.944 257.624 204.944C256.888 204.944 256.291 205.541 256.291 206.277ZM203.486 243.409C203.486 244.145 204.083 244.742 204.819 244.742C205.556 244.742 206.153 244.145 206.153 243.409C206.153 242.672 205.556 242.075 204.819 242.075C204.083 242.075 203.486 242.672 203.486 243.409ZM45.6667 188C45.6667 188.736 46.2636 189.333 47 189.333C47.7364 189.333 48.3333 188.736 48.3333 188C48.3333 187.264 47.7364 186.667 47 186.667C46.2636 186.667 45.6667 187.264 45.6667 188ZM111.667 160C111.667 160.736 112.264 161.333 113 161.333C113.736 161.333 114.333 160.736 114.333 160C114.333 159.264 113.736 158.667 113 158.667C112.264 158.667 111.667 159.264 111.667 160ZM137.167 233.409C137.167 234.145 137.764 234.742 138.5 234.742C139.236 234.742 139.833 234.145 139.833 233.409C139.833 232.672 139.236 232.075 138.5 232.075C137.764 232.075 137.167 232.672 137.167 233.409ZM256.291 114C256.291 114.736 256.888 115.333 257.624 115.333C258.361 115.333 258.958 114.736 258.958 114C258.958 113.264 258.361 112.667 257.624 112.667C256.888 112.667 256.291 113.264 256.291 114ZM203.486 126C203.486 126.736 204.083 127.333 204.819 127.333C205.556 127.333 206.153 126.736 206.153 126C206.153 125.264 205.556 124.667 204.819 124.667C204.083 124.667 203.486 125.264 203.486 126ZM137.167 126C137.167 126.736 137.764 127.333 138.5 127.333C139.236 127.333 139.833 126.736 139.833 126C139.833 125.264 139.236 124.667 138.5 124.667C137.764 124.667 137.167 125.264 137.167 126ZM111.667 102.5C111.667 103.236 112.264 103.833 113 103.833C113.736 103.833 114.333 103.236 114.333 102.5C114.333 101.764 113.736 101.167 113 101.167C112.264 101.167 111.667 101.764 111.667 102.5ZM45.6667 102.5C45.6667 103.236 46.2636 103.833 47 103.833C47.7364 103.833 48.3333 103.236 48.3333 102.5C48.3333 101.764 47.7364 101.167 47 101.167C46.2636 101.167 45.6667 101.764 45.6667 102.5ZM126.25 154V162H126.75V154H126.25ZM216.768 162V158H216.268V162H216.768ZM-6 154.25H30.5V153.75H-6V154.25ZM34.75 150V146.5H34.25V150H34.75ZM126.25 146.5V154H126.75V146.5H126.25ZM220.518 154.25H257.624V153.75H220.518V154.25ZM257.624 154.25H305V153.75H257.624V154.25ZM257.374 154V206.277H257.874V154H257.374ZM204.569 166V243.409H205.069V166H204.569ZM38.5 142.75H47V142.25H38.5V142.75ZM47 142.75H56V142.25H47V142.75ZM47.25 188V142.5H46.75V188H47.25ZM104.5 142.75H113V142.25H104.5V142.75ZM113 142.75H122.5V142.25H113V142.75ZM113.25 160V142.5H112.75V160H113.25ZM130.5 166.25H138.5V165.75H130.5V166.25ZM138.5 166.25H212.518V165.75H138.5V166.25ZM138.75 233.409V166H138.25V233.409H138.75ZM257.874 154V114H257.374V154H257.874ZM205.069 166V126H204.569V166H205.069ZM138.75 166V126H138.25V166H138.75ZM113.25 142.5V102.5H112.75V142.5H113.25ZM47.25 142.5V102.5H46.75V142.5H47.25ZM126.75 146.5C126.75 144.153 124.847 142.25 122.5 142.25V142.75C124.571 142.75 126.25 144.429 126.25 146.5H126.75ZM30.5 154.25C32.8472 154.25 34.75 152.347 34.75 150H34.25C34.25 152.071 32.5711 153.75 30.5 153.75V154.25ZM216.768 158C216.768 155.929 218.447 154.25 220.518 154.25V153.75C218.171 153.75 216.268 155.653 216.268 158H216.768ZM216.268 162C216.268 164.071 214.589 165.75 212.518 165.75V166.25C214.866 166.25 216.768 164.347 216.768 162H216.268ZM34.75 146.5C34.75 144.429 36.4289 142.75 38.5 142.75V142.25C36.1528 142.25 34.25 144.153 34.25 146.5H34.75ZM126.25 162C126.25 164.347 128.153 166.25 130.5 166.25V165.75C128.429 165.75 126.75 164.071 126.75 162H126.25Z" fill="url(#paint11_linear_1010_5217)"/>
</g>
<defs>
<filter id="filter0_f_1010_5217" x="208" y="113" width="242" height="242" filterUnits="userSpaceOnUse" color-interpolation-filters="sRGB">
<feFlood flood-opacity="0" result="BackgroundImageFix"/>
<feBlend mode="normal" in="SourceGraphic" in2="BackgroundImageFix" result="shape"/>
<feGaussianBlur stdDeviation="27" result="effect1_foregroundBlur_1010_5217"/>
</filter>
<filter id="filter1_f_1010_5217" x="-50.5039" y="132.471" width="357.008" height="181.27" filterUnits="userSpaceOnUse" color-interpolation-filters="sRGB">
<feFlood flood-opacity="0" result="BackgroundImageFix"/>
<feBlend mode="normal" in="SourceGraphic" in2="BackgroundImageFix" result="shape"/>
<feGaussianBlur stdDeviation="10" result="effect1_foregroundBlur_1010_5217"/>
</filter>
<filter id="filter2_f_1010_5217" x="144.484" y="91.5938" width="226.293" height="144.205" filterUnits="userSpaceOnUse" color-interpolation-filters="sRGB">
<feFlood flood-opacity="0" result="BackgroundImageFix"/>
<feBlend mode="normal" in="SourceGraphic" in2="BackgroundImageFix" result="shape"/>
<feGaussianBlur stdDeviation="10" result="effect1_foregroundBlur_1010_5217"/>
</filter>
<filter id="filter3_f_1010_5217" x="170" y="239" width="69" height="30.3398" filterUnits="userSpaceOnUse" color-interpolation-filters="sRGB">
<feFlood flood-opacity="0" result="BackgroundImageFix"/>
<feBlend mode="normal" in="SourceGraphic" in2="BackgroundImageFix" result="shape"/>
<feGaussianBlur stdDeviation="3.5" result="effect1_foregroundBlur_1010_5217"/>
</filter>
<radialGradient id="paint0_radial_1010_5217" cx="0" cy="0" r="1" gradientUnits="userSpaceOnUse" gradientTransform="translate(171.998 221) rotate(-157.977) scale(192.011 182.157)">
<stop stop-color="white"/>
<stop offset="0.831051" stop-color="white" stop-opacity="0"/>
</radialGradient>
<linearGradient id="paint1_linear_1010_5217" x1="0.5" y1="154" x2="300.5" y2="154" gradientUnits="userSpaceOnUse">
<stop stop-color="white" stop-opacity="0"/>
<stop offset="0.120576" stop-color="white"/>
<stop offset="0.511151" stop-color="white"/>
<stop offset="1" stop-color="white" stop-opacity="0"/>
</linearGradient>
<linearGradient id="paint2_linear_1010_5217" x1="93.5" y1="72" x2="58.5" y2="67.5" gradientUnits="userSpaceOnUse">
<stop stop-color="#293D59"/>
<stop offset="1" stop-color="#275960"/>
</linearGradient>
<linearGradient id="paint3_linear_1010_5217" x1="80.0156" y1="213.893" x2="92.0156" y2="64.8926" gradientUnits="userSpaceOnUse">
<stop stop-color="white" stop-opacity="0.24"/>
<stop offset="0.142558" stop-color="white" stop-opacity="0.205786"/>
<stop offset="1" stop-color="white" stop-opacity="0"/>
</linearGradient>
<linearGradient id="paint4_linear_1010_5217" x1="60.0156" y1="199.393" x2="56.0156" y2="41.3926" gradientUnits="userSpaceOnUse">
<stop stop-color="white" stop-opacity="0.11"/>
<stop offset="1" stop-color="white" stop-opacity="0"/>
</linearGradient>
<linearGradient id="paint5_linear_1010_5217" x1="74.5" y1="80" x2="77.5" y2="69.5" gradientUnits="userSpaceOnUse">
<stop stop-color="#1AD079"/>
<stop offset="1" stop-color="#2B3558"/>
</linearGradient>
<linearGradient id="paint6_linear_1010_5217" x1="174.5" y1="65" x2="182.304" y2="200.661" gradientUnits="userSpaceOnUse">
<stop stop-color="#31EB92"/>
<stop offset="0.432101" stop-color="#1AD079" stop-opacity="0.38"/>
<stop offset="1" stop-color="#141F45" stop-opacity="0"/>
</linearGradient>
<linearGradient id="paint7_linear_1010_5217" x1="155.413" y1="65" x2="160.049" y2="189.991" gradientUnits="userSpaceOnUse">
<stop stop-color="#14B669"/>
<stop offset="1" stop-color="#1AD079" stop-opacity="0"/>
</linearGradient>
<radialGradient id="paint8_radial_1010_5217" cx="0" cy="0" r="1" gradientUnits="userSpaceOnUse" gradientTransform="translate(161.788 231.17) rotate(165.112) scale(28.6458 17.5997)">
<stop offset="0.397866" stop-color="#1AD079"/>
<stop offset="1" stop-color="#141F45" stop-opacity="0"/>
</radialGradient>
<radialGradient id="paint9_radial_1010_5217" cx="0" cy="0" r="1" gradientUnits="userSpaceOnUse" gradientTransform="translate(164 232.5) rotate(-156.727) scale(50.6187 31.0996)">
<stop stop-color="#1AD079"/>
<stop offset="0.252703" stop-color="#1AD079"/>
<stop offset="1" stop-color="#141F45" stop-opacity="0"/>
</radialGradient>
<linearGradient id="paint10_linear_1010_5217" x1="186.5" y1="232.5" x2="262.5" y2="229" gradientUnits="userSpaceOnUse">
<stop stop-color="#1AD079"/>
<stop offset="0.254642" stop-color="#1AD079"/>
<stop offset="1" stop-color="#30395B"/>
</linearGradient>
<linearGradient id="paint11_linear_1010_5217" x1="305" y1="152.5" x2="1.50001" y2="151" gradientUnits="userSpaceOnUse">
<stop stop-color="white" stop-opacity="0"/>
<stop offset="0.141918" stop-color="white"/>
<stop offset="0.46206" stop-color="white"/>
<stop offset="0.833964" stop-color="white"/>
<stop offset="1" stop-color="white" stop-opacity="0"/>
</linearGradient>
<clipPath id="clip0_1010_5217">
<path d="M0 10C0 4.47716 4.47715 0 10 0H302C307.523 0 312 4.47715 312 10V272C312 277.523 307.523 282 302 282H9.99999C4.47715 282 0 277.523 0 272V10Z" fill="white"/>
</clipPath>
</defs>
</svg>
