<svg width="24" height="24" viewBox="0 0 24 24" fill="none" xmlns="http://www.w3.org/2000/svg">
<path d="M15.5 21C15.3694 20.4859 15 17.5304 15 17C15 16.4696 15.2107 15.9609 15.5858 15.5858C15.9609 15.2107 16.4696 15 17 15C17.5304 15 20.4859 15.3694 21 15.5" fill="#07133B"/>
<path d="M15.5 21C15.3694 20.4859 15 17.5304 15 17C15 16.4696 15.2107 15.9609 15.5858 15.5858C15.9609 15.2107 16.4696 15 17 15C17.5304 15 20.4859 15.3694 21 15.5C20.2 17.5 17 20 15.5 21Z" stroke="#07133B" stroke-width="1.7" stroke-linecap="round" stroke-linejoin="round"/>
<path d="M7 4.00006V6.00006C7.21572 6.61353 7.62494 7.1403 8.16602 7.50102C8.7071 7.86174 9.35074 8.03688 10 8.00005C10.5304 8.00005 11.0391 8.21077 11.4142 8.58584C11.7893 8.96091 12 9.46962 12 10.0001C12 10.5305 12.2107 11.0392 12.5858 11.4143C12.9609 11.7893 13.4696 12.0001 14 12.0001C14.5304 12.0001 15.0391 11.7893 15.4142 11.4143C15.7893 11.0392 16 10.5305 16 10.0001C16 9.46962 16.2107 8.96091 16.5858 8.58584C16.9609 8.21077 17.4696 8.00005 18 8.00005H21C19 5.49982 17.5 3.99978 13.5 2.99962C11.3483 2.46162 8.4714 3.33339 7 4.00006Z" fill="#1AD079" stroke="#1AD079" stroke-width="1.7" stroke-linecap="round" stroke-linejoin="round"/>
<path d="M3.00045 11H5.00045C5.53088 11 6.03959 11.2107 6.41466 11.5858C6.78974 11.9609 7.00045 12.4696 7.00045 13V14C7.00045 14.5304 7.21116 15.0391 7.58624 15.4142C7.96131 15.7893 8.47002 16 9.00045 16C9.53088 16 10.0396 16.2107 10.4147 16.5858C10.7897 16.9609 11.0004 17.4696 11.0004 18V21.5" fill="#1AD079"/>
<path d="M3.00045 11H5.00045C5.53088 11 6.03959 11.2107 6.41466 11.5858C6.78974 11.9609 7.00045 12.4696 7.00045 13V14C7.00045 14.5304 7.21116 15.0391 7.58624 15.4142C7.96131 15.7893 8.47002 16 9.00045 16C9.53088 16 10.0396 16.2107 10.4147 16.5858C10.7897 16.9609 11.0004 17.4696 11.0004 18V21.5C9.50045 21.6667 6.5 20.7 4.5 17.5C2.5 14.3 2.50045 12 3.00045 11Z" fill="#1AD079"/>
<path d="M3.00045 11H5.00045C5.53088 11 6.03959 11.2107 6.41466 11.5858C6.78974 11.9609 7.00045 12.4696 7.00045 13V14C7.00045 14.5304 7.21116 15.0391 7.58624 15.4142C7.96131 15.7893 8.47002 16 9.00045 16C9.53088 16 10.0396 16.2107 10.4147 16.5858C10.7897 16.9609 11.0004 17.4696 11.0004 18V21.5C9.50045 21.6667 6.5 20.7 4.5 17.5C2.5 14.3 2.50045 12 3.00045 11Z" stroke="#1AD079" stroke-width="1.7" stroke-linecap="round" stroke-linejoin="round"/>
<path d="M12 22C17.5228 22 22 17.5228 22 12C22 6.47715 17.5228 2 12 2C6.47715 2 2 6.47715 2 12C2 17.5228 6.47715 22 12 22Z" stroke="#07133B" stroke-width="1.7" stroke-linecap="round" stroke-linejoin="round"/>
</svg>
