<svg width="144" height="144" viewBox="0 0 144 144" fill="none" xmlns="http://www.w3.org/2000/svg">
<path fill-rule="evenodd" clip-rule="evenodd" d="M37.5 47.6137C37.5 47.2372 37.7115 46.8926 38.0471 46.7221L52.7971 39.23C53.0817 39.0855 53.4183 39.0855 53.7029 39.23L68.4529 46.7221C68.7885 46.8926 69 47.2372 69 47.6137V128C69 128.552 68.5523 129 68 129H38.5C37.9477 129 37.5 128.552 37.5 128V47.6137ZM44 54C43.7239 54 43.5 53.7761 43.5 53.5V48.5C43.5 48.2239 43.7239 48 44 48H49C49.2761 48 49.5 48.2239 49.5 48.5V53.5C49.5 53.7761 49.2761 54 49 54H44ZM57.5 48C57.2239 48 57 48.2239 57 48.5V53.5C57 53.7761 57.2239 54 57.5 54H62.5C62.7761 54 63 53.7761 63 53.5V48.5C63 48.2239 62.7761 48 62.5 48H57.5ZM44 69C43.7239 69 43.5 68.7761 43.5 68.5V63.5C43.5 63.2239 43.7239 63 44 63H49C49.2761 63 49.5 63.2239 49.5 63.5V68.5C49.5 68.7761 49.2761 69 49 69H44ZM57.5 63C57.2239 63 57 63.2239 57 63.5V68.5C57 68.7761 57.2239 69 57.5 69H62.5C62.7761 69 63 68.7761 63 68.5V63.5C63 63.2239 62.7761 63 62.5 63H57.5ZM44 84C43.7239 84 43.5 83.7761 43.5 83.5V78.5C43.5 78.2239 43.7239 78 44 78H49C49.2761 78 49.5 78.2239 49.5 78.5V83.5C49.5 83.7761 49.2761 84 49 84H44ZM57.5 78C57.2239 78 57 78.2239 57 78.5V83.5C57 83.7761 57.2239 84 57.5 84H62.5C62.7761 84 63 83.7761 63 83.5V78.5C63 78.2239 62.7761 78 62.5 78H57.5ZM44 99C43.7239 99 43.5 98.7761 43.5 98.5V93.5C43.5 93.2239 43.7239 93 44 93H49C49.2761 93 49.5 93.2239 49.5 93.5V98.5C49.5 98.7761 49.2761 99 49 99H44ZM57.5 93C57.2239 93 57 93.2239 57 93.5V98.5C57 98.7761 57.2239 99 57.5 99H62.5C62.7761 99 63 98.7761 63 98.5V93.5C63 93.2239 62.7761 93 62.5 93H57.5ZM57.5 114C57.2239 114 57 113.776 57 113.5V108.5C57 108.224 57.2239 108 57.5 108H62.5C62.7761 108 63 108.224 63 108.5V113.5C63 113.776 62.7761 114 62.5 114H57.5ZM44 108C43.7239 108 43.5 108.224 43.5 108.5V113.5C43.5 113.776 43.7239 114 44 114H49C49.2761 114 49.5 113.776 49.5 113.5V108.5C49.5 108.224 49.2761 108 49 108H44Z" fill="#1AD079"/>
<path d="M44 54C43.7239 54 43.5 53.7761 43.5 53.5V48.5C43.5 48.2239 43.7239 48 44 48H49C49.2761 48 49.5 48.2239 49.5 48.5V53.5C49.5 53.7761 49.2761 54 49 54H44Z" fill="#1AD079"/>
<path d="M57.5 54C57.2239 54 57 53.7761 57 53.5V48.5C57 48.2239 57.2239 48 57.5 48H62.5C62.7761 48 63 48.2239 63 48.5V53.5C63 53.7761 62.7761 54 62.5 54H57.5Z" fill="#1AD079"/>
<path d="M57.5 69C57.2239 69 57 68.7761 57 68.5V63.5C57 63.2239 57.2239 63 57.5 63H62.5C62.7761 63 63 63.2239 63 63.5V68.5C63 68.7761 62.7761 69 62.5 69H57.5Z" fill="#1AD079"/>
<path d="M44 69C43.7239 69 43.5 68.7761 43.5 68.5V63.5C43.5 63.2239 43.7239 63 44 63H49C49.2761 63 49.5 63.2239 49.5 63.5V68.5C49.5 68.7761 49.2761 69 49 69H44Z" fill="#1AD079"/>
<path fill-rule="evenodd" clip-rule="evenodd" d="M0 128C0 128.552 0.447715 129 1 129H30.5C31.0523 129 31.5 128.552 31.5 128V62.6137C31.5 62.2372 31.2885 61.8926 30.9529 61.7221L16.2029 54.23C15.9183 54.0855 15.5817 54.0855 15.2971 54.23L0.547135 61.7221C0.211461 61.8926 0 62.2372 0 62.6137V128ZM6.5 63C6.22386 63 6 63.2239 6 63.5V68.5C6 68.7761 6.22386 69 6.5 69H11.5C11.7761 69 12 68.7761 12 68.5V63.5C12 63.2239 11.7761 63 11.5 63H6.5ZM20 63C19.7239 63 19.5 63.2239 19.5 63.5V68.5C19.5 68.7761 19.7239 69 20 69H25C25.2761 69 25.5 68.7761 25.5 68.5V63.5C25.5 63.2239 25.2761 63 25 63H20ZM6.5 78C6.22386 78 6 78.2239 6 78.5V83.5C6 83.7761 6.22386 84 6.5 84H11.5C11.7761 84 12 83.7761 12 83.5V78.5C12 78.2239 11.7761 78 11.5 78H6.5ZM20 78C19.7239 78 19.5 78.2239 19.5 78.5V83.5C19.5 83.7761 19.7239 84 20 84H25C25.2761 84 25.5 83.7761 25.5 83.5V78.5C25.5 78.2239 25.2761 78 25 78H20ZM6.5 93C6.22386 93 6 93.2239 6 93.5V98.5C6 98.7761 6.22386 99 6.5 99H11.5C11.7761 99 12 98.7761 12 98.5V93.5C12 93.2239 11.7761 93 11.5 93H6.5ZM20 93C19.7239 93 19.5 93.2239 19.5 93.5V98.5C19.5 98.7761 19.7239 99 20 99H25C25.2761 99 25.5 98.7761 25.5 98.5V93.5C25.5 93.2239 25.2761 93 25 93H20ZM6.5 108C6.22386 108 6 108.224 6 108.5V113.5C6 113.776 6.22386 114 6.5 114H11.5C11.7761 114 12 113.776 12 113.5V108.5C12 108.224 11.7761 108 11.5 108H6.5ZM20 108C19.7239 108 19.5 108.224 19.5 108.5V113.5C19.5 113.776 19.7239 114 20 114H25C25.2761 114 25.5 113.776 25.5 113.5V108.5C25.5 108.224 25.2761 108 25 108H20Z" fill="#07133B"/>
<path d="M6.5 69C6.22386 69 6 68.7761 6 68.5V63.5C6 63.2239 6.22386 63 6.5 63H11.5C11.7761 63 12 63.2239 12 63.5V68.5C12 68.7761 11.7761 69 11.5 69H6.5Z" fill="#07133B"/>
<path d="M20 69C19.7239 69 19.5 68.7761 19.5 68.5V63.5C19.5 63.2239 19.7239 63 20 63H25C25.2761 63 25.5 63.2239 25.5 63.5V68.5C25.5 68.7761 25.2761 69 25 69H20Z" fill="#07133B"/>
<path d="M20 84C19.7239 84 19.5 83.7761 19.5 83.5V78.5C19.5 78.2239 19.7239 78 20 78H25C25.2761 78 25.5 78.2239 25.5 78.5V83.5C25.5 83.7761 25.2761 84 25 84H20Z" fill="#07133B"/>
<path d="M6.5 84C6.22386 84 6 83.7761 6 83.5V78.5C6 78.2239 6.22386 78 6.5 78H11.5C11.7761 78 12 78.2239 12 78.5V83.5C12 83.7761 11.7761 84 11.5 84H6.5Z" fill="#07133B"/>
<path fill-rule="evenodd" clip-rule="evenodd" d="M75 47.6137C75 47.2372 75.2115 46.8926 75.5471 46.7221L90.2971 39.23C90.5817 39.0855 90.9183 39.0855 91.2029 39.23L105.953 46.7221C106.289 46.8926 106.5 47.2372 106.5 47.6137V128C106.5 128.552 106.052 129 105.5 129H76C75.4477 129 75 128.552 75 128V47.6137ZM81.5 54C81.2239 54 81 53.7761 81 53.5V48.5C81 48.2239 81.2239 48 81.5 48H86.5C86.7761 48 87 48.2239 87 48.5V53.5C87 53.7761 86.7761 54 86.5 54H81.5ZM95 48C94.7239 48 94.5 48.2239 94.5 48.5V53.5C94.5 53.7761 94.7239 54 95 54H100C100.276 54 100.5 53.7761 100.5 53.5V48.5C100.5 48.2239 100.276 48 100 48H95ZM81.5 69C81.2239 69 81 68.7761 81 68.5V63.5C81 63.2239 81.2239 63 81.5 63H86.5C86.7761 63 87 63.2239 87 63.5V68.5C87 68.7761 86.7761 69 86.5 69H81.5ZM95 63C94.7239 63 94.5 63.2239 94.5 63.5V68.5C94.5 68.7761 94.7239 69 95 69H100C100.276 69 100.5 68.7761 100.5 68.5V63.5C100.5 63.2239 100.276 63 100 63H95ZM81.5 84C81.2239 84 81 83.7761 81 83.5V78.5C81 78.2239 81.2239 78 81.5 78H86.5C86.7761 78 87 78.2239 87 78.5V83.5C87 83.7761 86.7761 84 86.5 84H81.5ZM95 78C94.7239 78 94.5 78.2239 94.5 78.5V83.5C94.5 83.7761 94.7239 84 95 84H100C100.276 84 100.5 83.7761 100.5 83.5V78.5C100.5 78.2239 100.276 78 100 78H95ZM81.5 99C81.2239 99 81 98.7761 81 98.5V93.5C81 93.2239 81.2239 93 81.5 93H86.5C86.7761 93 87 93.2239 87 93.5V98.5C87 98.7761 86.7761 99 86.5 99H81.5ZM95 93C94.7239 93 94.5 93.2239 94.5 93.5V98.5C94.5 98.7761 94.7239 99 95 99H100C100.276 99 100.5 98.7761 100.5 98.5V93.5C100.5 93.2239 100.276 93 100 93H95ZM95 114C94.7239 114 94.5 113.776 94.5 113.5V108.5C94.5 108.224 94.7239 108 95 108H100C100.276 108 100.5 108.224 100.5 108.5V113.5C100.5 113.776 100.276 114 100 114H95ZM81.5 108C81.2239 108 81 108.224 81 108.5V113.5C81 113.776 81.2239 114 81.5 114H86.5C86.7761 114 87 113.776 87 113.5V108.5C87 108.224 86.7761 108 86.5 108H81.5Z" fill="#07133B"/>
<path d="M81.5 54C81.2239 54 81 53.7761 81 53.5V48.5C81 48.2239 81.2239 48 81.5 48H86.5C86.7761 48 87 48.2239 87 48.5V53.5C87 53.7761 86.7761 54 86.5 54H81.5Z" fill="#07133B"/>
<path d="M95 54C94.7239 54 94.5 53.7761 94.5 53.5V48.5C94.5 48.2239 94.7239 48 95 48H100C100.276 48 100.5 48.2239 100.5 48.5V53.5C100.5 53.7761 100.276 54 100 54H95Z" fill="#07133B"/>
<path d="M95 69C94.7239 69 94.5 68.7761 94.5 68.5V63.5C94.5 63.2239 94.7239 63 95 63H100C100.276 63 100.5 63.2239 100.5 63.5V68.5C100.5 68.7761 100.276 69 100 69H95Z" fill="#07133B"/>
<path d="M81.5 69C81.2239 69 81 68.7761 81 68.5V63.5C81 63.2239 81.2239 63 81.5 63H86.5C86.7761 63 87 63.2239 87 63.5V68.5C87 68.7761 86.7761 69 86.5 69H81.5Z" fill="#07133B"/>
<path fill-rule="evenodd" clip-rule="evenodd" d="M144 128C144 128.552 143.552 129 143 129H113.5C112.948 129 112.5 128.552 112.5 128V84.6137C112.5 84.2372 112.711 83.8926 113.047 83.7221L127.797 76.23C128.082 76.0855 128.418 76.0855 128.703 76.23L143.453 83.7221C143.789 83.8926 144 84.2372 144 84.6137V128ZM119 93C118.724 93 118.5 93.2239 118.5 93.5V98.5C118.5 98.7761 118.724 99 119 99H124C124.276 99 124.5 98.7761 124.5 98.5V93.5C124.5 93.2239 124.276 93 124 93H119ZM132.5 93C132.224 93 132 93.2239 132 93.5V98.5C132 98.7761 132.224 99 132.5 99H137.5C137.776 99 138 98.7761 138 98.5V93.5C138 93.2239 137.776 93 137.5 93H132.5ZM119 108C118.724 108 118.5 108.224 118.5 108.5V113.5C118.5 113.776 118.724 114 119 114H124C124.276 114 124.5 113.776 124.5 113.5V108.5C124.5 108.224 124.276 108 124 108H119ZM132.5 108C132.224 108 132 108.224 132 108.5V113.5C132 113.776 132.224 114 132.5 114H137.5C137.776 114 138 113.776 138 113.5V108.5C138 108.224 137.776 108 137.5 108H132.5Z" fill="#83899D"/>
<path d="M119 99C118.724 99 118.5 98.7761 118.5 98.5V93.5C118.5 93.2239 118.724 93 119 93H124C124.276 93 124.5 93.2239 124.5 93.5V98.5C124.5 98.7761 124.276 99 124 99H119Z" fill="#83899D"/>
<path d="M132.5 99C132.224 99 132 98.7761 132 98.5V93.5C132 93.2239 132.224 93 132.5 93H137.5C137.776 93 138 93.2239 138 93.5V98.5C138 98.7761 137.776 99 137.5 99H132.5Z" fill="#83899D"/>
<path d="M15.4 45C15.4 45.2209 15.2209 45.4 15 45.4C14.7791 45.4 14.6 45.2209 14.6 45L15.4 45ZM129.4 67C129.4 67.2209 129.221 67.4 129 67.4C128.779 67.4 128.6 67.2209 128.6 67L129.4 67ZM54.4 30C54.4 30.2209 54.2209 30.4 54 30.4C53.7791 30.4 53.6 30.2209 53.6 30L54.4 30ZM91.5 15L91.5 14.6L91.5 15ZM91.9 30C91.9 30.2209 91.7209 30.4 91.5 30.4C91.2791 30.4 91.1 30.2209 91.1 30L91.9 30ZM128.131 15L128.131 15.4L128.131 15ZM14.6 43.1793C14.6 42.9584 14.7791 42.7793 15 42.7793C15.2209 42.7793 15.4 42.9584 15.4 43.1793L14.6 43.1793ZM15.4 39.5379C15.4 39.7589 15.2209 39.9379 15 39.9379C14.7791 39.9379 14.6 39.7589 14.6 39.5379L15.4 39.5379ZM14.6 35.8966C14.6 35.6756 14.7791 35.4966 15 35.4966C15.2209 35.4966 15.4 35.6756 15.4 35.8966L14.6 35.8966ZM15.4 32.2552C15.4 32.4761 15.2209 32.6552 15 32.6552C14.7791 32.6552 14.6 32.4761 14.6 32.2552L15.4 32.2552ZM14.6 28.6138C14.6 28.3929 14.7791 28.2138 15 28.2138C15.2209 28.2138 15.4 28.3929 15.4 28.6138L14.6 28.6138ZM15.4 24.9724C15.4 25.1933 15.2209 25.3724 15 25.3724C14.7791 25.3724 14.6 25.1933 14.6 24.9724L15.4 24.9724ZM14.6 21.331C14.6 21.1101 14.7791 20.931 15 20.931C15.2209 20.931 15.4 21.1101 15.4 21.331L14.6 21.331ZM15.4 17.6897C15.4 17.9106 15.2209 18.0897 15 18.0897C14.7791 18.0897 14.6 17.9106 14.6 17.6897L15.4 17.6897ZM14.6964 15.3831C14.7811 15.1791 15.0151 15.0822 15.2192 15.1669C15.4232 15.2515 15.52 15.4855 15.4354 15.6896L14.6964 15.3831ZM15.6896 15.4354C15.4855 15.5201 15.2515 15.4232 15.1668 15.2192C15.0822 15.0151 15.179 14.7811 15.3831 14.6965L15.6896 15.4354ZM17.7755 14.6C17.9964 14.6 18.1755 14.7791 18.1755 15C18.1755 15.2209 17.9964 15.4 17.7755 15.4L17.7755 14.6ZM21.5886 15.4C21.3677 15.4 21.1886 15.2209 21.1886 15C21.1886 14.7791 21.3677 14.6 21.5886 14.6L21.5886 15.4ZM25.4017 14.6C25.6226 14.6 25.8017 14.7791 25.8017 15C25.8017 15.2209 25.6226 15.4 25.4017 15.4L25.4017 14.6ZM29.2148 15.4C28.9939 15.4 28.8148 15.2209 28.8148 15C28.8148 14.7791 28.9939 14.6 29.2148 14.6L29.2148 15.4ZM33.0279 14.6C33.2488 14.6 33.4279 14.7791 33.4279 15C33.4279 15.2209 33.2488 15.4 33.0279 15.4L33.0279 14.6ZM36.841 15.4C36.6201 15.4 36.441 15.2209 36.441 15C36.441 14.7791 36.6201 14.6 36.841 14.6L36.841 15.4ZM40.6541 14.6C40.875 14.6 41.0541 14.7791 41.0541 15C41.0541 15.2209 40.875 15.4 40.6541 15.4L40.6541 14.6ZM44.4672 15.4C44.2463 15.4 44.0672 15.2209 44.0672 15C44.0672 14.7791 44.2463 14.6 44.4672 14.6L44.4672 15.4ZM48.2803 14.6C48.5012 14.6 48.6803 14.7791 48.6803 15C48.6803 15.2209 48.5012 15.4 48.2803 15.4L48.2803 14.6ZM52.0934 15.4C51.8725 15.4 51.6934 15.2209 51.6934 15C51.6934 14.7791 51.8725 14.6 52.0934 14.6L52.0934 15.4ZM128.6 65.1739C128.6 64.953 128.779 64.7739 129 64.7739C129.221 64.7739 129.4 64.953 129.4 65.1739L128.6 65.1739ZM129.4 61.5217C129.4 61.7426 129.221 61.9217 129 61.9217C128.779 61.9217 128.6 61.7426 128.6 61.5217L129.4 61.5217ZM128.6 57.8695C128.6 57.6485 128.779 57.4695 129 57.4695C129.221 57.4695 129.4 57.6485 129.4 57.8695L128.6 57.8695ZM129.4 54.2172C129.4 54.4382 129.221 54.6172 129 54.6172C128.779 54.6172 128.6 54.4382 128.6 54.2172L129.4 54.2172ZM128.6 50.565C128.6 50.3441 128.779 50.165 129 50.165C129.221 50.165 129.4 50.3441 129.4 50.565L128.6 50.565ZM129.4 46.9128C129.4 47.1337 129.221 47.3128 129 47.3128C128.779 47.3128 128.6 47.1337 128.6 46.9128L129.4 46.9128ZM128.6 43.2606C128.6 43.0397 128.779 42.8606 129 42.8606C129.221 42.8606 129.4 43.0397 129.4 43.2606L128.6 43.2606ZM129.4 39.6084C129.4 39.8293 129.221 40.0084 129 40.0084C128.779 40.0084 128.6 39.8293 128.6 39.6084L129.4 39.6084ZM128.6 35.9562C128.6 35.7353 128.779 35.5562 129 35.5562C129.221 35.5562 129.4 35.7353 129.4 35.9562L128.6 35.9562ZM129.4 32.3039C129.4 32.5249 129.221 32.7039 129 32.7039C128.779 32.7039 128.6 32.5249 128.6 32.3039L129.4 32.3039ZM128.6 28.6517C128.6 28.4308 128.779 28.2517 129 28.2517C129.221 28.2517 129.4 28.4308 129.4 28.6517L128.6 28.6517ZM129.4 24.9995C129.4 25.2204 129.221 25.3995 129 25.3995C128.779 25.3995 128.6 25.2204 128.6 24.9995L129.4 24.9995ZM128.6 21.3473C128.6 21.1264 128.779 20.9473 129 20.9473C129.221 20.9473 129.4 21.1264 129.4 21.3473L128.6 21.3473ZM129.4 17.6951C129.4 17.916 129.221 18.0951 129 18.0951C128.779 18.0951 128.6 17.916 128.6 17.6951L129.4 17.6951ZM128.565 15.6896C128.48 15.4855 128.577 15.2515 128.781 15.1669C128.985 15.0822 129.219 15.1791 129.304 15.3831L128.565 15.6896ZM128.617 14.6965C128.821 14.7811 128.918 15.0151 128.833 15.2192C128.749 15.4232 128.515 15.5201 128.31 15.4354L128.617 14.6965ZM126.299 15.4C126.079 15.4 125.899 15.2209 125.899 15C125.899 14.7791 126.079 14.6 126.299 14.6L126.299 15.4ZM122.636 14.6C122.857 14.6 123.036 14.7791 123.036 15C123.036 15.2209 122.857 15.4 122.636 15.4L122.636 14.6ZM118.973 15.4C118.752 15.4 118.573 15.2209 118.573 15C118.573 14.7791 118.752 14.6 118.973 14.6L118.973 15.4ZM115.31 14.6C115.531 14.6 115.71 14.7791 115.71 15C115.71 15.2209 115.531 15.4 115.31 15.4L115.31 14.6ZM111.647 15.4C111.426 15.4 111.247 15.2209 111.247 15C111.247 14.7791 111.426 14.6 111.647 14.6L111.647 15.4ZM107.984 14.6C108.205 14.6 108.384 14.7791 108.384 15C108.384 15.2209 108.205 15.4 107.984 15.4L107.984 14.6ZM104.321 15.4C104.1 15.4 103.921 15.2209 103.921 15C103.921 14.7791 104.1 14.6 104.321 14.6L104.321 15.4ZM100.658 14.6C100.879 14.6 101.058 14.7791 101.058 15C101.058 15.2209 100.879 15.4 100.658 15.4L100.658 14.6ZM96.9947 15.4C96.7737 15.4 96.5947 15.2209 96.5947 15C96.5947 14.7791 96.7737 14.6 96.9947 14.6L96.9947 15.4ZM93.3315 14.6C93.5525 14.6 93.7315 14.7791 93.7315 15C93.7315 15.2209 93.5525 15.4 93.3315 15.4L93.3315 14.6ZM53.6 28.125C53.6 27.9041 53.7791 27.725 54 27.725C54.2209 27.725 54.4 27.9041 54.4 28.125L53.6 28.125ZM54.4 24.375C54.4 24.5959 54.2209 24.775 54 24.775C53.7791 24.775 53.6 24.5959 53.6 24.375L54.4 24.375ZM53.6 20.625C53.6 20.4041 53.7791 20.225 54 20.225C54.2209 20.225 54.4 20.4041 54.4 20.625L53.6 20.625ZM54.4 16.875C54.4 17.0959 54.2209 17.275 54 17.275C53.7791 17.275 53.6 17.0959 53.6 16.875L54.4 16.875ZM89.625 15.4C89.4041 15.4 89.225 15.2209 89.225 15C89.225 14.7791 89.4041 14.6 89.625 14.6L89.625 15.4ZM85.875 14.6C86.0959 14.6 86.275 14.7791 86.275 15C86.275 15.2209 86.0959 15.4 85.875 15.4L85.875 14.6ZM82.125 15.4C81.9041 15.4 81.725 15.2209 81.725 15C81.725 14.7791 81.9041 14.6 82.125 14.6L82.125 15.4ZM78.375 14.6C78.5959 14.6 78.775 14.7791 78.775 15C78.775 15.2209 78.5959 15.4 78.375 15.4L78.375 14.6ZM74.625 15.4C74.4041 15.4 74.225 15.2209 74.225 15C74.225 14.7791 74.4041 14.6 74.625 14.6L74.625 15.4ZM70.875 14.6C71.0959 14.6 71.275 14.7791 71.275 15C71.275 15.2209 71.0959 15.4 70.875 15.4L70.875 14.6ZM67.125 15.4C66.9041 15.4 66.725 15.2209 66.725 15C66.725 14.7791 66.9041 14.6 67.125 14.6L67.125 15.4ZM63.375 14.6C63.5959 14.6 63.775 14.7791 63.775 15C63.775 15.2209 63.5959 15.4 63.375 15.4L63.375 14.6ZM59.625 15.4C59.4041 15.4 59.225 15.2209 59.225 15C59.225 14.7791 59.4041 14.6 59.625 14.6L59.625 15.4ZM55.875 14.6C56.0959 14.6 56.275 14.7791 56.275 15C56.275 15.2209 56.0959 15.4 55.875 15.4L55.875 14.6ZM91.1 28.125C91.1 27.9041 91.2791 27.725 91.5 27.725C91.7209 27.725 91.9 27.9041 91.9 28.125L91.1 28.125ZM91.9 24.375C91.9 24.5959 91.7209 24.775 91.5 24.775C91.2791 24.775 91.1 24.5959 91.1 24.375L91.9 24.375ZM91.1 20.625C91.1 20.4041 91.2791 20.225 91.5 20.225C91.7209 20.225 91.9 20.4041 91.9 20.625L91.1 20.625ZM91.9 16.875C91.9 17.0959 91.7209 17.275 91.5 17.275C91.2791 17.275 91.1 17.0959 91.1 16.875L91.9 16.875ZM14.6 45L14.6 43.1793L15.4 43.1793L15.4 45L14.6 45ZM14.6 39.5379L14.6 35.8966L15.4 35.8966L15.4 39.5379L14.6 39.5379ZM14.6 32.2552L14.6 28.6138L15.4 28.6138L15.4 32.2552L14.6 32.2552ZM14.6 24.9724L14.6 21.331L15.4 21.331L15.4 24.9724L14.6 24.9724ZM14.6 17.6897L14.6 15.869L15.4 15.869L15.4 17.6897L14.6 17.6897ZM14.6 15.869C14.6 15.6977 14.6342 15.5333 14.6964 15.3831L15.4354 15.6896C15.4127 15.7443 15.4 15.8047 15.4 15.869L14.6 15.869ZM15.3831 14.6965C15.5333 14.6342 15.6976 14.6 15.869 14.6L15.869 15.4C15.8046 15.4 15.7443 15.4127 15.6896 15.4354L15.3831 14.6965ZM15.869 14.6L17.7755 14.6L17.7755 15.4L15.869 15.4L15.869 14.6ZM21.5886 14.6L25.4017 14.6L25.4017 15.4L21.5886 15.4L21.5886 14.6ZM29.2148 14.6L33.0279 14.6L33.0279 15.4L29.2148 15.4L29.2148 14.6ZM36.841 14.6L40.6541 14.6L40.6541 15.4L36.841 15.4L36.841 14.6ZM44.4672 14.6L48.2803 14.6L48.2803 15.4L44.4672 15.4L44.4672 14.6ZM52.0934 14.6L54 14.6L54 15.4L52.0934 15.4L52.0934 14.6ZM128.6 67L128.6 65.1739L129.4 65.1739L129.4 67L128.6 67ZM128.6 61.5217L128.6 57.8695L129.4 57.8695L129.4 61.5217L128.6 61.5217ZM128.6 54.2172L128.6 50.565L129.4 50.565L129.4 54.2172L128.6 54.2172ZM128.6 46.9128L128.6 43.2606L129.4 43.2606L129.4 46.9128L128.6 46.9128ZM128.6 39.6084L128.6 35.9562L129.4 35.9562L129.4 39.6084L128.6 39.6084ZM128.6 32.3039L128.6 28.6517L129.4 28.6517L129.4 32.3039L128.6 32.3039ZM128.6 24.9995L128.6 21.3473L129.4 21.3473L129.4 24.9995L128.6 24.9995ZM128.6 17.6951L128.6 15.869L129.4 15.869L129.4 17.6951L128.6 17.6951ZM128.6 15.869C128.6 15.8047 128.587 15.7443 128.565 15.6896L129.304 15.3831C129.366 15.5333 129.4 15.6977 129.4 15.869L128.6 15.869ZM128.31 15.4354C128.256 15.4127 128.195 15.4 128.131 15.4L128.131 14.6C128.302 14.6 128.467 14.6342 128.617 14.6965L128.31 15.4354ZM128.131 15.4L126.299 15.4L126.299 14.6L128.131 14.6L128.131 15.4ZM122.636 15.4L118.973 15.4L118.973 14.6L122.636 14.6L122.636 15.4ZM115.31 15.4L111.647 15.4L111.647 14.6L115.31 14.6L115.31 15.4ZM107.984 15.4L104.321 15.4L104.321 14.6L107.984 14.6L107.984 15.4ZM100.658 15.4L96.9947 15.4L96.9947 14.6L100.658 14.6L100.658 15.4ZM93.3315 15.4L91.5 15.4L91.5 14.6L93.3315 14.6L93.3315 15.4ZM53.6 30L53.6 28.125L54.4 28.125L54.4 30L53.6 30ZM53.6 24.375L53.6 20.625L54.4 20.625L54.4 24.375L53.6 24.375ZM53.6 16.875L53.6 15L54.4 15L54.4 16.875L53.6 16.875ZM91.5 15.4L89.625 15.4L89.625 14.6L91.5 14.6L91.5 15.4ZM85.875 15.4L82.125 15.4L82.125 14.6L85.875 14.6L85.875 15.4ZM78.375 15.4L74.625 15.4L74.625 14.6L78.375 14.6L78.375 15.4ZM70.875 15.4L67.125 15.4L67.125 14.6L70.875 14.6L70.875 15.4ZM63.375 15.4L59.625 15.4L59.625 14.6L63.375 14.6L63.375 15.4ZM55.875 15.4L54 15.4L54 14.6L55.875 14.6L55.875 15.4ZM91.1 30L91.1 28.125L91.9 28.125L91.9 30L91.1 30ZM91.1 24.375L91.1 20.625L91.9 20.625L91.9 24.375L91.1 24.375ZM91.1 16.875L91.1 15L91.9 15L91.9 16.875L91.1 16.875Z" fill="#1AD079"/>
</svg>
