<svg width="84" height="24" viewBox="0 0 84 24" fill="none" xmlns="http://www.w3.org/2000/svg">
<g clip-path="url(#clip0_2_15399)">
<g opacity="0.15" filter="url(#filter0_f_2_15399)">
<rect x="2.61475" y="6.33301" width="74.0277" height="13.9406" rx="2.16" fill="#07133B"/>
</g>
<rect x="0.000366211" width="84" height="24" rx="4" fill="white"/>
<path d="M10.3853 11.28C10.3853 10.432 10.6013 9.75733 11.0333 9.256C11.4707 8.75467 12.06 8.504 12.8013 8.504C13.5587 8.504 14.1507 8.75467 14.5773 9.256C15.0093 9.752 15.2253 10.4267 15.2253 11.28C15.2253 12.128 15.0067 12.8053 14.5693 13.312C14.1373 13.8133 13.5507 14.064 12.8093 14.064C12.0787 14.064 11.492 13.8107 11.0493 13.304C10.6067 12.7973 10.3853 12.1227 10.3853 11.28ZM11.0653 11.28C11.0653 11.9467 11.2227 12.4747 11.5373 12.864C11.8573 13.2533 12.2813 13.448 12.8093 13.448C13.3587 13.448 13.7827 13.256 14.0813 12.872C14.3853 12.488 14.5373 11.9573 14.5373 11.28C14.5373 10.6027 14.3853 10.072 14.0813 9.688C13.7773 9.304 13.3507 9.112 12.8013 9.112C12.2573 9.112 11.8307 9.30667 11.5213 9.696C11.2173 10.08 11.0653 10.608 11.0653 11.28ZM17.2189 14L15.8029 9.944H16.4589L17.0189 11.656L17.6109 13.504C17.6589 13.2747 17.8589 12.6587 18.2109 11.656L18.7869 9.944H19.4429L17.9949 14H17.2189ZM22.81 11.712V11.552C22.81 11.216 22.7193 10.9493 22.538 10.752C22.3566 10.5493 22.106 10.448 21.786 10.448C21.482 10.448 21.2233 10.5573 21.01 10.776C20.7966 10.9947 20.6713 11.3067 20.634 11.712H22.81ZM23.186 13.2V13.792C22.8713 13.9573 22.4873 14.04 22.034 14.04C21.4206 14.04 20.9246 13.8533 20.546 13.48C20.1726 13.1013 19.986 12.6027 19.986 11.984C19.986 11.3387 20.154 10.8293 20.49 10.456C20.826 10.0827 21.258 9.896 21.786 9.896C22.2926 9.896 22.6953 10.0587 22.994 10.384C23.2926 10.7093 23.442 11.1707 23.442 11.768C23.442 11.9387 23.4286 12.096 23.402 12.24H20.634C20.682 12.64 20.834 12.9467 21.09 13.16C21.346 13.3733 21.682 13.48 22.098 13.48C22.5513 13.48 22.914 13.3867 23.186 13.2ZM25.0297 9.944V10.656C25.243 10.1547 25.611 9.904 26.1337 9.904C26.2297 9.904 26.3043 9.90933 26.3577 9.92V10.544C26.2457 10.5067 26.131 10.488 26.0137 10.488C25.731 10.488 25.4963 10.6187 25.3097 10.88C25.123 11.1413 25.0297 11.4427 25.0297 11.784V14H24.3977L24.4057 9.944H25.0297ZM28.047 14L26.631 9.944H27.287L27.847 11.656L28.439 13.504C28.487 13.2747 28.687 12.6587 29.039 11.656L29.615 9.944H30.271L28.823 14H28.047ZM31.0861 14V9.944H31.7181V14H31.0861ZM31.1021 8.968C31.0274 8.888 30.9901 8.78933 30.9901 8.672C30.9901 8.55467 31.0274 8.456 31.1021 8.376C31.1821 8.296 31.2808 8.256 31.3981 8.256C31.5154 8.256 31.6141 8.296 31.6941 8.376C31.7741 8.456 31.8141 8.55467 31.8141 8.672C31.8141 8.78933 31.7741 8.888 31.6941 8.968C31.6141 9.04267 31.5154 9.08 31.3981 9.08C31.2808 9.08 31.1821 9.04267 31.1021 8.968ZM35.5053 11.712V11.552C35.5053 11.216 35.4146 10.9493 35.2333 10.752C35.0519 10.5493 34.8013 10.448 34.4813 10.448C34.1773 10.448 33.9186 10.5573 33.7053 10.776C33.4919 10.9947 33.3666 11.3067 33.3293 11.712H35.5053ZM35.8813 13.2V13.792C35.5666 13.9573 35.1826 14.04 34.7293 14.04C34.1159 14.04 33.6199 13.8533 33.2413 13.48C32.8679 13.1013 32.6813 12.6027 32.6813 11.984C32.6813 11.3387 32.8493 10.8293 33.1853 10.456C33.5213 10.0827 33.9533 9.896 34.4813 9.896C34.9879 9.896 35.3906 10.0587 35.6893 10.384C35.9879 10.7093 36.1373 11.1707 36.1373 11.768C36.1373 11.9387 36.1239 12.096 36.0973 12.24H33.3293C33.3773 12.64 33.5293 12.9467 33.7853 13.16C34.0413 13.3733 34.3773 13.48 34.7933 13.48C35.2466 13.48 35.6093 13.3867 35.8813 13.2ZM37.965 14L36.717 9.944H37.389L37.781 11.288C37.9196 11.7573 38.0343 12.168 38.125 12.52C38.221 12.8667 38.2823 13.0987 38.309 13.216L38.349 13.384C38.429 13.0427 38.6236 12.3413 38.933 11.28L39.317 9.944H39.989L40.381 11.28L40.981 13.392C41.0556 13.0773 41.261 12.3733 41.597 11.28L42.005 9.944H42.653L41.373 14H40.597L40.213 12.672L39.653 10.648C39.573 10.9893 39.3916 11.664 39.109 12.672L38.741 14H37.965Z" fill="#07133B"/>
</g>
<defs>
<filter id="filter0_f_2_15399" x="-18.9853" y="-15.267" width="117.228" height="57.1404" filterUnits="userSpaceOnUse" color-interpolation-filters="sRGB">
<feFlood flood-opacity="0" result="BackgroundImageFix"/>
<feBlend mode="normal" in="SourceGraphic" in2="BackgroundImageFix" result="shape"/>
<feGaussianBlur stdDeviation="10.8" result="effect1_foregroundBlur_2_15399"/>
</filter>
<clipPath id="clip0_2_15399">
<rect width="84" height="24" fill="white" transform="translate(0.000366211)"/>
</clipPath>
</defs>
</svg>
