<svg width="30" height="43" viewBox="0 0 30 43" fill="none" xmlns="http://www.w3.org/2000/svg">
<g clip-path="url(#clip0_10826_17134)">
<path opacity="0.2" d="M14.1078 5.78072C14.2039 4.98183 13.1932 4.55684 12.6896 5.18441L1.04181 19.6993C0.621629 20.2229 0.994393 21 1.66576 21H12.1411C12.6046 21 12.971 21.3926 12.9392 21.8549L11.8096 38.2789C11.7504 39.139 12.9064 39.4714 13.3131 38.7112L25.3682 16.1774C25.6533 15.6445 25.2672 15 24.6628 15H13.9001C13.4204 15 13.0485 14.5807 13.1059 14.1044L14.1078 5.78072Z" fill="white"/>
<path d="M18.1198 6.35631C18.1818 5.86089 17.5592 5.59065 17.2396 5.9742L5.68146 19.844C5.41007 20.1696 5.64165 20.6641 6.06557 20.6641H16.4611C16.7512 20.6641 16.9805 20.9103 16.9598 21.1997L15.8256 37.0782C15.7875 37.6121 16.5015 37.8245 16.7614 37.3567L28.5854 16.0735C28.7705 15.7403 28.5295 15.3307 28.1483 15.3307H17.5644C17.2637 15.3307 17.031 15.0671 17.0683 14.7687L18.1198 6.35631Z" fill="#07133B" stroke="#1AD079" stroke-width="1.5" stroke-linecap="round" stroke-linejoin="round"/>
</g>
<defs>
<clipPath id="clip0_10826_17134">
<rect width="30" height="43" fill="white"/>
</clipPath>
</defs>
</svg>
