<svg width="30" height="43" viewBox="0 0 30 43" fill="none" xmlns="http://www.w3.org/2000/svg">
<g clip-path="url(#clip0_10826_17137)">
<path opacity="0.3" d="M23.4651 27.2035C23.4651 29.298 22.7331 31.1927 21.2692 32.8876C19.8052 34.5687 17.7975 35.6641 15.246 36.174V41.0933L9.45296 41.0933V36.1327C7.57073 35.7468 5.77216 35.0785 4.05724 34.1277C2.34233 33.1631 0.989911 32.0539 0 30.7999L4.05724 26.232C5.33994 27.5411 6.64356 28.5539 7.96809 29.2704C9.29262 29.9869 10.7775 30.3452 12.4227 30.3452C13.7751 30.3452 14.8696 30.0627 15.7061 29.4978C16.5427 28.9328 16.9609 28.1818 16.9609 27.2448C16.9609 26.7212 16.7867 26.2596 16.4381 25.86C16.0895 25.4603 15.6225 25.1365 15.0369 24.8885C14.4513 24.6405 13.7751 24.4131 13.0083 24.2064C12.2554 23.9859 11.4537 23.7655 10.6032 23.545C9.76666 23.3107 8.93012 23.0558 8.09357 22.7802C7.25703 22.5046 6.45534 22.1463 5.68851 21.7054C4.93561 21.2645 4.26638 20.7546 3.6808 20.1759C3.09522 19.5971 2.62815 18.8599 2.27958 17.9642C1.93102 17.0548 1.75674 16.0282 1.75674 14.8845C1.75674 12.7624 2.46084 10.916 3.86902 9.34509C5.2772 7.76044 7.13852 6.72696 9.45296 6.24468L9.45296 1.30469L15.246 1.30469L15.246 6.28602C16.7797 6.63051 18.2367 7.1748 19.617 7.9189C21.0112 8.663 22.1336 9.51734 22.9841 10.4819L19.3033 15.4426C18.2018 14.3815 16.9679 13.5479 15.6016 12.9416C14.2491 12.3215 12.9595 12.0114 11.7325 12.0114C10.659 12.0114 9.78758 12.2388 9.11834 12.6935C8.46305 13.1345 8.1354 13.7132 8.1354 14.4298C8.1354 14.9672 8.30968 15.4357 8.65824 15.8353C9.0068 16.2349 9.47387 16.5725 10.0595 16.8481C10.659 17.1099 11.3422 17.3579 12.109 17.5922C12.8758 17.8127 13.6775 18.0469 14.5141 18.2949C15.3645 18.5292 16.215 18.7979 17.0655 19.1011C17.916 19.3904 18.7247 19.7694 19.4915 20.2379C20.2583 20.6926 20.9345 21.2231 21.5201 21.8294C22.1196 22.4219 22.5937 23.1798 22.9422 24.1031C23.2908 25.0125 23.4651 26.046 23.4651 27.2035Z" fill="white"/>
<path d="M26.1434 33.3801L26.1453 33.3778C27.7181 31.5569 28.5237 29.491 28.5237 27.2035C28.5237 25.9718 28.3383 24.8456 27.9518 23.8364C27.5728 22.8331 27.0471 21.9811 26.3622 21.3022C25.73 20.6488 25.0037 20.0801 24.1868 19.5953C23.3757 19.1001 22.5201 18.6992 21.6208 18.3928C20.7575 18.0852 19.8935 17.8122 19.0289 17.5738C18.1953 17.3267 17.3959 17.0931 16.6308 16.8731C15.8924 16.6473 15.2423 16.4109 14.6781 16.1651C14.1709 15.9252 13.7975 15.6466 13.532 15.3423C13.3044 15.0813 13.194 14.7886 13.194 14.4298C13.194 13.9915 13.3725 13.6341 13.8456 13.3158L13.8456 13.3158L13.8484 13.3139C14.3586 12.9672 15.0696 12.7614 16.0411 12.7614C17.1397 12.7614 18.3228 13.0388 19.5976 13.6233L19.5975 13.6234L19.606 13.6271C20.8905 14.1971 22.0516 14.981 23.0915 15.9827C23.2468 16.1323 23.459 16.2078 23.6739 16.19C23.8888 16.1721 24.0857 16.0627 24.2142 15.8895L27.895 10.9288C28.1059 10.6445 28.0893 10.2514 27.8552 9.98589C26.9339 8.94094 25.7354 8.03485 24.2802 7.25803C23.0167 6.57702 21.6911 6.05623 20.3046 5.69603L20.3046 1.30469C20.3046 0.890474 19.9688 0.554687 19.5546 0.554687L13.7616 0.554687C13.3473 0.554687 13.0116 0.890474 13.0116 1.30469L13.0116 5.64885C10.8281 6.20785 9.01958 7.26903 7.61807 8.84568C6.08647 10.5548 5.31534 12.5794 5.31534 14.8845C5.31534 16.1043 5.50127 17.224 5.88784 18.2326L5.88924 18.2362C6.26969 19.2139 6.79011 20.0451 7.46218 20.7093C8.0948 21.3345 8.81445 21.8819 9.61807 22.3526L9.61805 22.3526L9.62323 22.3556C10.434 22.8218 11.2823 23.2009 12.1675 23.4926C13.0146 23.7716 13.862 24.0299 14.7096 24.2672L14.7236 24.271C15.5674 24.4897 16.3615 24.7081 17.1061 24.9262L17.1217 24.9306C17.8631 25.1304 18.5057 25.3473 19.053 25.5791C19.5545 25.7915 19.9211 26.0544 20.1815 26.353C20.4126 26.6179 20.5195 26.905 20.5195 27.2448C20.5195 27.9107 20.2439 28.438 19.595 28.8762C18.9181 29.3334 17.9839 29.5952 16.7313 29.5952C15.1989 29.5952 13.8385 29.2626 12.6335 28.6107C11.3875 27.9367 10.1427 26.9737 8.90153 25.7071C8.756 25.5586 8.55535 25.4771 8.34747 25.4822C8.1396 25.4873 7.94317 25.5785 7.80509 25.7339L3.74784 30.3019C3.50647 30.5736 3.4947 30.9794 3.71992 31.2647C4.78274 32.611 6.21712 33.7796 7.99815 34.7814L8.00217 34.7837C9.59985 35.6694 11.2701 36.3203 13.0116 36.7347L13.0116 41.0933C13.0116 41.5075 13.3473 41.8433 13.7616 41.8433L19.5546 41.8433C19.9688 41.8433 20.3046 41.5075 20.3046 41.0933L20.3046 36.7762C22.713 36.1918 24.6738 35.0676 26.1434 33.3801Z" fill="#1AD079" stroke="white" stroke-width="1.5" stroke-linejoin="round"/>
</g>
<defs>
<clipPath id="clip0_10826_17137">
<rect width="30" height="43" fill="white"/>
</clipPath>
</defs>
</svg>
